<svg width="85" height="85" viewBox="0 0 85 85" fill="none" xmlns="http://www.w3.org/2000/svg">
<path d="M42.5 18.1997V66.7997" stroke="#EE9B1E" stroke-width="3" stroke-linecap="round"/>
<path d="M54.6496 32.375C54.6496 26.7831 49.21 22.25 42.4996 22.25C35.7892 22.25 30.3496 26.7831 30.3496 32.375C30.3496 37.9668 35.7892 42.5 42.4996 42.5C49.21 42.5 54.6496 47.0332 54.6496 52.625C54.6496 58.2168 49.21 62.75 42.4996 62.75C35.7892 62.75 30.3496 58.2168 30.3496 52.625" stroke="#EE9B1E" stroke-width="3" stroke-linecap="round"/>
<path d="M22.25 7.41817C28.207 3.97223 35.1233 2 42.5 2C64.8673 2 83 20.1325 83 42.5C83 64.8673 64.8673 83 42.5 83C20.1325 83 2 64.8673 2 42.5C2 35.1233 3.97223 28.207 7.41817 22.25" stroke="#EE9B1E" stroke-width="3" stroke-linecap="round"/>
</svg>
