<svg width="30" height="30" viewBox="0 0 30 30" fill="none" xmlns="http://www.w3.org/2000/svg">
<path d="M27.9021 16.5271C27.9248 16.6742 27.8888 16.7689 27.7313 16.7517C27.7099 16.6071 27.7447 16.5132 27.9021 16.5271ZM28.8936 16.032C28.8855 16.2074 29.1425 16.2478 28.9069 16.3321C28.8972 16.0584 28.6981 16.3353 28.5476 16.283C28.5472 16.6426 28.9834 16.3046 29.0903 16.4484C29.0903 16.1799 29.1809 16.0588 28.8936 16.032ZM29.7382 14.7184C29.6536 14.8367 29.7422 15.0949 29.9591 15.0173C29.9466 14.8319 29.9191 14.6661 29.7382 14.7184ZM28.6318 14.5526C28.6164 14.6813 28.5112 14.7408 28.5658 14.9226C28.7686 14.9258 28.8191 14.5358 28.6318 14.5526ZM28.6229 14.493C28.8717 14.3192 29.2667 14.7128 29.584 14.4806C29.5605 14.0938 29.9077 13.9963 30 13.693C29.5532 13.671 28.3768 13.8656 28.6229 14.493ZM29.0733 9.22512C29.0142 9.10363 29.1813 9.07646 29.0591 8.9286C28.9223 8.98494 28.7957 9.04569 28.8531 9.18116C28.9365 9.15838 28.9923 9.23711 29.0733 9.22512ZM28.327 8.08858C28.2906 8.20007 28.3007 8.32675 28.1725 8.40748C28.4149 8.82309 28.6297 7.98707 28.327 8.08858ZM25.1475 5.39388C25.0103 5.16169 24.7165 5.34232 24.9334 5.51217C25.0042 5.43704 25.0754 5.39468 25.1475 5.39388ZM19.7935 1.4915C19.3783 1.71129 19.4018 0.977176 19.7935 1.4915V1.4915ZM12.6978 0.273429C12.5 0.323383 12.5756 0.320186 12.3737 0.288615C12.3818 0.607919 12.621 0.463253 12.6978 0.273429ZM12.2256 0.0024807C12.0123 -0.0202982 12.0305 0.123968 11.8958 0.0220624C11.9051 0.102388 11.8759 0.151942 11.8452 0.201496C12.0398 0.187909 12.243 0.183513 12.2256 0.0024807ZM11.5728 0.103188L11.2446 0.145548C11.224 0.398113 11.6157 0.298606 11.5728 0.103188ZM10.8003 0.742994C10.9189 0.807733 11.1422 0.6279 11.2228 0.504415C11.1382 0.447668 10.9864 0.470047 10.8286 0.501618C10.8598 0.609118 10.776 0.640689 10.8003 0.742994ZM9.37258 0.840503C9.24186 0.769369 8.98934 0.888459 9.10265 1.08987C9.26048 1.04312 9.29407 0.930419 9.37258 0.840503ZM7.43739 2.74913C7.53694 2.7855 7.80362 2.64123 7.71055 2.4582C7.57943 2.53813 7.36657 2.58528 7.43739 2.74913ZM3.26634 5.3683C3.46989 5.65523 3.63703 5.43903 3.76207 5.40627C3.80578 5.4798 3.75438 5.54454 3.79 5.61687C3.86082 5.57451 3.92435 5.62686 3.99597 5.59649C3.7734 5.37949 4.28371 5.5797 4.18496 5.37829C3.94135 5.26799 3.86769 5.5797 3.77745 5.24362C3.49984 5.46021 3.48972 5.26719 3.26634 5.3683ZM3.7471 5.65404C3.60465 5.76553 3.48608 5.88102 3.52655 6.00611C3.64471 5.87263 3.92313 5.89701 3.86688 5.70639C3.82479 5.72597 3.78473 5.71238 3.7471 5.65404ZM3.33109 5.70519C3.20847 5.6936 3.06602 5.86584 3.19592 5.98533C3.30802 5.89581 3.41121 5.80709 3.33109 5.70519ZM3.3153 6.75741C3.22142 6.90088 3.12793 6.80017 3.04093 6.95123C3.24812 7.22777 2.9523 7.21379 2.9086 7.35286C3.15748 7.45396 3.45654 6.91766 3.3153 6.75741ZM1.78196 9.4617C1.91227 9.41894 2.01061 9.12961 1.86776 9.00852C1.75971 9.16478 1.78115 9.31743 1.78196 9.4617ZM1.30039 8.89223C1.23726 8.86186 1.16442 8.79152 1.12152 8.84228C1.13407 9.00972 1.03897 9.16677 0.932538 9.25549C1.18789 9.31384 1.16968 9.07126 1.30039 8.89223ZM1.59541 11.5158L1.43313 11.4431C1.32225 11.5977 1.21298 11.6685 1.31941 11.8323C1.12921 11.7835 0.990814 12.0817 1.12112 12.1868C1.15066 12.1088 1.28502 12.2183 1.32265 12.156C1.26519 12.0817 1.25952 11.9882 1.22876 11.9034C1.31982 11.9118 1.39387 11.8902 1.48452 11.9002C1.50921 11.7196 1.5513 11.7332 1.59541 11.5158ZM0.00864854 15.8346C-0.0314149 16.1239 0.0794661 16.2214 0.101724 16.3493C0.245385 16.1839 0.234056 15.9453 0.00864854 15.8346ZM0.575206 17.0966C0.560233 17.29 0.539184 17.2473 0.472412 17.4451C0.527853 17.5142 0.569941 17.5954 0.718459 17.5774C0.603934 17.3656 0.77957 17.1757 0.575206 17.0966ZM0.879928 18.5337C0.803038 18.401 0.879524 18.0685 0.653307 18.2188C0.875073 18.2903 0.541209 18.6156 0.879928 18.5337ZM0.949532 19.3098C1.02278 19.3174 0.959653 19.713 1.21703 19.647C1.19639 19.4844 1.06568 19.1483 0.949532 19.3098ZM0.365981 20.3852C0.334011 20.557 0.440043 20.808 0.670307 20.7792C0.644002 20.5842 0.598268 20.4119 0.365981 20.3852ZM0.609199 20.9614C0.688112 21.1932 0.77026 21.4278 0.97341 21.433C0.870621 21.2396 0.866577 20.8843 0.609199 20.9614ZM1.87342 21.2947C1.64194 21.3395 1.92117 21.5477 1.81758 21.6288C1.97904 21.6724 2.12149 21.5173 2.10652 21.4038C1.92118 21.4442 1.94384 21.3039 1.83538 21.3615C1.86776 21.3455 1.8977 21.3287 1.87342 21.2947ZM1.93008 22.273L1.76982 22.3509C1.87261 22.4832 1.94303 22.6571 2.02882 22.8045C2.1223 22.9472 2.2263 23.0659 2.37644 23.0903C2.38656 22.9204 2.30805 22.7893 2.20972 22.663C2.11785 22.5328 2.00251 22.4101 1.93008 22.273ZM2.60994 23.5802C2.67631 23.7033 2.81593 23.593 2.91224 23.6162L2.80904 23.4527L2.60994 23.5802ZM3.00531 23.8456C3.10568 24.246 3.51198 24.5785 3.81225 24.688C3.64512 24.2212 3.42214 23.999 3.00531 23.8456ZM3.4622 25.7953C3.45653 25.9736 3.71634 25.8733 3.84624 25.8589C3.72808 25.7494 3.60788 25.6647 3.4622 25.7953ZM4.91703 25.4125C4.87697 25.4385 4.83488 25.4956 4.79967 25.4656C4.84136 25.4193 4.78713 25.3913 4.72319 25.4756C4.84986 25.5324 4.71226 25.6247 4.78267 25.6898C4.90044 25.677 5.06595 25.4916 4.91703 25.4125ZM6.97524 26.213C6.63045 26.3157 6.62033 25.8081 6.25045 25.988C6.45401 26.2645 6.61548 26.1326 6.84453 26.4088L6.97524 26.213ZM6.23953 26.7117C6.24681 26.8536 6.44066 26.8943 6.54952 26.8504C6.53495 26.7369 6.34637 26.6981 6.23953 26.7117ZM7.96752 26.7241C7.77935 26.557 7.46936 26.5127 7.12781 26.3061L7.03189 26.4547C7.41998 26.561 7.49607 26.8767 7.96752 26.7241ZM6.76197 27.0494C6.79435 27.2132 7.04323 27.2588 7.15087 27.1445C7.02259 27.1253 6.86153 26.8376 6.76197 27.0494ZM7.29737 27.3679C7.37871 27.4182 7.46369 27.4626 7.5511 27.5034C7.76882 27.2224 7.39732 27.1597 7.29737 27.3679ZM7.8445 27.7763C7.82062 27.6744 7.60776 27.5997 7.52763 27.7543C7.64418 27.8107 7.77327 27.909 7.8445 27.7763ZM8.18119 26.8923C8.35076 26.9519 8.36006 27.0945 8.5616 27.1377C8.62432 26.8799 8.30219 26.6641 8.18119 26.8923ZM7.75263 28.1891C7.78825 28.303 8.00151 28.2507 8.16096 28.3801L8.25606 28.1643C8.07598 28.1216 7.88416 28.0357 7.75263 28.1891ZM8.33497 28.2758C8.34428 28.2722 8.35359 28.2694 8.36734 28.2794C8.407 28.5804 8.7615 28.5008 8.9509 28.5576C8.90031 28.3234 8.47904 28.1583 8.33497 28.2758ZM8.73277 28.1647C8.77041 28.2786 8.97235 28.2702 9.07271 28.2259C9.03345 28.1124 8.83637 28.1228 8.73277 28.1647ZM10.3317 26.4172C10.4284 26.4603 10.481 26.3724 10.5134 26.2221C10.411 26.1994 10.2916 26.3029 10.3317 26.4172ZM10.0099 28.4605C10.1977 28.4908 10.5093 28.7682 10.4575 28.4525C10.5029 28.4709 9.93913 28.3849 10.0099 28.4605ZM11.6995 28.8561C11.6578 28.7922 11.6182 28.7266 11.5805 28.6603C11.5918 28.584 11.67 28.6195 11.6906 28.5576C11.4984 28.4477 11.5591 28.7686 11.3834 28.6903C11.3405 28.8781 11.5052 28.8809 11.5311 29.0096C11.5518 28.9005 11.6963 28.9928 11.6995 28.8561ZM11.4227 29.41C11.4931 29.5215 11.6534 29.4092 11.7375 29.3365C11.606 29.3189 11.4502 29.2621 11.4227 29.41ZM11.9836 28.0656C12.1973 28.2139 12.4332 28.2171 12.6145 28.0528C12.4781 27.7991 12.1527 27.9913 11.9836 28.0656ZM12.451 29.1618C12.6027 29.1278 12.6262 29.2314 12.7424 29.2357C12.8257 29.0387 12.432 28.9412 12.451 29.1618ZM12.7092 27.9401C12.7035 28.0153 12.6481 28.0193 12.6554 28.1144L12.8799 28.1252C12.899 27.9705 12.7929 27.9693 12.7092 27.9401ZM12.7322 29.4711C12.8367 29.4416 13.0604 29.5586 13.0839 29.4276C12.9888 29.4208 12.8027 29.2841 12.7322 29.4711ZM12.9249 28.1268C13.0268 28.0888 13.2741 28.2475 13.2393 28.0225C13.192 27.9046 12.8755 27.9066 12.9249 28.1268ZM14.0353 27.931C13.9139 27.881 13.6756 27.9393 13.4157 27.9014C13.4275 28.0121 13.3676 28.0329 13.3741 28.1384C13.6885 28.0592 13.9297 28.2143 14.0353 27.931ZM13.75 29.8863C13.9074 29.8348 13.8564 30.043 14.0151 29.9918C14.0495 29.8292 13.7403 29.6254 13.75 29.8863ZM14.3611 29.7365L14.3756 29.9123C14.6545 29.7465 14.9572 29.9906 15.2388 29.6921C14.9195 29.5263 14.735 29.8528 14.3611 29.7365ZM14.5642 27.8902C14.3591 27.9641 14.27 27.8646 14.2215 28.0385C14.3283 27.9893 14.6177 28.122 14.5642 27.8902ZM15.2902 29.6849C15.357 29.7253 15.4404 29.7409 15.5561 29.7037C15.5448 29.4643 15.3169 29.5523 15.2902 29.6849ZM16.2072 27.8822C16.3829 27.8662 16.4768 27.7867 16.4666 27.6332C16.3299 27.6772 16.1198 27.6624 16.2072 27.8822ZM16.8474 27.6444C17.0016 27.678 17.1878 27.6152 17.1489 27.4126C16.9656 27.3611 16.9365 27.5197 16.8474 27.6444ZM18.4006 28.1224C18.7968 28.1364 18.8632 27.8462 19.1663 27.8882C18.9295 27.6328 18.5479 28.0361 18.4006 28.1224ZM18.4128 26.9447C18.6568 26.9299 18.8567 26.7445 18.9708 26.6545C18.7725 26.5067 18.4642 26.7033 18.4128 26.9447ZM19.7632 28.2399C19.8818 28.1703 20.0432 28.1128 19.9708 27.9809C19.8975 28.066 19.6167 28.0796 19.7632 28.2399ZM20.0894 27.2212C20.2184 27.1109 20.3394 27.1005 20.4532 27.0582C20.2885 26.8584 20.1476 27.077 20.0894 27.2212ZM21.0756 27.4082C21.2378 27.3731 21.2524 27.3219 21.2123 27.1609C21.15 27.2408 20.9157 27.28 21.0756 27.4082ZM21.1711 26.3073C20.9974 26.4795 20.9598 26.5079 20.7441 26.627C20.8032 26.7113 20.8639 26.7672 20.9262 26.7856C20.9372 26.5267 21.3418 26.5906 21.1711 26.3073ZM21.2892 27.1773C21.4479 27.0909 21.5895 26.9974 21.723 26.8851C21.8509 26.766 21.9683 26.6242 22.0865 26.4515C21.9634 26.5674 21.7995 26.6637 21.653 26.7756C21.498 26.8791 21.3601 26.9986 21.2892 27.1773ZM21.5118 26.6414C21.392 26.623 21.2597 26.8156 21.2265 26.9299C21.3455 26.9503 21.4827 26.7544 21.5118 26.6414ZM22.1678 26.6961C22.1913 26.7904 22.2888 26.8943 22.1273 26.9679L22.2435 27.1017C22.3714 27.0062 22.3102 26.6897 22.1678 26.6961ZM22.6437 25.8541C22.5336 25.9664 22.4583 26.0671 22.4689 26.1846C22.5275 26.0791 22.8363 25.984 22.6437 25.8541ZM23.7327 25.3693C23.829 25.5376 23.5587 25.3122 23.5959 25.2566C23.4858 25.4549 23.7084 25.4784 23.8173 25.7182L23.9253 25.5979C23.7056 25.5448 23.9358 25.2946 23.7327 25.3693ZM24.0601 23.5274C23.8889 23.9447 23.7274 23.8795 23.5498 24.2568C23.6356 24.3151 23.6918 24.3743 23.7104 24.437C23.7448 24.4138 23.7719 24.3587 23.8193 24.391C23.6477 23.9175 24.1386 24.1649 24.1337 23.6329C24.3846 23.7141 24.2155 23.8547 24.2746 23.9646C24.3539 23.8751 24.3717 23.7936 24.3608 23.7169L24.0601 23.5274ZM24.8302 22.8165C24.7569 22.9428 24.7157 23.0467 24.7845 23.1386C24.8549 23.0667 24.9844 23.1426 25.0168 22.9728C24.9245 22.9284 24.8597 22.8764 24.8302 22.8165ZM24.7221 22.3685C24.6886 22.4169 24.6691 22.4992 24.6032 22.4748C24.5574 22.4644 24.4984 22.4237 24.4753 22.4648C24.7505 22.5579 24.415 22.7929 24.6546 22.8948C24.8079 22.7877 24.7642 22.5432 24.7221 22.3685ZM25.7573 21.1644C25.7731 21.1037 25.7824 21.0445 25.6804 21.0294C25.7063 20.969 25.7771 20.9878 25.7889 20.9043C25.5874 20.798 25.5554 21.1712 25.7573 21.1644ZM26.5647 19.9364C26.5748 20.0351 26.4178 20.2193 26.542 20.2593C26.5513 20.0555 26.8819 20.0471 26.5647 19.9364ZM28.2194 14.6113C28.2279 14.6461 28.2384 14.6785 28.2874 14.6609C28.3214 14.4255 28.4387 14.6225 28.5318 14.6869L28.4687 14.2752C28.1494 14.3332 28.2987 14.6681 28.2194 14.6113ZM16.1312 0.502817C15.879 0.657073 16.3643 0.533587 16.357 0.360948L16.0312 0.308197C15.9924 0.419294 16.0996 0.436478 16.1312 0.502817ZM9.38067 1.14142C9.24146 1.05111 8.75017 1.39918 8.77931 1.35802C8.99096 1.49789 9.30013 1.25132 9.38067 1.14142ZM7.45196 2.30355C7.37992 2.32073 7.2921 2.37468 7.25609 2.31473C7.34916 2.21243 7.89832 2.06617 7.65713 1.97625C7.60533 2.15288 7.09948 2.14609 7.14076 2.35869C7.26783 2.36469 7.46248 2.57449 7.45196 2.30355ZM4.40187 4.41079C4.32296 4.46074 4.24 4.53867 4.18739 4.42078C4.27642 4.35844 4.42696 4.09388 4.27885 4.13584C4.33146 4.28011 4.08339 4.14184 3.998 4.26692C4.12507 4.45435 3.88024 4.58982 3.83775 4.75287C4.03766 4.75327 4.27116 4.6166 4.40187 4.41079ZM2.23723 7.93192C2.21821 7.9563 2.23642 8.01105 2.28336 7.96869C2.1567 7.78246 2.57554 7.58384 2.46304 7.40081C2.24654 7.55347 2.1482 7.82882 2.07657 7.94551C2.12473 7.90395 2.18098 7.91793 2.23723 7.93192ZM2.40315 8.10496C2.41448 8.08298 2.39708 8.0626 2.37644 8.04302C2.39263 8.0638 2.3987 8.08418 2.40315 8.10496ZM1.89811 8.76794C1.78601 8.70161 1.77063 8.62408 1.85076 8.53456C1.94586 8.6041 1.82324 8.69761 1.97904 8.75915C2.05512 8.46063 2.44483 8.28959 2.40315 8.10496C2.40032 8.11055 2.39708 8.11615 2.38939 8.12214C2.34244 8.08578 2.36106 8.04382 2.33031 8.00585C2.2781 8.18289 2.17572 8.05301 2.10288 8.10576C2.14375 8.18329 2.11907 8.26561 2.06403 8.35113C1.85805 8.32356 1.57355 8.51378 1.62333 8.64246C1.66825 8.59171 1.71519 8.54735 1.78561 8.62208C1.81758 8.84507 1.25831 8.79632 1.44001 9.11482C1.68565 9.0309 1.66906 8.84547 1.89811 8.76794ZM1.56344 9.70108C1.53147 9.87851 1.19558 9.76262 1.3182 9.98961C1.39873 9.96523 1.73502 9.6815 1.56344 9.70108ZM1.64113 21.8106C1.67108 21.7978 1.68565 21.7483 1.62009 21.7663C1.62414 21.8062 1.59865 21.8382 1.53187 21.8582L1.59622 21.9929C1.74231 21.9229 1.74109 22.0172 1.81353 21.8954C1.78763 21.8018 1.69819 21.8406 1.64113 21.8106ZM13.8229 29.177C13.9868 29.2014 14.1296 28.9264 14.0499 28.8717C14.077 29.0839 13.7241 28.8825 13.8229 29.177ZM16.2845 29.6206C16.1473 29.5479 15.943 29.6673 15.928 29.7029C16.0826 29.7233 16.1243 29.9347 16.2991 29.9199C16.3343 29.7681 16.2679 29.8148 16.2845 29.6206ZM22.0662 25.9128C22.046 25.7734 22.0108 25.8617 21.9027 25.7422C21.9566 25.6998 22.0306 25.6075 21.9335 25.6347C21.8679 25.7857 21.8275 25.7082 21.7943 25.8405C21.889 25.954 21.9768 25.9248 22.0662 25.9128ZM23.6975 24.5525C23.6801 24.7375 23.549 24.8598 23.4247 24.9673C23.2956 25.0716 23.1682 25.1567 23.1629 25.2942C23.3114 25.1803 24.0144 24.7651 23.6975 24.5525ZM23.4543 24.1868C23.1362 23.9554 23.1589 24.5529 23.43 24.4146C23.4397 24.2712 23.2341 24.3771 23.2706 24.2332C23.3215 24.1752 23.415 24.2931 23.4543 24.1868ZM29.2299 15.6476C29.0676 15.6851 29.1603 15.4242 29.0364 15.4174C28.877 15.4837 28.756 15.7658 28.5731 15.634C28.4497 15.6587 28.6686 15.785 28.5274 15.8726C28.2744 15.7403 28.3829 16.0676 28.1826 16.1219C28.015 16.1379 28.026 15.9673 27.9333 15.9065C27.9017 16.1647 27.2611 15.9353 27.2206 15.9473C27.1591 15.9601 27.0899 15.9769 27.0195 15.9928C27.0183 16.0116 27.0135 16.03 26.9985 16.0472C26.9633 16.0344 26.9269 16.0272 26.8904 16.0192C26.8014 16.0356 26.714 16.0456 26.6363 16.0404C26.6132 16.1055 26.6258 16.1751 26.7447 16.2602C26.6913 16.3373 26.5303 16.2118 26.5776 16.3026C26.6035 16.3285 26.6375 16.3197 26.6658 16.3377C26.425 16.488 26.6173 16.8688 26.4319 17.0938C26.5897 17.0227 26.5497 17.0131 26.716 16.9743C26.5893 16.9036 26.8115 16.9024 26.6848 16.8325C26.6424 16.8472 26.6662 16.8968 26.6136 16.8632C26.5808 16.6374 26.7755 16.5811 26.7532 16.3725C26.8038 16.4388 26.7868 16.5403 26.9285 16.4444C27.005 16.5463 26.9645 16.5955 26.8293 16.6095C26.8783 16.6774 26.9908 16.9384 26.8888 17.0547C26.8459 17.0115 26.8054 16.9555 26.7411 17.0015C26.6525 17.0435 26.7787 17.1306 26.7613 17.1877L26.8682 17.1426C26.8119 17.3524 26.7961 17.5718 26.7787 17.7952C26.6929 17.8575 26.6505 17.7876 26.5707 17.8311L26.6622 17.9506C26.5962 17.9846 26.5582 17.9354 26.506 17.9286C26.5505 17.9886 26.4339 18.0002 26.5226 18.0733C26.5695 18.0637 26.6237 18.0329 26.6561 18.0665C26.5889 18.1169 26.6614 18.2104 26.561 18.2499C26.5226 18.2028 26.4886 18.1424 26.4202 18.182C26.489 18.2503 26.4016 18.2691 26.4942 18.3463C26.5574 18.3251 26.6067 18.3407 26.65 18.3734C26.3655 18.4138 26.5918 18.624 26.4817 18.7231C26.4161 18.7175 26.3971 18.6044 26.3239 18.6188C26.298 18.6376 26.2794 18.6616 26.2603 18.6859C26.2668 18.7331 26.2798 18.7803 26.3036 18.827C26.268 18.8034 26.2409 18.7799 26.217 18.7559C26.0989 18.9957 26.1474 19.3709 25.75 19.5064C25.7808 19.5567 25.8629 19.5152 25.8799 19.5907C25.8237 19.6914 25.8213 19.5431 25.7075 19.5827C25.6521 19.6834 25.7836 19.5987 25.8152 19.707C25.729 19.735 25.6994 19.6606 25.6043 19.7034C25.6452 19.8285 25.4967 19.8604 25.5469 19.9923C25.6128 19.9819 25.659 20.0051 25.6962 20.0443C25.6735 20.0503 25.6715 20.0671 25.6776 20.0882C25.7116 20.0691 25.7496 20.0587 25.7937 20.0623C25.68 20.2841 25.5805 20.607 25.4376 20.999C25.4121 20.9826 25.4174 20.7384 25.4724 20.5078C25.4728 20.5066 25.4728 20.5055 25.4732 20.5043C25.2859 20.551 25.4696 20.6038 25.3842 20.6837C25.2903 20.6697 25.1293 20.6889 25.0985 20.7688C25.2418 20.8188 25.262 20.7916 25.3607 20.826C25.2381 20.8287 25.2915 20.941 25.1147 20.9079C25.2086 20.9798 25.1693 21.1289 25.0123 21.0513C25.0726 21.2935 24.901 21.3866 24.7901 21.5141C24.7711 21.6232 24.9528 21.7299 24.8658 21.7615C24.7501 21.6204 24.7715 21.8054 24.5805 21.7143C24.7157 22.0184 24.3794 22.0608 24.5497 22.3166C24.4215 22.2982 24.4915 22.444 24.4385 22.4888C24.2284 22.1883 24.0743 22.7538 24.0629 22.9124C23.8812 22.8069 24.0908 22.717 24.0172 22.6555C23.9184 22.6559 23.808 22.6439 23.7602 22.6882C23.9213 22.7662 23.7776 22.7466 23.7416 22.7917C23.8565 22.8828 23.8428 22.8984 23.8877 22.9943C23.7622 23.0003 23.7999 22.8533 23.7117 22.8241C23.6671 22.8852 23.5559 22.9268 23.4802 22.9284C23.4871 22.9392 23.4923 22.952 23.4992 22.9632C23.5016 22.9628 23.5028 22.96 23.5057 22.9596C23.5061 22.964 23.5053 22.97 23.5057 22.9744C23.5267 23.0099 23.5502 23.0435 23.5656 23.0843C23.5429 23.0727 23.5235 23.0723 23.5032 23.0687C23.4968 23.1174 23.4814 23.165 23.4608 23.2073C23.5109 23.2225 23.5587 23.2401 23.5923 23.2709C23.5554 23.3404 23.4644 23.3128 23.3794 23.2945C23.3721 23.2973 23.3669 23.3061 23.3588 23.3073C23.358 23.3025 23.3588 23.2953 23.358 23.2901C23.2669 23.2725 23.1884 23.2769 23.2005 23.4403C23.3215 23.3804 23.411 23.4135 23.5097 23.4335C23.5085 23.4235 23.5097 23.4147 23.5077 23.4048C23.5648 23.4439 23.5979 23.4523 23.6186 23.4435C23.6186 23.4435 23.619 23.4435 23.6194 23.4435C23.6801 23.4171 23.623 23.2357 23.7343 23.2665C23.7351 23.2685 23.7347 23.2701 23.7355 23.2721C23.7926 23.2285 23.8153 23.1502 23.9112 23.1434C23.9528 23.2681 23.8233 23.3404 23.7444 23.3152C23.7513 23.3516 23.7525 23.3856 23.7469 23.4163C23.7513 23.4143 23.7554 23.4143 23.7598 23.4123C23.7554 23.4159 23.7505 23.4207 23.7456 23.4251C23.7121 23.577 23.5571 23.6749 23.6109 23.8791C23.3729 23.7249 23.6445 24.0054 23.4652 24.0745C23.3232 23.9035 23.4567 23.7728 23.5012 23.5882C23.4927 23.585 23.4842 23.5826 23.4757 23.5758C23.4903 23.575 23.5004 23.5694 23.5061 23.559C23.5065 23.5574 23.5065 23.5558 23.5069 23.5538C23.5109 23.5434 23.5126 23.5298 23.5081 23.5103C23.3066 23.4371 23.2086 23.4715 23.1338 23.533C23.0905 23.4403 23.135 23.4028 22.9699 23.3484C22.9464 23.3988 22.8557 23.3724 22.8699 23.4659C22.9537 23.5115 22.9808 23.3924 22.9861 23.5318C22.8699 23.5714 22.7598 23.5374 22.8537 23.752C22.6449 23.6497 22.5089 23.846 22.6441 23.9519L22.4976 23.9083C22.5709 24.0617 22.4709 24.0202 22.426 24.1053C22.2924 24.047 22.2892 23.961 22.167 23.9798C22.1597 24.1245 22.1504 24.2851 21.9804 24.2827C21.9626 24.1768 22.1338 24.1493 22.0209 24.0374C21.9655 24.1045 21.8683 24.0178 21.8396 24.0438C21.7967 24.2268 21.738 24.2256 21.7939 24.4382C21.5086 24.395 21.5903 24.9497 21.2176 24.7619C21.2524 24.8354 21.2484 24.8738 21.2014 24.9094C21.0739 24.9018 21.0553 24.6648 20.961 24.7547C20.9392 24.8466 21.0925 24.8494 21.0472 24.9533C20.927 25.04 20.7838 25.0069 20.7878 25.2215C20.6571 25.2163 20.7866 25.0848 20.7024 25.0568C20.5976 25.1056 20.4212 25.1156 20.4677 25.329C20.369 25.3482 20.2484 25.3138 20.2112 25.466C20.1327 25.4205 20.1266 25.3454 20.0206 25.3098C20.0262 25.4365 19.9615 25.4001 19.9076 25.3901C19.9283 25.4429 19.9056 25.4884 19.8656 25.5192C19.8805 25.5739 19.8866 25.6319 19.8935 25.6902C19.8401 25.6527 19.8279 25.5995 19.8214 25.544C19.7858 25.5584 19.7474 25.5632 19.7174 25.5524C19.6924 25.4525 19.7268 25.4125 19.7834 25.3873C19.7692 25.3645 19.7506 25.3438 19.7191 25.3274C19.7122 25.4045 19.6588 25.3713 19.6292 25.3945C19.6681 25.4569 19.7179 25.5148 19.6891 25.6027C19.5843 25.5556 19.6361 25.4221 19.539 25.4617C19.5115 25.5803 19.5904 25.6619 19.6511 25.749C19.5094 25.6167 19.6693 25.8721 19.5552 25.8117C19.56 25.7426 19.5111 25.7909 19.4584 25.7446C19.4637 25.6751 19.5325 25.687 19.4896 25.6387C19.3731 25.538 19.3431 25.6659 19.278 25.7026C19.3678 25.7993 19.3532 25.6083 19.4584 25.7446C19.4156 25.9648 19.2258 25.8145 19.3148 26.0771C19.2598 25.942 19.197 25.9592 19.1481 25.8693C19.1715 25.8413 19.1942 25.7302 19.1416 25.6467C19.0615 25.6651 18.8393 25.6071 18.8963 25.8133C18.9299 25.7086 19.0651 25.7626 19.1056 25.8821C19.0109 26.0235 18.8676 26.0123 18.7899 26.2265C18.6329 26.1098 18.5738 26.3856 18.5079 26.141C18.4233 26.2773 18.3318 26.2501 18.2881 26.3724C18.2448 26.1702 18.1234 26.4571 18.0222 26.3292C18.0603 26.1946 18.1635 26.3364 18.1995 26.2018C18.1287 26.1494 18.1186 26.1218 18.1303 26.1023C18.1048 26.1146 18.0789 26.1262 18.0534 26.139C18.0461 26.0791 18.0971 25.9932 18.1635 25.9316C18.108 25.9296 18.0773 25.9556 18.0404 25.9188C18.006 26.0575 17.9287 26.1366 17.8551 26.2269C17.8595 26.2793 17.826 26.3153 17.7827 26.3348C17.7681 26.3596 17.7523 26.3816 17.7406 26.4108C17.7284 26.3916 17.7248 26.3712 17.7236 26.3504C17.6928 26.3528 17.6629 26.3484 17.641 26.3344C17.6119 26.2633 17.669 26.2425 17.7309 26.2241C17.7321 26.193 17.7293 26.1622 17.7082 26.135C17.726 26.0275 17.8875 26.0815 17.8268 25.9572C17.7175 26.0307 17.6099 26.1358 17.4581 25.9896C17.3743 26.0863 17.3003 26.2717 17.1688 26.0891C17.0235 26.1374 17.0583 26.5426 16.8802 26.3928C16.9761 26.3348 16.9409 26.2345 16.9531 26.1086C16.7872 26.2905 16.4492 26.1634 16.4144 26.3972C16.512 26.5534 16.4294 26.2649 16.5269 26.4204L16.4302 26.5818C16.3772 26.3984 16.2712 26.4347 16.1753 26.4407C16.1506 26.6757 16.0187 26.5638 15.9219 26.6853C15.8179 26.6158 15.8374 26.5323 15.7613 26.5299C15.6383 26.7209 16.0235 26.7788 15.8167 26.8999C15.8086 26.6917 15.5007 26.4923 15.3643 26.583C15.4031 26.6362 15.4035 26.6873 15.3857 26.7381C15.3044 26.6745 15.3602 26.6142 15.2987 26.551C15.1352 26.5874 15.1526 26.7812 15.0329 26.6034C14.9912 26.6713 15.0442 26.7485 15.0025 26.8164C14.9232 26.7469 14.9806 26.6913 14.9208 26.623C14.8123 26.7413 14.7026 26.786 14.6079 26.6517C14.5088 26.7229 14.6589 26.822 14.5452 26.8923C14.4797 26.8548 14.4056 26.9207 14.3388 26.8991C14.4028 26.8452 14.4291 26.7864 14.4007 26.7205C14.1948 26.7449 14.0199 26.7644 13.8451 26.7688C13.6707 26.7652 13.4959 26.7425 13.2915 26.6925C13.3089 26.7385 13.3231 26.7832 13.2693 26.814C13.2405 26.6785 13.162 26.8064 13.1187 26.7493C13.1478 26.7029 13.1551 26.6517 13.1268 26.5934C13.0086 26.641 12.9277 26.5239 12.7921 26.643C12.7573 26.5818 12.7917 26.5371 12.7614 26.4775C12.576 26.6709 12.5 26.4096 12.3417 26.4831C12.3551 26.5199 12.3336 26.5454 12.3389 26.5786C12.417 26.5534 12.4696 26.6206 12.5283 26.6697C12.4206 26.6861 12.298 26.7045 12.213 26.8623C12.1082 26.7429 12.3684 26.7385 12.3227 26.6382C12.0151 26.6222 11.3296 26.9443 11.0904 26.6661C10.9994 26.7852 10.9929 26.7133 10.9043 26.6877C10.9788 26.4755 11.2551 26.6577 11.2531 26.4331C11.1054 26.3764 10.9217 26.3568 10.704 26.368C10.687 26.388 10.6692 26.4044 10.6578 26.4415L10.7351 26.4611C10.6643 26.625 10.6667 26.3864 10.581 26.4216L10.5935 26.3772C10.5684 26.3796 10.5453 26.38 10.519 26.3832C10.4628 26.2605 10.5457 26.2146 10.553 26.3648C10.5587 26.3408 10.5814 26.3249 10.6117 26.3109L10.6279 26.2521L10.7117 26.2737C10.7837 26.2477 10.8569 26.2134 10.876 26.137C10.7258 26.1003 10.4381 26.171 10.3738 26.2505C10.4122 26.2225 10.3976 26.1706 10.3831 26.1186C10.0006 26.2034 9.73638 26.0475 9.21111 26.3268C9.19654 26.2118 9.27262 26.1482 9.32725 26.0731C9.35032 26.1334 9.288 26.1946 9.34384 26.1886C9.40212 26.2106 9.43773 26.1934 9.44501 26.1043C9.38917 26.0819 9.35396 26.0235 9.29933 25.9987C9.26534 26.1086 9.21475 26.1234 9.17266 26.189C9.07675 26.1606 9.03426 26.1011 9.09011 25.9828C9.08444 25.938 9.07514 25.8996 9.03952 25.906C8.99825 25.928 8.93713 25.9368 8.93592 25.9852C9.05206 26.0399 9.04398 26.0111 8.99501 26.1674C9.08728 26.1534 9.14069 26.205 9.19897 26.2489C9.07311 26.3113 9.31228 26.3568 9.18642 26.4196C9.08444 26.3876 9.13867 26.3856 9.12046 26.2397C9.03183 26.1694 8.9428 26.1722 8.8566 26.1862C8.85134 26.1998 8.84851 26.211 8.84042 26.2277C8.81978 26.2102 8.80117 26.203 8.78376 26.199C8.71254 26.2126 8.64294 26.2225 8.57819 26.1926C8.60247 26.1754 8.62918 26.1598 8.65548 26.1438C8.65508 26.1418 8.65467 26.141 8.65426 26.139C8.67086 26.1298 8.69109 26.1186 8.71213 26.1075C8.83152 26.0347 8.94483 25.9576 8.95656 25.8133C8.89505 25.6603 8.61096 25.8585 8.50453 25.7698C8.52436 25.5664 8.37666 25.6175 8.30341 25.5544C8.2334 25.6751 7.89913 25.6683 7.96104 25.54C8.01891 25.5863 8.17188 25.6011 8.1476 25.4453C8.03065 25.4996 7.99909 25.4337 7.91936 25.4341C7.91734 25.4972 7.82426 25.4908 7.84652 25.5727C7.61666 25.5244 7.70205 25.5348 7.43051 25.514C7.44265 25.1567 7.05659 25.5096 7.09463 25.112C6.9716 25.1551 6.96108 25.068 6.8243 25.1244C6.98415 24.9649 7.11203 24.8902 7.29939 24.7975C7.02947 24.6452 6.81459 24.3906 6.40829 24.5984C6.26543 24.4166 6.01169 24.2 5.6665 24.272C5.74015 24.3675 5.813 24.477 5.94492 24.5897C6.14767 24.6256 6.36013 24.6392 6.3488 24.8019C6.33787 24.7263 6.54021 24.6512 6.54709 24.7367C6.49691 24.7595 6.46251 24.7983 6.45846 24.8666C6.62519 24.909 6.94206 24.6508 7.06994 24.8446C6.84979 24.9541 6.40302 25.1172 6.21687 24.9753C6.25127 24.8938 6.44754 24.9717 6.42366 24.8314C6.18773 24.8354 6.04367 24.7755 5.7523 24.9038C5.70212 24.7395 5.59608 24.6312 5.52567 24.4906C5.50301 24.5065 5.48035 24.5241 5.45687 24.5449C5.46335 24.5233 5.46092 24.5097 5.46052 24.4945C5.22944 24.5141 5.18736 24.383 4.95831 24.5437C4.95102 24.4066 5.1299 24.4906 5.11209 24.3415C5.104 24.3311 5.09833 24.3243 5.09185 24.3163C5.07931 24.3039 5.06676 24.2915 5.05786 24.274C5.04653 24.2596 5.04451 24.2528 5.04936 24.2456C5.04127 24.224 5.03196 24.2052 5.02913 24.1764C5.05665 24.1696 5.08538 24.1573 5.11452 24.1417L4.78713 24.1421C4.79158 24.027 4.73816 23.961 4.62445 23.9407C4.55241 24.0637 4.66856 24.0382 4.67382 24.1005C4.54675 24.0753 4.46662 24.1077 4.41401 24.174C4.37719 24.0905 4.22948 24.0937 4.29868 23.9295C4.39661 23.9207 4.49535 23.9111 4.49616 23.7788C4.35614 23.7976 4.21329 23.8052 4.07044 23.8104C4.07691 23.8212 4.07853 23.8396 4.07165 23.8795C4.01176 23.9219 3.97574 23.8731 3.94256 23.8148C3.91868 23.8156 3.89521 23.8168 3.87133 23.8172C3.90087 23.7632 3.89602 23.7337 3.877 23.7141C3.87174 23.7089 3.86648 23.7033 3.86081 23.6997C3.76854 23.6529 3.51522 23.7193 3.60748 23.543C3.72929 23.4775 3.74224 23.5978 3.83168 23.4855C3.80861 23.5882 3.96522 23.5646 4.00204 23.625C4.02794 23.5726 4.07894 23.5538 4.08379 23.4699L3.8426 23.4459C4.00124 23.2837 3.74224 23.3029 3.75843 23.1534C4.00852 23.2093 4.08946 23.4539 4.39095 23.346C4.33834 23.2985 4.28816 23.2425 4.23191 23.2073C4.27602 23.2061 4.32336 23.1946 4.37152 23.1806C4.18375 23.0851 3.8685 23.0343 3.98383 22.8337C3.95146 22.8041 3.92394 22.7749 3.90938 22.7474C3.94013 22.7318 3.96805 22.7234 3.99719 22.7118C3.96886 22.7006 3.93487 22.6926 3.89561 22.6882C3.87497 22.7062 3.85879 22.7246 3.83613 22.7426C3.82884 22.7286 3.81913 22.7214 3.81063 22.7106C3.79647 22.7498 3.78392 22.7909 3.74426 22.7909C3.63176 22.5028 3.32016 22.3222 3.16112 22.0556C3.13805 22.0536 3.11336 22.0536 3.08382 22.0584C3.09394 22.034 3.10851 22.0105 3.12268 21.9869C3.10406 21.9469 3.08827 21.9054 3.07856 21.8602C3.04619 21.9109 2.97334 21.8842 2.92842 21.9089C3.01664 21.7759 2.80986 21.7927 2.8479 21.686C2.86611 21.686 2.88189 21.6884 2.89646 21.6915C2.8657 21.5781 2.85113 21.4777 2.60792 21.4889C2.62896 21.4334 2.67672 21.3838 2.73175 21.3363C2.24937 20.5322 1.92199 20.2029 1.74109 19.2858C1.84752 19.2562 1.92806 19.2146 1.95153 19.1483C1.83781 19.0376 1.77063 19.2682 1.61362 19.2666C1.58772 18.4801 1.31334 17.9538 1.23524 17.1709C1.13286 17.1725 1.08267 17.2113 1.06122 17.2713C0.992428 17.2305 1.03775 17.1845 0.990811 17.0375C1.17939 17.085 1.15916 17.063 1.22512 16.9396C1.20408 16.8768 1.07458 16.9028 0.985149 16.896C0.996075 16.8125 1.08389 16.7881 1.21946 16.8005C1.22027 16.5843 1.23484 16.3677 1.24414 16.1515C1.01226 16.2054 1.16401 16.3093 0.994856 16.3757C0.592198 16.066 1.53915 16.1907 1.32629 15.7395C1.11262 15.7083 1.17899 15.9321 1.07336 16.0016C0.879926 15.8398 0.847958 15.9996 0.59827 15.9725C0.646832 16.0152 0.626197 16.1079 0.709561 16.1251C0.529478 16.1779 0.53433 15.9936 0.580869 16.3149C0.357485 16.2474 0.504385 15.8993 0.371649 15.7595C0.389455 15.6887 0.550114 15.7559 0.55578 15.6747C0.367198 15.2615 0.412524 14.5813 0.705109 14.1993C0.951964 14.2133 0.61486 14.358 0.781184 14.4647C0.890853 14.4395 0.907447 14.3052 1.04666 14.3176C0.94832 14.1222 1.05758 14.0706 1.11464 13.7877C1.0503 13.8464 0.859293 14.0982 0.929303 13.7933C0.813968 13.7869 0.789687 13.9056 0.615269 13.8213C0.705109 13.7473 0.807897 13.6926 0.908258 13.6354C0.908663 13.5371 0.694988 13.5407 0.785636 13.398L1.0155 13.4596C1.00862 13.1934 1.10534 13.0887 0.976245 12.9325C1.04545 12.5484 1.36554 12.7083 1.3271 12.3159C1.4659 12.2803 1.3963 12.3466 1.54967 12.3986C1.60309 12.2351 1.6035 12.0897 1.44972 11.9918C1.89973 12.0053 1.67675 11.5114 1.9835 11.2616C1.94707 11.244 1.91186 11.2269 1.87666 11.2097C1.76416 11.1461 1.77468 11.3555 1.71479 11.4067C1.67432 11.2504 1.64073 11.334 1.5432 11.2161L1.63183 11.035C1.51487 10.9923 1.51973 11.2269 1.4133 11.2113C1.33884 10.9839 1.41209 10.9367 1.45701 10.7193C1.56222 10.7721 1.58691 10.6286 1.71398 10.7365C1.79653 10.6558 1.6379 10.5131 1.83457 10.6294C2.00697 10.2638 2.0183 10.2534 2.17572 9.95125C2.20081 9.79179 2.04177 9.65952 1.96003 9.51285C2.02437 9.359 2.16318 9.46969 2.26961 9.4677C2.31898 9.34381 2.10612 9.25429 2.14416 9.13281C2.27042 9.08845 2.38009 8.97415 2.54196 9.09484C2.5108 9.13361 2.459 9.08445 2.41448 9.06727C2.40882 9.11962 2.40153 9.17157 2.45009 9.21833C2.65486 9.34701 2.53872 8.94738 2.77788 9.07646C2.8054 8.94138 2.45819 9.10363 2.4594 8.90822C2.50432 8.80311 2.58728 8.87944 2.66579 8.93099C2.78477 8.84507 2.63342 8.77754 2.69533 8.69601C2.58 8.58771 2.56381 8.96017 2.42702 8.75516L2.61803 8.50499C2.53507 8.41787 2.46507 8.39989 2.41287 8.48101C2.35419 8.13293 2.77384 8.42506 3.02798 8.36672C3.14938 8.26081 3.08827 8.09417 3.26957 8.09857C3.30842 8.02503 3.1599 8.0638 3.21453 7.98267C3.14736 7.97468 3.08302 7.99426 3.01989 8.02144C2.78274 8.07419 3.28171 7.85279 3.04578 7.90515C2.96606 7.7413 3.25541 7.90914 3.31166 7.78965C3.36831 7.64858 3.13482 7.81923 3.0555 7.6314C3.10446 7.59224 3.11013 7.55267 3.08382 7.51271C3.20401 7.50951 3.33027 7.58624 3.46139 7.71452C3.56054 7.78685 3.63378 7.61142 3.73253 7.68495C3.81225 7.5215 3.64067 7.58864 3.63257 7.44557C3.55285 7.39522 3.60707 7.54868 3.51804 7.48114C3.42861 7.36884 3.63217 7.38443 3.80456 7.37324C3.98222 7.36605 4.1275 7.32968 3.93001 7.07672C4.10079 6.99559 4.26995 6.99159 4.43789 6.77859C4.37921 6.76061 4.32053 6.74183 4.35938 6.69027C4.13155 6.71145 4.21086 6.62234 3.88307 6.56079C3.96846 6.50884 4.24971 6.65231 4.20358 6.43331C4.28168 6.50325 4.39944 6.59037 4.47876 6.50604C4.52044 6.4453 4.41563 6.36498 4.36504 6.29144C4.46662 6.31462 4.65115 6.24109 4.44598 6.22111C4.56617 5.98972 4.86928 6.30143 4.91825 6.37856C5.0874 5.97014 4.54392 6.00571 4.3177 5.72317C4.44477 5.77352 4.46136 5.59569 4.32498 5.64364C4.38973 5.41066 4.45569 5.54414 4.54756 5.62446C4.53461 5.54653 4.62728 5.46821 4.68394 5.39747C4.5852 5.22483 4.39337 5.21205 4.51599 5.05939C4.30191 4.98546 4.06437 5.44343 3.77786 5.24441C3.7556 5.10015 4.07934 5.06138 4.16675 5.17168C4.29544 5.02582 4.15138 4.83759 4.39783 4.70691C4.45772 4.86916 4.55443 4.78164 4.61959 4.91072C4.67786 4.69812 4.46622 4.43637 4.64428 4.23855C4.65277 4.43876 4.66249 4.55106 4.90894 4.41598C4.9227 4.46554 4.78713 4.69293 4.75071 4.59702C4.70781 4.64617 4.78673 4.7161 4.72481 4.76126C4.7847 4.91672 4.88627 4.79124 4.95467 4.88715C5.05745 4.84199 4.86847 4.6178 4.80615 4.77605C4.77256 4.58862 5.04653 4.62299 5.12301 4.62979C5.10602 4.71411 5.1307 4.75127 5.17279 4.76846C5.21326 4.72929 5.2517 4.68813 5.27153 4.62539C5.40184 4.62539 5.43057 4.73888 5.51717 4.66535C5.54793 4.73169 5.44798 4.76566 5.4759 4.80123C5.48116 4.80602 5.48925 4.80762 5.49249 4.81441C5.49897 4.81801 5.50463 4.82201 5.51475 4.826C5.55279 4.79164 5.59406 4.75687 5.63493 4.7209C5.51434 4.66375 5.467 4.55506 5.2857 4.45954C5.31524 4.38282 5.37554 4.31288 5.50018 4.25933C5.38444 4.41039 5.58678 4.38042 5.5281 4.51829C5.63939 4.54506 5.83485 4.48192 5.85144 4.39281C5.80369 4.23695 5.69119 4.35564 5.61268 4.32966C5.59852 4.09228 6.07482 4.20898 5.94897 3.99318C6.27109 4.03274 6.39776 3.81254 6.87731 3.6491C6.90119 3.70105 6.83401 3.72023 6.79961 3.7514C6.80406 3.75979 6.81053 3.76299 6.8166 3.76699C6.82915 3.76099 6.83886 3.7534 6.85586 3.751C6.85869 3.75939 6.85869 3.76659 6.8595 3.77418C6.88216 3.76938 6.90685 3.75859 6.92911 3.755C6.93032 3.83013 6.8939 3.85011 6.84251 3.8557C6.8158 3.90286 6.77735 3.93163 6.83158 3.95121C6.89552 3.90885 6.96512 3.87649 7.0323 3.84052C6.98293 3.66348 6.8939 3.47086 6.6948 3.41012C6.76885 3.38174 7.03473 3.37135 6.85384 3.33459C6.85789 3.19831 7.01692 3.35017 7.13266 3.37335C7.14723 3.36376 7.1622 3.35417 7.17758 3.34618C7.1278 3.26385 7.06872 3.20791 6.9886 3.20631C7.06953 3.04286 7.39328 2.96933 7.30223 2.73954C7.37912 2.72595 7.40461 2.82586 7.34836 2.84784C7.41513 2.94335 7.60533 2.75552 7.60574 3.0017C7.54463 3.14556 7.4904 3.0021 7.33339 3.11199C7.35645 3.20591 7.42444 3.18193 7.45681 3.24947C7.6891 3.22469 7.56972 2.98211 7.75992 3.06883C7.68546 2.7847 7.78096 2.58568 8.07678 2.57609C8.11806 2.7791 7.9829 2.89899 7.86918 3.02807C7.91531 3.06084 7.96105 3.09601 7.98816 3.17234C7.9918 3.03926 8.07071 2.93975 8.10228 2.81707C8.20952 2.7867 8.25727 2.88181 8.29491 2.9981C8.30664 2.98891 8.32202 2.98371 8.33538 2.97612C8.37342 2.86542 8.45071 2.75113 8.60247 2.82626C8.56807 2.73994 8.55795 2.60447 8.47176 2.62285C8.44383 2.4602 8.64698 2.55891 8.62068 2.69558C8.67895 2.68319 8.65508 2.41544 8.7692 2.58289C8.78539 2.54212 8.52274 2.21083 8.80117 2.08335C8.74168 1.89153 8.45435 2.12651 8.34064 2.04578C8.2427 2.09454 8.24149 2.18725 8.30098 2.30874C8.15529 2.2448 8.22004 2.22202 8.05291 2.33432C7.97238 2.12811 8.2423 2.07775 8.0695 1.82879C8.2593 1.7069 8.23178 1.97545 8.20507 2.031C8.47054 1.87594 8.45475 1.86675 8.62108 1.7061C8.56321 1.65774 8.46487 1.68932 8.44788 1.57382C8.68826 1.53626 8.89221 1.61818 9.07189 1.46392C8.98934 1.6022 8.97316 1.53786 9.07433 1.7061C9.09416 1.57262 9.30418 1.54105 9.23984 1.35962C9.34303 1.3848 9.37541 1.52067 9.43408 1.61378C9.70927 1.45313 10.0508 1.43795 10.2528 1.60579C10.3697 1.53466 10.1694 1.28329 10.012 1.35283C10.01 1.12544 10.4009 1.19338 10.3515 1.46992C10.5126 1.44194 10.7015 1.43515 10.7675 1.34324C10.6554 1.23214 10.606 1.43355 10.5024 1.26611C10.7113 1.09706 11.1657 0.995159 11.606 1.04631C11.4539 0.990763 11.5247 0.947604 11.6339 0.891656C11.7428 0.840903 11.8901 0.780958 11.8856 0.670661C12.0176 0.678653 11.9629 0.884862 12.0928 0.892854C12.0455 0.98437 11.9977 0.882464 11.8484 0.967585C11.8974 1.15981 12.3203 0.986767 12.4712 0.931218C12.4546 0.80054 12.3183 1.01514 12.1596 0.948003C12.3187 0.656674 12.5732 0.685047 12.9006 0.618309C12.9079 0.711423 12.8759 0.843301 12.969 0.850894C12.952 0.952399 12.7492 0.782957 12.7865 1.03432C12.8573 1.05191 12.9929 1.00715 13.0341 1.02513C13.2025 1.07309 12.8719 1.14023 12.9783 1.32126C13.2045 1.02753 13.2543 1.14582 13.4068 0.844899C13.7241 0.864081 14.2449 0.675456 14.2717 1.0583C14.4088 1.0587 14.3145 0.81093 14.357 0.709824C14.4594 0.788951 14.6646 0.899648 14.5242 1.01394C14.6784 1.01674 14.7261 0.916433 14.8337 1.03432C14.8681 1.20337 14.7322 1.17979 14.7439 1.32286C14.928 1.33684 14.9171 1.13023 14.9641 0.987566C14.9786 0.775763 14.7463 1.09427 14.7828 0.912836C14.7463 0.765772 15.098 0.799341 15.0329 0.936813C15.1223 0.889657 15.1737 0.795745 15.304 0.795345C15.5484 0.818923 15.5213 1.03113 15.7095 1.09147C15.5917 0.953198 15.6111 0.723012 15.5646 0.772965C15.4537 0.561562 16.0393 0.648681 16.1437 0.802138C16.1182 0.912835 15.9223 0.675056 15.8171 0.81053C16.0126 1.00355 16.3404 0.710623 16.425 1.02793C16.6309 0.990364 16.3772 0.791748 16.5464 0.750586C16.6241 0.852492 16.6997 0.963988 16.8102 1.04991C16.8632 0.922827 17.0951 1.0607 17.1137 0.881265C17.5653 1.07908 17.7288 1.23254 18.161 1.21575C18.0971 1.25212 18.055 1.32445 18.0291 1.42356C18.469 1.15261 19.2407 1.66054 19.7134 1.84117C19.8287 1.89113 19.8389 1.67333 19.8878 1.9203C19.9396 1.93189 19.9704 1.89353 20.0291 1.9203C20.0088 1.85076 19.9594 1.79002 19.9004 1.73248C20.1197 1.79362 20.4932 2.17886 20.8024 1.96066C20.9137 2.15488 21.1164 2.42183 21.4127 2.34071C21.5778 2.69518 22.3681 3.04845 22.8153 3.27944C22.7522 3.32939 22.6696 3.28863 22.6097 3.34977C22.7983 3.44169 22.8278 3.55558 22.9379 3.65869C23.0294 3.69385 22.9622 3.58316 23.0427 3.51642C23.4571 3.5424 23.6514 4.13824 24.069 4.39161C23.9634 4.48152 23.9277 4.56904 23.9221 4.65576C24.154 4.70212 24.0997 4.94949 24.2843 4.81921C24.4053 4.90433 24.2203 4.99145 24.3037 5.07617C24.4542 5.13891 24.3179 4.85278 24.5 4.77485C24.5493 4.96507 24.661 4.88635 24.742 5.07617C24.4842 5.13452 24.5635 5.26519 24.7193 5.41665C24.8698 5.57411 25.0932 5.76393 25.1479 5.91339C25.0779 5.77992 25.283 5.66403 25.192 5.52695C25.2681 5.48659 25.2729 5.60528 25.2361 5.66003C25.5194 6.03648 25.6634 5.81948 25.6205 6.16676C25.7031 6.21991 25.661 6.09882 25.7553 6.05087C25.9872 6.21951 25.8581 6.34819 25.9139 6.49805C26.0297 6.46928 26.3631 6.51564 26.1478 6.79658C26.2097 6.80697 26.455 6.95403 26.2551 7.03316C26.3465 7.12467 26.4582 7.03595 26.5509 7.12947C26.6614 7.06233 26.436 6.93245 26.4056 6.84013C26.7884 6.68508 26.7472 6.4429 27.026 6.28665C27.0001 6.94883 26.7253 7.5247 26.6189 8.14612C26.7876 8.28999 26.7375 7.69614 26.9349 8.09137C26.9993 8.01864 26.8714 7.89675 27.0673 7.85639C26.9855 7.66617 26.871 7.75009 26.8916 7.59064C27.0062 7.5243 27.0899 7.65218 27.1664 7.79245C27.179 7.70174 27.3052 7.40961 27.4792 7.51191C27.5399 7.34846 27.4966 7.00518 27.7265 7.02796C27.7811 7.17582 27.8718 7.34527 27.8859 7.48753C27.5582 7.7445 27.7156 8.09976 27.3214 8.14972C27.3473 8.3875 27.232 8.48381 27.0984 8.57892C27.2931 8.72119 27.2947 9.06167 27.5234 9.05768C27.5849 8.9238 27.3627 8.89982 27.3825 8.7044C27.5246 8.50579 28.0583 8.7052 27.9491 8.3807C28.1615 8.32356 28.0385 8.51618 28.2016 8.69082C27.9547 8.88144 27.7484 8.86106 27.7989 9.19755C27.6974 9.17956 27.773 9.09244 27.6071 9.08405C27.6132 9.31704 27.4436 9.48608 27.4635 9.71906C27.531 9.75903 27.6261 9.64593 27.7844 9.69948C27.8103 9.85813 27.8499 10.0663 28.0571 9.98801C28.1729 9.92607 27.9628 9.73545 27.9446 9.62115C27.9916 9.23311 28.5112 9.56001 28.3906 9.18476C28.5322 9.32423 28.6419 9.32942 28.7686 9.14559C28.8058 9.23271 28.8438 9.31983 28.911 9.30065C28.8013 9.70388 27.718 10.3681 28.5083 10.5527C28.6484 10.3597 28.8013 10.3421 29.0826 10.3904C29.1579 10.221 29.2643 9.88451 29.5581 9.97762C29.4731 10.8988 28.0369 11.0083 28.1761 11.8707C28.2421 11.9989 28.4424 11.8467 28.5201 11.9538C28.7362 11.5977 29.554 11.4307 29.8584 11.105C29.9676 11.6297 29.2785 11.3791 29.3736 11.8898C28.9268 11.9997 28.8649 12.3342 28.4145 12.4345C28.4363 12.5424 28.5185 12.5392 28.5359 12.6547C28.4679 12.632 28.4399 12.5352 28.3319 12.584C28.2854 12.7706 28.1648 12.9105 28.2392 13.1671C28.6779 13.1551 28.7414 12.7518 29.1485 12.8841C29.2983 12.566 29.5459 12.5452 29.9239 12.558C29.8749 13.1087 28.9798 13.4908 28.7321 13.4268C28.6152 13.4692 28.6573 13.6098 28.6107 13.7002C28.2603 13.5339 27.8167 14.1342 27.5505 13.8536C27.5221 13.9439 27.5035 13.9863 27.4776 14.0031C27.4772 14.0143 27.4788 14.0251 27.4768 14.0359C27.461 14.0355 27.4489 14.0255 27.4388 14.0115C27.4032 14.0087 27.353 13.9883 27.2684 13.9667C27.2635 13.9811 27.2567 13.9939 27.251 14.0075C27.2538 14.0123 27.255 14.0179 27.2587 14.0223C27.2546 14.0203 27.2506 14.0203 27.2461 14.0187C27.2227 14.0742 27.1947 14.1266 27.1656 14.1749C27.1656 14.1785 27.1668 14.1805 27.1652 14.1853C27.1632 14.1845 27.1616 14.1853 27.1595 14.1845C27.1223 14.2457 27.0863 14.304 27.0616 14.3628C27.1057 14.3564 27.1506 14.3156 27.1939 14.3428C27.1442 14.4555 27.2482 14.5686 27.2672 14.6813C27.3643 14.6181 27.455 14.5953 27.5185 14.7656C27.5921 14.718 27.6103 14.6317 27.6023 14.5278C27.784 14.4499 27.7467 14.6533 27.8633 14.6605C27.9916 14.6093 27.7787 14.5833 27.8961 14.4826C28.0292 14.4443 27.9871 14.6365 28.0996 14.6269C27.9657 14.8959 27.7241 14.8455 27.5586 15.0409C27.4465 14.8851 27.3769 15.0321 27.2474 14.9682C27.3246 15.0229 27.3416 15.1512 27.3522 15.2855C27.2737 15.2475 27.2097 15.2351 27.1531 15.2327C27.1583 15.3119 27.1247 15.381 27.0102 15.4186C27.1243 15.4969 27.0228 15.56 27.0422 15.6316C27.1595 15.58 27.2858 15.5269 27.4291 15.4969C27.5448 15.4733 27.5764 15.5936 27.614 15.5912C28.1211 15.5688 28.6722 15.0905 28.8827 15.0661C29.1113 15.0457 29.0518 15.174 29.2886 14.9598C29.3529 15.2475 29.1166 15.3007 29.2299 15.6476ZM26.4732 17.5294C26.5889 17.5386 26.5509 17.4043 26.6209 17.4755C26.6703 17.4439 26.5469 17.4375 26.6104 17.4039C26.5307 17.3512 26.3886 17.4679 26.4732 17.5294ZM26.8544 15.7139C26.7832 15.6951 26.714 15.6579 26.6428 15.6344C26.6173 15.6811 26.6019 15.7271 26.6156 15.7686C26.6933 15.767 26.7719 15.7455 26.8544 15.7139ZM5.47226 5.53055C5.26344 5.688 5.31605 5.2636 5.49289 5.3707C5.40063 5.26799 5.3035 5.19326 5.19141 5.22363C5.33385 5.41346 5.16793 5.43304 5.03763 5.481C5.16348 5.67162 5.32333 5.55852 5.45364 5.6896C5.40912 5.62486 5.49816 5.59049 5.47226 5.53055ZM24.8824 7.55947C24.8978 7.57305 24.9148 7.58544 24.9395 7.59224C24.9342 7.67975 24.8828 7.69934 24.8399 7.73091C24.8492 7.74569 24.8622 7.76088 24.884 7.77726C25.0758 7.72531 25.0487 7.44038 24.8832 7.48633C24.8957 7.51191 24.8921 7.53589 24.8824 7.55947ZM24.1568 6.61994C24.1778 6.63712 24.2037 6.65231 24.241 6.65311C24.2596 6.7742 24.1099 6.68867 24.1281 6.80936C24.139 6.81216 24.1523 6.81256 24.1649 6.81376C24.2701 6.72664 24.3579 6.63992 24.2823 6.54641C24.2475 6.54401 24.1961 6.57518 24.1568 6.61994ZM26.5282 13.2949C26.5347 13.261 26.5428 13.227 26.5509 13.1938C26.523 13.2014 26.4946 13.2046 26.4651 13.1962C26.459 13.2258 26.4522 13.2558 26.4109 13.2897C26.4501 13.2945 26.4894 13.2961 26.5282 13.2949ZM26.7342 14.3072C26.7067 14.2461 26.678 14.1881 26.6557 14.1374C26.5699 14.1809 26.6051 14.2768 26.7298 14.3328C26.7294 14.3244 26.7326 14.3156 26.7342 14.3072ZM26.8135 13.6458C26.8334 13.613 26.837 13.5815 26.8378 13.5503C26.8237 13.5703 26.7982 13.6019 26.7613 13.6458C26.7783 13.641 26.7953 13.6386 26.8135 13.6458ZM26.8556 13.3733C26.8415 13.3637 26.8281 13.3605 26.8148 13.3561C26.8188 13.4108 26.8285 13.4436 26.8382 13.464C26.8378 13.4344 26.8406 13.4044 26.8556 13.3733ZM26.5667 13.5479C26.5784 13.5855 26.6015 13.6222 26.6391 13.6574C26.6379 13.6087 26.6185 13.5687 26.5667 13.5479ZM26.9175 13.6678C26.9135 13.6646 26.9123 13.6638 26.9082 13.6606L26.8196 13.7345C26.8382 13.7473 26.8568 13.7593 26.875 13.7677C26.9139 13.7481 26.9147 13.7074 26.9175 13.6678ZM26.9252 15.6368C27.0195 15.5481 26.9309 15.4429 26.8026 15.3398C26.7577 15.4421 26.7136 15.5752 26.9252 15.6368ZM27.0122 13.8552C27.03 13.8388 27.0483 13.8316 27.0665 13.8257C27.0653 13.8053 27.0701 13.7837 27.077 13.7629C27.0531 13.7585 27.0357 13.7513 27.0187 13.7409C26.99 13.7605 26.9673 13.7893 26.9463 13.8081C26.9321 13.826 26.9066 13.8444 26.8884 13.8624C26.96 13.9212 27.0313 13.9715 27.1033 13.8744C27.0988 13.8724 27.0924 13.8728 27.0887 13.87C27.0632 13.8672 27.0377 13.8724 27.0122 13.8552ZM27.166 13.7777C27.1664 13.7777 27.1664 13.7773 27.1668 13.7773C27.166 13.7773 27.166 13.7773 27.1652 13.7769C27.1652 13.7773 27.1656 13.7777 27.166 13.7777ZM27.2198 13.7166C27.2073 13.6802 27.2081 13.6462 27.2291 13.6166C27.1947 13.6254 27.1599 13.6274 27.1276 13.6662C27.1773 13.6726 27.2049 13.691 27.2198 13.7166ZM27.0066 13.3277C26.9673 13.3321 26.9252 13.3353 26.8815 13.3381C26.8941 13.3777 26.9094 13.4168 26.924 13.4568C26.9863 13.4204 26.9536 13.3937 26.9171 13.3673C26.9455 13.3345 26.9766 13.3257 27.0082 13.3349C27.0082 13.3321 27.007 13.3305 27.0066 13.3277ZM25.158 6.80297C25.1612 6.77579 25.156 6.75461 25.1471 6.73543C25.1438 6.76261 25.1313 6.79018 25.1029 6.81935C25.1199 6.81576 25.1361 6.81216 25.158 6.80297ZM24.9892 6.75581C25.0022 6.80417 25.0269 6.83414 25.0924 6.82255C25.09 6.77579 25.0261 6.77619 24.9892 6.75581ZM2.75077 18.9921C2.73499 18.9929 2.71921 18.9957 2.70505 19.002C2.72973 19.014 2.75117 19.028 2.77667 19.0128C2.7625 19.006 2.75522 18.9988 2.75077 18.9921ZM2.10369 17.8335C2.10207 17.9091 2.13363 17.9658 2.18381 17.999C2.21052 18.0018 2.23359 17.9978 2.25422 17.9906C2.22145 17.9382 2.18219 17.8851 2.13484 17.8307C2.12432 17.8319 2.1134 17.8323 2.10369 17.8335ZM4.03968 16.219C4.03685 16.219 4.03564 16.2182 4.03321 16.2182C4.04414 16.239 4.05182 16.2618 4.06072 16.2842C4.08905 16.2974 4.10241 16.3249 4.09391 16.3737C4.11859 16.4536 4.14085 16.5335 4.1708 16.6027C4.21612 16.633 4.26185 16.6682 4.31244 16.7198L4.25295 16.7194C4.26954 16.735 4.28411 16.7525 4.30555 16.7629C4.21774 16.9028 4.24566 17.0531 4.31284 17.1785C4.31486 17.1817 4.3173 17.1837 4.31932 17.1865C4.39176 17.1526 4.4731 17.1522 4.4561 17.2657C4.50911 17.2465 4.54027 17.2161 4.55605 17.1789C4.54917 17.0379 4.54513 16.8964 4.54513 16.7537C4.54513 16.667 4.54918 16.5807 4.55201 16.4944C4.43748 16.492 4.31365 16.4648 4.26913 16.4065C4.47471 16.2606 4.48443 16.3937 4.55403 16.4144C4.55646 16.3537 4.55889 16.293 4.56253 16.2326C4.5423 16.2374 4.52489 16.2502 4.51397 16.2802C4.43303 16.2654 4.46905 16.1923 4.46136 16.1407C4.50911 16.1539 4.54229 16.1599 4.56819 16.1635C4.57224 16.1043 4.5767 16.0456 4.58196 15.9868C4.40107 15.9617 4.20844 16.0576 3.98869 16.0728C4.01702 16.1475 4.1623 16.1535 4.03968 16.219ZM3.49782 20.575C3.51036 20.5774 3.52169 20.5802 3.53262 20.583C3.65888 20.4843 3.60788 20.4971 3.69853 20.4947C3.68922 20.4891 3.68154 20.4811 3.67142 20.4771C3.72363 20.4259 3.74952 20.4723 3.78068 20.4891C3.78473 20.4887 3.78716 20.4887 3.79161 20.4883C3.86931 20.3832 3.71351 20.4111 3.70905 20.2689C3.70744 20.2681 3.70541 20.2669 3.70379 20.2661C3.57834 20.2477 3.63621 20.2964 3.48486 20.3484C3.47839 20.2892 3.55366 20.2509 3.55487 20.1945C3.49862 20.2053 3.45775 20.1941 3.40028 20.2057C3.37519 20.2273 3.35496 20.2465 3.33877 20.2649C3.42214 20.3648 3.39422 20.4583 3.49782 20.575ZM4.05465 15.9333L4.2918 15.9541C4.29139 15.8933 4.30839 15.8466 4.36019 15.8214C4.21572 15.8282 4.07974 15.8402 4.05465 15.9333ZM4.44598 15.6575C4.49656 15.7119 4.54594 15.6947 4.61231 15.6955C4.61433 15.6791 4.61635 15.6623 4.61878 15.646C4.60219 15.6436 4.5856 15.6412 4.56941 15.6384C4.55444 15.5872 4.59005 15.5756 4.6289 15.5664C4.63295 15.5373 4.63578 15.5077 4.64023 15.4781C4.62485 15.4757 4.61392 15.4717 4.59531 15.4709C4.39863 15.4949 4.54674 15.6128 4.44598 15.6575ZM3.90128 20.6405C3.92475 20.6201 3.94943 20.5998 3.98545 20.5818C3.98505 20.5346 3.93325 20.5114 3.87781 20.4891C3.8426 20.5586 3.85191 20.609 3.90128 20.6405ZM3.77623 20.6165C3.77502 20.6237 3.77502 20.6309 3.77583 20.6385C3.77866 20.6313 3.77542 20.6237 3.77623 20.6165ZM3.72282 20.6441C3.71311 20.6529 3.70258 20.6581 3.69165 20.6625C3.70298 20.6713 3.7127 20.6769 3.72565 20.6873C3.72929 20.6853 3.72929 20.6825 3.73253 20.6805C3.72929 20.6685 3.72606 20.6565 3.72282 20.6441ZM4.24688 21.1277C4.1445 21.1041 4.03887 21.1037 4.06841 20.9762C4.06639 20.975 4.06437 20.9742 4.06194 20.9734C4.03968 20.985 4.02187 20.995 4.00488 21.0046C4.02592 21.1073 4.19468 21.1357 4.25052 21.2192C4.25862 21.1836 4.25578 21.154 4.24688 21.1277ZM4.49859 15.3175C4.51842 15.3514 4.57953 15.3698 4.65561 15.3822C4.65844 15.365 4.66208 15.3478 4.66491 15.3307C4.60826 15.3311 4.55201 15.3275 4.49859 15.3175ZM4.41563 15.8618C4.48321 15.8702 4.53785 15.8825 4.58803 15.8937C4.59086 15.8638 4.59531 15.8342 4.59855 15.8042C4.57467 15.7866 4.54594 15.7706 4.48969 15.7662C4.48483 15.813 4.44922 15.8374 4.41563 15.8618ZM4.45731 17.3552C4.4998 17.3959 4.54189 17.4311 4.57629 17.4555C4.57548 17.4475 4.57507 17.4395 4.57426 17.4311C4.56819 17.4171 4.55767 17.4019 4.54675 17.3859C4.51883 17.3716 4.48928 17.362 4.45731 17.3552ZM5.917 5.52336C5.6835 5.61367 5.78184 5.05499 5.61713 5.36191C5.67015 5.33993 5.75877 5.5793 5.83161 5.62406C5.84294 5.62606 5.85387 5.62726 5.86399 5.62726C5.88382 5.61927 5.90243 5.59289 5.917 5.52336ZM4.28533 15.5321C4.26914 15.5708 4.18577 15.5572 4.10281 15.5433C4.08784 15.6372 4.09432 15.7475 4.00609 15.785C4.10403 15.8638 4.21046 15.775 4.31284 15.7467C4.21976 15.7331 4.10646 15.7287 4.14652 15.6567C4.2052 15.6639 4.21167 15.6931 4.25942 15.7055C4.19508 15.6092 4.45327 15.584 4.28533 15.5321ZM2.53346 17.8363C2.58485 17.8603 2.64313 17.8791 2.71273 17.8879C2.7099 17.8543 2.71273 17.8243 2.7536 17.8139C2.71476 17.7852 2.67388 17.756 2.6322 17.7264C2.59456 17.74 2.55693 17.76 2.51808 17.7936C2.52334 17.8076 2.52819 17.8223 2.53346 17.8363ZM2.29348 18.3323C2.35378 18.3614 2.40396 18.3626 2.44888 18.3502C2.41205 18.2851 2.38008 18.2204 2.34771 18.156C2.30036 18.182 2.2692 18.2264 2.29348 18.3323ZM2.60225 18.8786C2.65607 18.9133 2.74025 18.9169 2.83009 18.9141C2.86003 18.8969 2.87743 18.8826 2.83332 18.8722C2.74955 18.9225 2.66862 18.9153 2.60225 18.8786ZM2.94582 19.5795C2.96323 19.5883 2.98508 19.5951 3.01624 19.5991C3.06238 19.5751 3.09597 19.5316 3.11822 19.4908C3.05186 19.5256 2.99277 19.5555 2.94582 19.5795ZM3.2206 19.9252C3.25096 19.9608 3.28212 19.9955 3.32218 20.0271C3.35415 19.9787 3.40838 19.9883 3.45573 19.9795C3.4104 19.9683 3.36994 19.9508 3.37398 19.874C3.31409 19.9028 3.26552 19.9164 3.2206 19.9252ZM3.13805 20.1993C3.26593 20.1853 3.45168 20.0119 3.56985 20.0627C3.56742 20.0435 3.56014 20.0307 3.55083 20.0199C3.39057 20.0003 3.19106 20.0619 3.13805 20.1993ZM4.36343 21.6959C4.39297 21.6564 4.38771 21.6368 4.37192 21.6232C4.3436 21.6448 4.31041 21.662 4.26994 21.6752C4.29139 21.6935 4.32013 21.7055 4.36343 21.6959ZM6.1586 4.76046C6.14605 4.78444 6.11327 4.74408 6.04285 4.7225C6.03557 4.73649 6.02626 4.75047 6.01695 4.76446C6.03962 4.79044 6.06107 4.82281 6.07806 4.87396C6.15576 4.73809 6.36053 4.90753 6.31319 4.73489C6.24439 4.75607 6.19502 4.76326 6.1586 4.76046ZM5.24239 5.00943C5.24401 5.01863 5.24482 5.02742 5.24725 5.03701C5.2513 5.03421 5.25535 5.03301 5.25939 5.02981C5.25413 5.02182 5.24806 5.01663 5.24239 5.00943ZM4.98826 5.13652C5.03965 5.12692 5.09105 5.11574 5.14366 5.09495C5.17643 5.06139 5.20395 5.00704 5.14527 5.00743C5.06434 5.01823 5.01092 5.06139 4.98826 5.13652ZM4.86402 5.45462C4.91986 5.40826 5.06555 5.37909 4.97774 5.30556C4.97045 5.30835 4.9664 5.30836 4.95993 5.31035C4.92351 5.35391 4.89477 5.40507 4.86402 5.45462ZM2.44362 18.5241C2.44402 18.5245 2.44402 18.5245 2.44443 18.5249C2.55895 18.5101 2.60347 18.5633 2.64029 18.624C2.64272 18.6224 2.64515 18.6228 2.64717 18.6208C2.58769 18.5585 2.54398 18.4989 2.50513 18.4402C2.46992 18.4609 2.44483 18.4865 2.44362 18.5241ZM2.57474 18.8578C2.57959 18.8634 2.58647 18.8666 2.59214 18.871C2.58566 18.8674 2.5804 18.8622 2.57474 18.8578ZM2.69088 19.0968C2.71395 19.1311 2.73216 19.1251 2.86368 19.1251C2.80783 19.1423 2.78841 19.1743 2.78072 19.2111C2.84749 19.1535 2.97416 19.1111 2.92276 19.0716C2.88027 19.1055 2.77384 19.1147 2.69088 19.0968ZM2.69492 19.4237C2.81147 19.3941 2.87461 19.3449 2.90819 19.285C2.86854 19.2934 2.82564 19.2914 2.77505 19.263C2.77343 19.3261 2.77748 19.3917 2.69492 19.4237ZM2.72366 19.7673C2.85842 19.7286 2.91062 19.7889 3.07775 19.7094C3.03648 19.7565 3.04012 19.8089 3.07694 19.8365C3.08827 19.8233 3.10042 19.8133 3.11054 19.7977C3.12672 19.8149 3.14089 19.8329 3.15586 19.8509C3.17933 19.8485 3.2028 19.8469 3.23396 19.8337C3.14453 19.6982 3.04781 19.683 3.06035 19.6111C3.00086 19.6283 2.93086 19.6335 2.87946 19.6179C2.85842 19.6299 2.8309 19.6434 2.81674 19.6538C3.04538 19.6502 2.65 19.7062 2.72366 19.7673ZM26.5072 15.411C26.5185 15.4537 26.5408 15.4969 26.5918 15.5433C26.5728 15.4969 26.5845 15.4521 26.5982 15.4078C26.5679 15.4086 26.5379 15.409 26.5072 15.411ZM27.3198 13.9016C27.2943 13.846 27.2465 13.7837 27.2239 13.7253C27.238 13.7557 27.238 13.7945 27.2352 13.8356C27.2631 13.858 27.2915 13.8796 27.3198 13.9016ZM27.9632 12.8098C28.0956 12.7506 28.0005 13.0779 28.1818 12.9365C28.0846 12.7654 28.1745 12.7047 28.2194 12.6168C28.0745 12.6475 27.99 12.7127 27.9632 12.8098ZM27.2461 13.1183C27.2417 13.2114 27.2041 13.2618 27.1466 13.2913C27.1923 13.3341 27.2494 13.3773 27.2676 13.4472C27.2668 13.4428 27.115 13.5771 27.3073 13.5595C27.3052 13.5627 27.3032 13.5631 27.3008 13.5659C27.4125 13.6194 27.5217 13.6778 27.6431 13.7197C27.5294 13.4952 27.6023 13.3813 27.8649 13.3765C27.7386 13.1427 28.043 13.0148 27.8637 12.8965C27.7285 12.9313 27.7192 13.0376 27.5331 13.0428C27.5606 13.1822 27.6686 13.191 27.7204 13.2917C27.6423 13.3413 27.595 13.4084 27.5165 13.4568C27.5019 13.2262 27.334 13.233 27.2461 13.1183ZM26.8993 9.05168C27.0365 9.03689 27.1777 9.00373 27.3044 9.0365C27.2478 8.90342 27.1741 8.83628 27.0936 8.79951C26.9616 8.86505 26.839 8.93379 26.8993 9.05168ZM26.4497 8.54455C26.5638 8.42307 26.5638 8.80871 26.6784 8.68842C26.5359 8.40508 26.8572 8.43545 26.8188 8.24083C26.7403 8.22605 26.4902 8.41867 26.4497 8.54455ZM25.4838 6.36817C25.6776 6.46288 25.6213 6.74063 25.7699 6.69707C25.8059 6.52643 25.6691 6.37616 25.4838 6.36817ZM25.1875 6.13039C25.3806 6.45449 25.6691 6.19793 25.451 5.97973C25.364 5.98693 25.2762 6.02489 25.1875 6.13039ZM24.916 6.53482C24.9605 6.58357 24.9694 6.65191 24.9795 6.71065C25.0208 6.70746 25.0382 6.67389 25.0568 6.64232C25.0038 6.60156 24.9714 6.56319 25.09 6.46288C25.2272 6.60635 25.3672 6.6575 25.5165 6.58317C25.4494 6.48087 25.3741 6.54321 25.3033 6.52163C25.3486 6.46888 25.2867 6.40734 25.2239 6.34579C25.1232 6.3394 25.02 6.43251 24.916 6.53482ZM24.6606 6.74742C24.7031 6.73183 24.7484 6.69387 24.759 6.75262C24.6614 6.73783 24.7254 6.92765 24.6489 6.94044C24.674 6.99439 24.7064 7.04914 24.7108 7.10189C24.8282 7.02756 24.8784 6.94843 24.8978 6.86691L24.7379 6.69067C24.7023 6.70946 24.6788 6.72824 24.6606 6.74742ZM23.5393 4.33046C23.64 4.5091 23.676 4.92231 23.9059 4.95708C23.8541 4.80203 23.6578 4.65296 23.8185 4.48712C23.8901 4.55546 23.9642 4.38641 23.8569 4.44236C23.6809 4.62099 23.6821 4.23775 23.5393 4.33046ZM23.0407 3.73382C23.2034 3.80375 23.0662 3.90486 23.0864 3.98878C23.1714 4.05592 23.2446 4.04952 23.3114 4.00916C23.2507 3.89447 23.2657 3.58196 23.0407 3.73382ZM16.5027 1.28009C16.5937 1.41597 16.7799 1.30647 16.7977 1.10785C16.6144 1.04152 16.6479 1.29168 16.5027 1.28009ZM14.9883 1.87914C14.9997 1.77524 15.3412 1.75605 15.1413 1.60339C15.1275 1.7065 14.7888 1.72848 14.9883 1.87914ZM14.1288 1.40318C14.3421 1.42076 13.9904 1.59061 14.1786 1.58221C14.2033 1.44674 14.3481 1.45633 14.4226 1.53746C14.5618 1.32206 14.1628 1.28889 14.1288 1.40318ZM13.7694 1.2693C13.8573 1.19777 13.8055 0.982371 13.9653 0.98357C14.0248 1.04591 14.0835 1.10746 14.1417 1.1686C14.3538 0.858487 13.459 0.894852 13.7694 1.2693ZM10.774 1.75805C10.9852 1.6018 10.8853 1.82958 11.1398 1.76245C10.9654 1.54345 11.1726 1.39839 11.3183 1.26211C11.396 1.41637 11.6412 1.34643 11.8249 1.3808C11.7598 1.28209 11.7768 1.09027 11.6683 1.03832C11.5838 1.35283 11.2066 1.12344 10.9512 1.31446C11.1143 1.62138 10.7525 1.55544 10.774 1.75805ZM9.40414 1.98464C9.57613 1.86635 9.49641 2.15728 9.66718 2.03979C9.55387 1.92949 9.76673 1.78722 9.61093 1.8112C9.63278 1.9231 9.35437 1.77044 9.40414 1.98464ZM9.33251 2.18486C9.67771 2.06976 9.44542 2.38307 9.48143 2.51095C9.56359 2.47898 9.69551 2.47818 9.69389 2.39626C9.60405 2.28476 9.39645 1.84837 9.33251 2.18486ZM9.28152 2.66401C9.29892 2.66281 9.31633 2.66121 9.33413 2.66081C9.30783 2.55131 9.39685 2.50855 9.32158 2.37028C9.11277 2.40026 9.18602 2.5665 9.28152 2.66401ZM6.89835 4.00956C6.95339 4.00037 7.00519 4.00157 7.04728 4.03314C7.05375 4.02834 7.06022 4.02435 7.0671 4.01955C7.02016 3.95881 6.95906 3.97399 6.89835 4.00956ZM6.56894 3.92724L6.62358 4.03154C6.64421 4.04113 6.66728 4.04393 6.69115 4.04433C6.72393 3.99917 6.72555 3.92364 6.74336 3.8581C6.68185 3.8605 6.6171 3.87049 6.56894 3.92724ZM6.47141 4.10707C6.4791 4.12865 6.47344 4.15742 6.46372 4.1886C6.46979 4.1858 6.47708 4.1838 6.48113 4.1806C6.4702 4.1866 6.46575 4.20138 6.45685 4.21018C6.41719 4.31568 6.33706 4.44076 6.46372 4.44316C6.43054 4.36323 6.54506 4.33446 6.62236 4.2957C6.54142 4.23655 6.47465 4.35964 6.47384 4.25973C6.53697 4.28131 6.52443 4.19899 6.52402 4.13265C6.51472 4.11906 6.50095 4.10907 6.47141 4.10707ZM4.86159 4.95189C4.87535 4.97946 4.87535 5.00464 4.87332 5.02941C4.89639 5.00104 4.93808 4.98626 5.02144 4.99025C5.0263 4.96467 5.03803 4.94709 5.04774 4.92711C4.98663 4.93111 4.9231 4.94869 4.86159 4.95189ZM4.86969 5.53015C4.84743 5.51177 4.84338 5.49658 4.84621 5.48259C4.84379 5.48579 4.84217 5.48939 4.83974 5.49259C4.8539 5.41546 4.85592 5.34832 4.85511 5.28837C4.83609 5.24681 4.83165 5.17288 4.7588 5.09935C4.59976 5.23123 4.79846 5.45222 4.86969 5.53015ZM4.73695 5.62846C4.73816 5.56132 4.72643 5.50937 4.71064 5.46341C4.70579 5.56212 4.6726 5.63086 4.59531 5.65683C4.63699 5.67801 4.68353 5.67841 4.73695 5.62846ZM5.13273 6.14318C5.26627 6.08404 5.26667 6.10282 5.45607 6.05206C5.24765 5.86624 4.86402 6.07684 4.8968 5.65723L4.72157 5.78711C4.84864 6.03848 5.01092 5.85465 5.13273 6.14318ZM4.43748 6.69867C4.54229 6.66949 4.64589 6.64711 4.74949 6.58237L4.63537 6.4465C4.61069 6.62314 4.41401 6.55919 4.43748 6.69867ZM2.25261 9.94006C2.36187 10.026 2.41448 10.1634 2.53103 10.054C2.50189 9.95724 2.32585 9.83335 2.25261 9.94006ZM2.32383 10.3896C2.29551 10.3729 2.24452 10.3896 2.29834 10.4316C2.35095 10.3117 2.51767 10.5139 2.55369 10.3545C2.37927 10.2917 2.39465 10.201 2.27446 10.1295C2.14618 10.2398 2.35257 10.2961 2.32383 10.3896ZM1.90175 10.8908C1.90701 10.8504 1.94424 10.8029 1.89406 10.7741C1.7597 10.9499 1.86533 11.0702 1.95112 11.1921C2.11137 11.051 1.93291 10.9887 1.90175 10.8908ZM1.49869 13.4912C1.56141 13.41 1.74797 13.3541 1.5606 13.2622C1.53835 13.2941 1.49788 13.3017 1.43394 13.2746C1.41775 13.3633 1.42949 13.4396 1.49869 13.4912ZM1.43435 15.2875C1.33318 15.2491 1.19234 15.2339 1.15309 15.1576C1.22593 15.1616 1.29473 15.162 1.28502 15.0805L1.10776 15.0561C1.16482 15.2795 1.024 15.3223 0.993646 15.4258C0.756907 15.3974 0.784427 15.433 0.652906 15.2903C0.764193 15.4413 0.488601 15.6004 0.732624 15.6899C0.80223 15.4537 0.921209 15.5437 1.17171 15.4449C1.16199 15.5612 1.06446 15.58 1.03168 15.6675C1.31253 15.6843 1.28542 15.4046 1.43435 15.2875ZM1.54118 14.0355C1.61119 14.0442 1.70305 14.0814 1.72612 14.0315C1.70669 13.9611 1.50516 13.9719 1.51811 13.886C1.52661 13.7353 1.72126 13.8276 1.70346 13.6442C1.64721 13.5887 1.56586 13.5423 1.42868 13.5211C1.41896 13.6114 1.33763 13.6055 1.32265 13.6902C1.508 13.6662 1.43799 13.9375 1.28663 13.8292C1.19882 13.9931 1.4821 13.9823 1.46024 14.1126C1.29999 14.0814 1.36231 14.0095 1.22795 14.0606C1.13002 14.3432 1.14702 14.4978 1.15916 14.7268C1.28299 14.8119 1.39873 14.6441 1.39428 14.766C1.45498 14.9746 1.06932 14.7024 1.13002 14.9142C1.2664 14.8979 1.45296 14.9354 1.50435 14.8303C1.32467 14.7172 1.60269 14.6573 1.65813 14.6241C1.45053 14.5034 1.38254 14.6341 1.30727 14.5602C1.55817 14.4431 1.34046 14.3468 1.32144 14.1785C1.46915 14.1042 1.47845 14.274 1.65894 14.298C1.76133 14.1462 1.57315 14.1278 1.54118 14.0355ZM2.02194 12.3242C1.82567 12.18 1.82608 12.4353 1.72814 12.2607L1.59338 12.6212C1.7589 12.6427 1.67351 12.7502 1.7852 12.7894C1.78034 12.562 1.63506 12.6116 1.74959 12.3722C1.85966 12.4146 1.77428 12.5205 1.93898 12.544C1.95881 12.3906 2.09397 12.4481 2.02194 12.3242ZM2.67914 20.7372C2.63705 20.6285 2.62006 20.4843 2.47518 20.5294C2.4679 20.6469 2.46871 20.806 2.67914 20.7372ZM2.84264 21.0026C2.81876 20.8887 2.71516 20.8987 2.57474 20.9674C2.60023 21.0841 2.70342 21.0733 2.84264 21.0026ZM5.68593 24.435C5.66731 24.4322 5.64789 24.4342 5.62846 24.439C5.65355 24.4782 5.69078 24.5065 5.73611 24.5281C5.69159 24.5001 5.66367 24.467 5.68593 24.435ZM5.73044 24.1621C5.77658 23.999 5.61106 24.0278 5.53255 23.9754C5.53417 24.0338 5.52041 24.0733 5.49815 24.1029C5.51434 24.1137 5.52729 24.1265 5.54145 24.1385C5.60458 24.0957 5.67905 24.0985 5.73044 24.1621ZM7.66765 24.907C7.64014 24.7979 7.42565 24.7859 7.33298 24.8674C7.42889 24.9002 7.49162 24.9753 7.66765 24.907ZM11.466 26.5175L11.432 26.4072L11.3045 26.4879C11.3486 26.5247 11.3725 26.6202 11.466 26.5175ZM11.8225 26.5414C11.7436 26.412 11.6121 26.4491 11.5069 26.4016C11.5611 26.5918 11.676 26.6234 11.8225 26.5414ZM12.1196 26.5091C12.0605 26.4164 11.9233 26.5794 11.8727 26.4599C11.8181 26.6094 12.0066 26.6458 12.1196 26.5091ZM16.1336 26.5011C16.0555 26.5594 15.9681 26.4208 15.892 26.5307C15.9762 26.6054 16.0595 26.6206 16.1336 26.5011ZM18.4208 25.9528C18.4091 25.96 18.3966 25.9652 18.3844 25.972C18.3962 25.97 18.4083 25.9636 18.4208 25.9528ZM18.4799 25.7977C18.3921 25.7534 18.4184 25.8525 18.3824 25.8865C18.3978 25.9016 18.4119 25.9224 18.4225 25.9516C18.4658 25.9116 18.5018 25.8317 18.4799 25.7977ZM18.7984 25.8709C18.7381 25.8229 18.7919 25.7442 18.7013 25.7054C18.6843 25.8553 18.5839 25.8509 18.6155 25.9528C18.6831 25.9484 18.76 25.9728 18.7984 25.8709ZM20.9416 24.9018C20.8344 24.6568 20.8485 24.9429 20.6919 24.8534C20.7522 25.0085 20.8591 24.8618 20.9416 24.9018ZM21.4321 24.4034L21.3257 24.3555C21.2621 24.4166 21.197 24.4726 21.1921 24.6348C21.301 24.704 21.335 24.6464 21.4118 24.6592C21.3641 24.4878 21.3613 24.5201 21.4321 24.4034ZM22.3867 23.9451C22.3288 23.816 22.2248 23.9211 22.1285 23.8563C22.1904 24.0462 22.2507 23.8687 22.3867 23.9451ZM23.3592 23.1754C23.3632 23.1382 23.3725 23.1038 23.3867 23.0707C23.3252 23.0859 23.2673 23.1078 23.2001 23.0839C23.2333 23.1326 23.294 23.1558 23.3592 23.1754ZM23.4292 22.8393C23.4336 22.8277 23.4417 22.8173 23.4527 22.8073C23.4251 22.7909 23.3952 22.7654 23.3608 22.7242C23.3798 22.7661 23.4053 22.8021 23.4292 22.8393ZM25.4789 20.4815C25.4805 20.4735 25.4821 20.4655 25.4838 20.4571C25.3336 20.3608 25.5076 20.302 25.4927 20.2105C25.4542 20.2149 25.4336 20.1881 25.3996 20.1853C25.3332 20.3312 25.2426 20.4643 25.1471 20.5922C25.2802 20.5618 25.3713 20.5043 25.381 20.3999C25.3967 20.4559 25.4409 20.4635 25.4789 20.4815ZM25.4376 20.1817C25.5983 20.2013 25.5279 20.0962 25.5813 20.0583C25.4801 19.9763 25.3769 20.0966 25.4376 20.1817ZM26.4517 16.1327C26.3688 16.1195 26.2943 16.0096 26.2947 15.9001C26.1361 15.9745 26.1867 16.0688 26.2874 16.1751C26.3477 16.1295 26.3959 16.1475 26.4517 16.1327ZM5.86925 3.97C5.80571 3.99637 5.73206 4.06231 5.68876 4.00756C5.92266 3.83932 6.02788 3.77338 6.25167 3.82094C6.06956 3.67707 6.41192 3.70145 6.32492 3.58755C6.13472 3.54839 6.18571 3.6435 5.87532 3.62552C5.75351 3.72343 5.80855 3.86769 5.65881 3.95721C5.61794 3.89007 5.54226 3.9632 5.49694 3.91605C5.55157 3.75859 5.66488 3.61393 5.62563 3.4297C5.39172 3.5432 5.33466 4.04313 5.18938 4.30888C5.28246 4.11826 5.69564 4.20498 5.86925 3.97ZM3.64026 6.61994C3.84665 6.58677 3.87822 6.28105 4.12386 6.42412C4.19265 6.11801 4.45164 6.13159 4.42939 5.85944L4.34198 5.92618C4.20156 5.8007 4.29342 5.66003 4.10969 5.73236C4.10564 5.76633 4.09432 5.7963 4.08379 5.82627C4.05911 5.84426 4.03523 5.86304 4.00569 5.87703C4.01823 5.92298 4.0498 5.90101 4.04778 5.87903C4.05344 5.87903 4.05789 5.87982 4.06356 5.87982C3.93082 6.14718 3.57227 6.27626 3.64026 6.61994ZM1.62414 20.6245C1.7767 20.5698 1.76456 20.6605 1.84995 20.5494C1.58165 20.2928 1.6642 19.9803 1.42625 19.743C1.29271 19.8672 1.457 19.9008 1.37161 20.0035C1.34045 19.9196 1.29271 19.8588 1.20732 19.8481C1.19477 20.0387 1.24171 20.2633 1.3267 20.4919C1.42018 20.7181 1.53875 20.9526 1.63871 21.1804C1.84105 21.0793 1.68565 20.7596 1.62414 20.6245ZM4.07611 24.7143C4.01702 24.7619 3.97291 24.7231 3.90938 24.7951C3.86284 25.1403 4.41604 25.2926 4.6463 25.4856C4.78632 25.0848 4.18497 25.0904 4.07611 24.7143ZM26.9022 16.418C26.9701 16.3301 27.0835 16.2466 27.1098 16.1515C27.0321 16.1079 26.9483 16.1051 26.8686 16.0764C26.7573 16.1731 26.8148 16.2906 26.9022 16.418ZM26.8953 18.3319C26.7569 18.3443 26.8755 18.4394 26.8131 18.4753C26.8856 18.5373 27.009 18.4118 26.8953 18.3319ZM25.7816 20.3936C25.6723 20.336 25.5756 20.5003 25.6432 20.6269C25.7298 20.5722 25.7355 20.4711 25.7816 20.3936ZM25.1208 21.6943C25.1887 21.6112 25.2741 21.4258 25.1418 21.2963C25.1531 21.4314 25.041 21.5948 25.1208 21.6943ZM21.9776 24.3571C21.9124 24.3375 21.9023 24.2827 21.8347 24.2652C21.8695 24.3279 21.8651 24.4154 21.8999 24.4794C21.9493 24.473 21.9703 24.4246 21.9776 24.3571ZM18.2574 26.4395C18.2517 26.4927 18.2642 26.5426 18.3164 26.585C18.1635 26.6154 18.1226 26.6094 17.966 26.7137C18.1339 26.7608 18.2889 26.7313 18.4225 26.627C18.3185 26.5738 18.3278 26.4987 18.2574 26.4395ZM17.4909 26.4212C17.5799 26.4024 17.5488 26.2277 17.4634 26.1442C17.4836 26.2349 17.3994 26.342 17.4909 26.4212ZM17.6742 26.5458C17.6269 26.617 17.6139 26.6813 17.618 26.7433C17.6811 26.7884 17.6997 26.5982 17.7713 26.6857C17.7851 26.6314 17.7135 26.5914 17.6742 26.5458ZM12.2369 27.1261C12.1653 27.0466 12.0933 27.1705 12.0346 27.2244C12.075 27.2596 12.1297 27.2452 12.1896 27.208C12.1758 27.1725 12.2163 27.1525 12.2369 27.1261ZM11.5821 27.5329C11.6829 27.5701 11.7481 27.5113 11.7788 27.4018C11.7335 27.3291 11.5943 27.489 11.5821 27.5329ZM10.8116 26.9147C10.8015 27.0682 10.6898 26.9914 10.5729 27.047C10.8541 27.1453 11.0949 27.0562 11.4186 27.0885C11.2434 26.9559 11.0204 26.9603 10.8116 26.9147ZM10.6991 26.9335C10.6481 26.8228 10.5142 26.9139 10.4167 26.9123C10.4749 27.0038 10.5631 27.0318 10.6991 26.9335ZM10.3272 26.8723C10.2374 26.8324 10.1767 26.7317 10.0597 26.7517C10.031 26.8536 10.1763 26.9786 10.3272 26.8723ZM10.1738 26.5658C10.0674 26.5115 10.0545 26.4272 10.0144 26.3464C9.89988 26.4339 9.85293 26.418 9.83553 26.6006C9.94399 26.4208 10.0407 26.631 10.1738 26.5658ZM9.12248 27.9457C9.14757 27.867 9.13503 27.7851 9.03912 27.7755C8.98044 27.909 8.92783 28.0389 9.02333 28.0828C9.05449 28.0656 9.08242 28.0309 9.10306 27.9921C9.11803 28.0449 9.15324 28.0588 9.17469 28.0996C9.24187 28.0828 9.25481 27.9925 9.2884 28.0548C9.37055 27.9549 9.21394 27.9262 9.12248 27.9457ZM8.46406 26.561C8.46123 26.6785 8.66357 26.4623 8.66033 26.5794C8.71132 26.569 8.67976 26.3312 8.76191 26.4603C8.79429 26.4563 8.79469 26.4323 8.79307 26.4076L8.78417 26.3284C8.65103 26.4172 8.50251 26.1706 8.27549 26.2493C8.2856 26.2937 8.27386 26.3228 8.24513 26.3412C8.38758 26.3376 8.47944 26.412 8.63605 26.3796C8.66236 26.5774 8.53043 26.4419 8.46406 26.561ZM8.37948 27.7991C8.38353 27.8978 8.29612 28.0429 8.32445 28.1312C8.43128 28.1919 8.50129 28.1028 8.5968 28.1144C8.64536 28.0205 8.6401 27.9366 8.65548 27.8662C8.71133 27.8726 8.76838 27.8774 8.82625 27.8794C8.77891 27.8498 8.72913 27.8259 8.67733 27.8047C8.69271 27.7779 8.71618 27.7543 8.75422 27.7339C8.39729 27.6836 8.24594 27.487 7.89022 27.4714C7.95942 27.7687 8.09742 27.6608 8.35197 27.7579C8.33254 27.7595 8.31474 27.7579 8.2941 27.7611C8.32121 27.7759 8.35035 27.7875 8.37948 27.7991ZM8.09621 25.9376C8.06262 26.0639 8.00354 26.113 7.87242 26.0839C7.91451 26.199 8.04198 26.1934 8.15489 26.2046C8.08043 26.1694 8.19859 25.994 8.09621 25.9376ZM7.52359 26.1782C7.63973 26.3189 7.72512 26.2513 7.8878 26.2829C7.82993 26.159 7.66806 26.1842 7.52359 26.1782ZM6.96634 25.6111C6.96108 25.6131 6.96027 25.6183 6.95663 25.6211C6.86072 25.5528 6.68792 25.5244 6.57299 25.5656C6.70573 25.6243 6.8425 25.8465 6.97443 25.7877C7.04323 25.8049 7.12497 25.8053 7.19701 25.8173C7.1877 25.8269 7.1788 25.8313 7.16827 25.8465C7.20308 26.0127 7.47057 26.0527 7.60371 26.0419C7.58307 26.0259 7.56486 26.0075 7.59845 25.9696C7.56163 25.9476 7.58024 25.9028 7.55677 25.8757C7.48271 25.9828 7.43294 25.9628 7.38923 25.9148C7.46774 25.7198 7.01976 25.7897 6.96634 25.6111ZM6.76926 25.9308C6.84291 26.1294 7.12943 26.0655 7.32367 26.1043C7.23909 25.92 6.97848 25.9648 6.76926 25.9308ZM6.32896 25.8025C6.53656 25.7889 6.51795 26.0407 6.73001 26.0191C6.64098 25.8928 6.59281 25.7262 6.32896 25.8025ZM5.7357 25.5891C6.01291 25.5863 6.29011 25.5276 6.69439 25.4625C6.66606 25.3146 6.49448 25.3342 6.30387 25.3645C6.31682 25.5779 6.09303 25.554 6.0639 25.4337C6.09546 25.2966 6.21687 25.3585 6.30387 25.3645C6.35527 25.2087 6.16021 25.319 6.19947 25.1767C5.97892 25.3494 5.51515 25.327 5.31119 25.2962C5.16105 25.4581 5.6924 25.4289 5.79195 25.3402C5.67864 25.4848 5.91012 25.5056 5.7357 25.5891ZM5.32657 25.134C5.43745 25.1272 5.53336 24.9517 5.571 25.1172C5.62685 25.1004 5.61348 25.0137 5.62684 24.9533C5.56088 24.9221 5.42653 24.9541 5.39294 24.8898C5.34802 24.919 5.34032 24.9849 5.26141 24.9781C5.27598 25.0352 5.31119 25.0752 5.32657 25.134ZM5.53255 24.7223C5.467 24.6776 5.28205 24.6032 5.28407 24.7771C5.40507 24.7991 5.43745 24.7279 5.53255 24.7223ZM5.1392 24.6624C5.03561 24.7239 5.05179 24.7499 4.93241 24.7055C4.91906 24.8354 5.09671 24.7955 5.15175 24.8626C5.29338 24.7979 5.07891 24.7691 5.1392 24.6624ZM23.3337 23.6893C23.2329 23.5562 23.1771 23.7604 23.0751 23.7365C23.0702 23.7664 23.0917 23.7752 23.1152 23.7832L23.1908 23.802C23.1779 23.6953 23.2924 23.7345 23.3337 23.6893ZM10.3721 27.3307C10.3879 27.3579 10.4191 27.3499 10.4296 27.3895L10.5 27.3527C10.4057 27.2336 10.653 27.2616 10.5599 27.1433C10.4082 27.1665 10.5259 27.3071 10.3721 27.3307ZM9.44987 26.6014C9.35801 26.6781 9.49681 26.7537 9.57937 26.6725C9.55226 26.5994 9.56399 26.547 9.62874 26.5235C9.58908 26.3017 9.53404 26.7425 9.44987 26.6014Z" fill="url(#paint0_linear_76_2976)"/>
<path d="M14.0721 8.28456C15.8665 8.28456 16.0789 8.29135 16.7879 8.32332C17.4431 8.35249 17.7988 8.46079 18.036 8.55151C18.3496 8.6718 18.5734 8.81566 18.8085 9.04785C19.0436 9.28003 19.1893 9.50103 19.3115 9.81114C19.4038 10.0449 19.5126 10.3962 19.543 11.0432C19.5754 11.7429 19.5823 11.9528 19.5823 13.7251C19.5823 15.4971 19.5754 15.7069 19.543 16.4066C19.513 17.0536 19.4038 17.4049 19.3115 17.6391C19.1893 17.9488 19.044 18.1698 18.8085 18.402C18.5734 18.6342 18.3496 18.778 18.036 18.8983C17.7992 18.9894 17.4431 19.0977 16.7879 19.1269C16.0793 19.1589 15.8665 19.1657 14.0721 19.1657C12.2773 19.1657 12.0649 19.1589 11.3563 19.1269C10.7011 19.0977 10.345 18.9894 10.1083 18.8983C9.79463 18.778 9.57084 18.6342 9.33572 18.402C9.1006 18.1698 8.95491 17.9488 8.8327 17.6391C8.74043 17.4053 8.63158 17.0536 8.60122 16.4066C8.56885 15.7069 8.56197 15.4971 8.56197 13.7251C8.56197 11.9528 8.56885 11.7429 8.60122 11.0432C8.63117 10.3962 8.74043 10.0445 8.8327 9.81114C8.95491 9.50103 9.10019 9.28003 9.33572 9.04785C9.57084 8.81566 9.79463 8.6718 10.1083 8.55151C10.345 8.46079 10.7011 8.35249 11.3563 8.32332C12.0653 8.29135 12.2773 8.28456 14.0721 8.28456ZM14.0721 7.08887C12.247 7.08887 12.0179 7.09646 11.3013 7.12883C10.5858 7.1612 10.0973 7.2731 9.66998 7.43774C9.22807 7.60719 8.85293 7.83418 8.47982 8.20303C8.1063 8.57229 7.87643 8.94235 7.70485 9.37874C7.53853 9.80075 7.42482 10.2835 7.39244 10.9896C7.35966 11.6978 7.35156 11.9236 7.35156 13.7263C7.35156 15.5286 7.35966 15.7548 7.39244 16.4626C7.42482 17.1691 7.53853 17.6515 7.70485 18.0735C7.87643 18.5103 8.1063 18.8799 8.47982 19.2492C8.85334 19.6184 9.22807 19.845 9.66998 20.0149C10.0973 20.1787 10.5858 20.291 11.3013 20.3234C12.0184 20.3554 12.247 20.3633 14.0721 20.3633C15.8972 20.3633 16.1259 20.3558 16.843 20.3234C17.5584 20.291 18.0465 20.1791 18.4742 20.0149C18.9161 19.845 19.2909 19.6184 19.6644 19.2492C20.0379 18.8803 20.2678 18.5103 20.4394 18.0735C20.6057 17.6515 20.7194 17.1691 20.7518 16.4626C20.7846 15.7548 20.7927 15.5286 20.7927 13.7263C20.7927 11.924 20.7846 11.6978 20.7518 10.9896C20.7194 10.2835 20.6057 9.80075 20.4394 9.37874C20.2678 8.94235 20.0379 8.57229 19.6644 8.20303C19.2905 7.83418 18.9161 7.60759 18.4742 7.43774C18.0465 7.2735 17.5584 7.1612 16.843 7.12883C16.1263 7.09646 15.8976 7.08887 14.0721 7.08887Z" fill="white"/>
<path d="M14.0722 10.3174C12.1662 10.3174 10.6211 11.8432 10.6211 13.7254C10.6211 15.6077 12.1662 17.1335 14.0722 17.1335C15.9783 17.1335 17.5233 15.6077 17.5233 13.7254C17.5233 11.8432 15.9783 10.3174 14.0722 10.3174ZM14.0722 15.9374C12.8351 15.9374 11.8319 14.9467 11.8319 13.725C11.8319 12.503 12.8351 11.5127 14.0722 11.5127C15.3093 11.5127 16.3121 12.503 16.3121 13.725C16.3121 14.9471 15.3093 15.9374 14.0722 15.9374Z" fill="white"/>
<path d="M18.4656 10.1832C18.4656 10.6232 18.1046 10.9796 17.6591 10.9796C17.2135 10.9796 16.8525 10.6232 16.8525 10.1832C16.8525 9.74359 17.2135 9.38672 17.6591 9.38672C18.105 9.38672 18.4656 9.74359 18.4656 10.1832Z" fill="white"/>
<defs>
<linearGradient id="paint0_linear_76_2976" x1="15" y1="0" x2="15" y2="30" gradientUnits="userSpaceOnUse">
<stop stop-color="#A311F6"/>
<stop offset="0.5" stop-color="#FF1650"/>
<stop offset="1" stop-color="#FD960A"/>
</linearGradient>
</defs>
</svg>
