<svg width="184" height="59" viewBox="0 0 184 59" fill="none" xmlns="http://www.w3.org/2000/svg">
<path d="M2.58239 35V8.81818H12.4006C14.4119 8.81818 16.0994 9.16761 17.4631 9.86648C18.8352 10.5653 19.8707 11.5455 20.5696 12.8068C21.277 14.0597 21.6307 15.5213 21.6307 17.1918C21.6307 18.8707 21.2727 20.3281 20.5568 21.5639C19.8494 22.7912 18.8054 23.7415 17.4247 24.4148C16.044 25.0795 14.348 25.4119 12.3366 25.4119H5.34375V21.4744H11.6974C12.8736 21.4744 13.8366 21.3125 14.5866 20.9886C15.3366 20.6562 15.8906 20.1747 16.2486 19.544C16.6151 18.9048 16.7983 18.1207 16.7983 17.1918C16.7983 16.2628 16.6151 15.4702 16.2486 14.8139C15.8821 14.1491 15.3239 13.6463 14.5739 13.3054C13.8239 12.956 12.8565 12.7812 11.6719 12.7812H7.32528V35H2.58239ZM16.108 23.1364L22.5895 35H17.2969L10.9304 23.1364H16.108ZM95.6293 35V8.81818H105.447C107.459 8.81818 109.146 9.16761 110.51 9.86648C111.882 10.5653 112.918 11.5455 113.616 12.8068C114.324 14.0597 114.678 15.5213 114.678 17.1918C114.678 18.8707 114.32 20.3281 113.604 21.5639C112.896 22.7912 111.852 23.7415 110.472 24.4148C109.091 25.0795 107.395 25.4119 105.384 25.4119H98.3906V21.4744H104.744C105.92 21.4744 106.884 21.3125 107.634 20.9886C108.384 20.6562 108.938 20.1747 109.295 19.544C109.662 18.9048 109.845 18.1207 109.845 17.1918C109.845 16.2628 109.662 15.4702 109.295 14.8139C108.929 14.1491 108.371 13.6463 107.621 13.3054C106.871 12.956 105.903 12.7812 104.719 12.7812H100.372V35H95.6293ZM109.155 23.1364L115.636 35H110.344L103.977 23.1364H109.155Z" fill="#920106"/>
<path d="M40.7322 26.2727C40.7322 28.1534 40.38 29.7642 39.6754 31.1051C38.9766 32.4403 38.022 33.4631 36.8118 34.1733C35.6072 34.8835 34.2408 35.2386 32.7124 35.2386C31.1839 35.2386 29.8146 34.8835 28.6044 34.1733C27.3999 33.4574 26.4453 32.4318 25.7408 31.0966C25.0419 29.7557 24.6925 28.1477 24.6925 26.2727C24.6925 24.392 25.0419 22.7841 25.7408 21.4489C26.4453 20.108 27.3999 19.0824 28.6044 18.3722C29.8146 17.6619 31.1839 17.3068 32.7124 17.3068C34.2408 17.3068 35.6072 17.6619 36.8118 18.3722C38.022 19.0824 38.9766 20.108 39.6754 21.4489C40.38 22.7841 40.7322 24.392 40.7322 26.2727ZM37.5533 26.2727C37.5533 24.9489 37.3459 23.8324 36.9311 22.9233C36.522 22.0085 35.9538 21.3182 35.2266 20.8523C34.4993 20.3807 33.6612 20.1449 32.7124 20.1449C31.7635 20.1449 30.9254 20.3807 30.1982 20.8523C29.4709 21.3182 28.8999 22.0085 28.4851 22.9233C28.076 23.8324 27.8714 24.9489 27.8714 26.2727C27.8714 27.5966 28.076 28.7159 28.4851 29.6307C28.8999 30.5398 29.4709 31.2301 30.1982 31.7017C30.9254 32.1676 31.7635 32.4006 32.7124 32.4006C33.6612 32.4006 34.4993 32.1676 35.2266 31.7017C35.9538 31.2301 36.522 30.5398 36.9311 29.6307C37.3459 28.7159 37.5533 27.5966 37.5533 26.2727ZM41.544 17.5455H45.1151L49.3849 25.267H49.5554L53.8253 17.5455H57.3963L51.0469 28.4886V35H47.8935V28.4886L41.544 17.5455ZM60.0959 35H56.7209L62.8658 17.5455H66.7692L72.9226 35H69.5476L64.8857 21.125H64.7493L60.0959 35ZM60.2067 28.1562H69.4112V30.696H60.2067V28.1562ZM75.2216 35V17.5455H78.3835V32.3494H86.071V35H75.2216ZM118.183 35V17.5455H129.535V20.196H121.344V24.9347H128.947V27.5852H121.344V32.3494H129.603V35H118.183ZM135.002 35H131.627L137.772 17.5455H141.675L147.829 35H144.454L139.792 21.125H139.656L135.002 35ZM135.113 28.1562H144.317V30.696H135.113V28.1562ZM164.248 23.4347H161.06C160.969 22.9119 160.802 22.4489 160.558 22.0455C160.313 21.6364 160.009 21.2898 159.646 21.0057C159.282 20.7216 158.867 20.5085 158.401 20.3665C157.941 20.2188 157.444 20.1449 156.91 20.1449C155.961 20.1449 155.12 20.3835 154.387 20.8608C153.654 21.3324 153.08 22.0256 152.665 22.9403C152.251 23.8494 152.043 24.9602 152.043 26.2727C152.043 27.608 152.251 28.733 152.665 29.6477C153.086 30.5568 153.66 31.2443 154.387 31.7102C155.12 32.1705 155.958 32.4006 156.901 32.4006C157.424 32.4006 157.913 32.3324 158.367 32.196C158.827 32.054 159.239 31.8466 159.603 31.5739C159.972 31.3011 160.282 30.9659 160.532 30.5682C160.788 30.1705 160.964 29.7159 161.06 29.2045L164.248 29.2216C164.129 30.0511 163.87 30.8295 163.472 31.5568C163.08 32.2841 162.566 32.9261 161.93 33.483C161.293 34.0341 160.549 34.4659 159.697 34.7784C158.844 35.0852 157.898 35.2386 156.859 35.2386C155.325 35.2386 153.955 34.8835 152.751 34.1733C151.546 33.4631 150.597 32.4375 149.904 31.0966C149.211 29.7557 148.864 28.1477 148.864 26.2727C148.864 24.392 149.214 22.7841 149.913 21.4489C150.612 20.108 151.563 19.0824 152.768 18.3722C153.972 17.6619 155.336 17.3068 156.859 17.3068C157.83 17.3068 158.734 17.4432 159.569 17.7159C160.404 17.9886 161.148 18.3892 161.802 18.9176C162.455 19.4403 162.992 20.0824 163.413 20.8438C163.839 21.5994 164.117 22.4631 164.248 23.4347ZM167.143 35V17.5455H170.305V24.9347H178.393V17.5455H181.564V35H178.393V27.5852H170.305V35H167.143Z" fill="#0C2561"/>
<path d="M4.84872 45.8182V56H3.00426V45.8182H4.84872ZM16.0532 45.8182V56H14.4126L9.61504 49.0646H9.53052V56H7.68606V45.8182H9.33663L14.1292 52.7585H14.2187V45.8182H16.0532ZM20.2652 45.8182L22.9151 53.8324H23.0195L25.6644 45.8182H27.6928L24.1033 56H21.8263L18.2418 45.8182H20.2652ZM29.8739 56V45.8182H36.496V47.3643H31.7183V50.1286H36.153V51.6747H31.7183V54.4538H36.5358V56H29.8739ZM44.7512 48.6172C44.7048 48.183 44.5092 47.8449 44.1645 47.603C43.8231 47.361 43.379 47.2401 42.8321 47.2401C42.4477 47.2401 42.1179 47.2981 41.8428 47.4141C41.5677 47.5301 41.3572 47.6875 41.2114 47.8864C41.0656 48.0852 40.991 48.3123 40.9877 48.5675C40.9877 48.7796 41.0357 48.9635 41.1318 49.1193C41.2313 49.2751 41.3655 49.4077 41.5345 49.517C41.7036 49.6231 41.8908 49.7126 42.0963 49.7855C42.3018 49.8584 42.509 49.9197 42.7178 49.9695L43.6723 50.2081C44.0568 50.2976 44.4263 50.4186 44.781 50.571C45.1389 50.7235 45.4588 50.9157 45.7405 51.1477C46.0255 51.3797 46.2509 51.6598 46.4166 51.9879C46.5824 52.3161 46.6652 52.7005 46.6652 53.1413C46.6652 53.7379 46.5128 54.2633 46.2078 54.7173C45.9029 55.1681 45.4621 55.5211 44.8854 55.7763C44.312 56.0282 43.6176 56.1541 42.8023 56.1541C42.0102 56.1541 41.3224 56.0315 40.7391 55.7862C40.1591 55.541 39.705 55.183 39.3769 54.7124C39.0521 54.2417 38.8764 53.6683 38.8499 52.9922H40.6645C40.691 53.3468 40.8004 53.6418 40.9926 53.8771C41.1849 54.1125 41.4351 54.2881 41.7433 54.4041C42.0549 54.5201 42.4029 54.5781 42.7874 54.5781C43.1884 54.5781 43.5397 54.5185 43.8414 54.3991C44.1463 54.2765 44.3849 54.1075 44.5573 53.892C44.7296 53.6733 44.8174 53.4181 44.8208 53.1264C44.8174 52.8613 44.7396 52.6425 44.5871 52.4702C44.4346 52.2945 44.2209 52.1487 43.9458 52.0327C43.674 51.9134 43.3558 51.8073 42.9912 51.7145L41.8328 51.4162C40.9943 51.2008 40.3314 50.8743 39.8442 50.4368C39.3603 49.996 39.1183 49.411 39.1183 48.6818C39.1183 48.0819 39.2808 47.5566 39.6056 47.1058C39.9337 46.6551 40.3795 46.3054 40.9429 46.0568C41.5064 45.8049 42.1444 45.679 42.857 45.679C43.5795 45.679 44.2126 45.8049 44.7561 46.0568C45.303 46.3054 45.7322 46.6518 46.0438 47.0959C46.3553 47.5367 46.5161 48.0438 46.526 48.6172H44.7512ZM48.7021 47.3643V45.8182H56.8257V47.3643H53.6787V56H51.8491V47.3643H48.7021ZM59.2318 45.8182H61.4889L64.5116 53.196H64.6309L67.6536 45.8182H69.9107V56H68.1409V49.005H68.0464L65.2325 55.9702H63.91L61.0961 48.9901H61.0016V56H59.2318V45.8182ZM72.7593 56V45.8182H79.3814V47.3643H74.6037V50.1286H79.0384V51.6747H74.6037V54.4538H79.4212V56H72.7593ZM90.4704 45.8182V56H88.8297L84.0321 49.0646H83.9476V56H82.1032V45.8182H83.7537L88.5464 52.7585H88.6358V45.8182H90.4704ZM92.8727 47.3643V45.8182H100.996V47.3643H97.8492V56H96.0197V47.3643H92.8727ZM108.083 50.9091C108.083 49.6662 108.247 48.5244 108.575 47.4837C108.906 46.4396 109.399 45.4751 110.052 44.5902H111.747C111.495 44.9183 111.26 45.321 111.041 45.7983C110.822 46.2723 110.632 46.7926 110.469 47.3594C110.31 47.9228 110.184 48.5078 110.091 49.1143C110.002 49.7209 109.957 50.3191 109.957 50.9091C109.957 51.6946 110.035 52.4901 110.191 53.2955C110.35 54.1009 110.564 54.8482 110.832 55.5376C111.104 56.2237 111.409 56.7855 111.747 57.223H110.052C109.399 56.3381 108.906 55.3752 108.575 54.3345C108.247 53.2905 108.083 52.1487 108.083 50.9091ZM114.065 56V45.8182H117.883C118.665 45.8182 119.321 45.964 119.852 46.2557C120.385 46.5473 120.788 46.9484 121.06 47.4588C121.335 47.9659 121.472 48.5426 121.472 49.1889C121.472 49.8419 121.335 50.4219 121.06 50.929C120.785 51.4361 120.379 51.8355 119.842 52.1271C119.305 52.4155 118.644 52.5597 117.858 52.5597H115.328V51.0433H117.609C118.067 51.0433 118.441 50.9638 118.733 50.8047C119.025 50.6456 119.24 50.4268 119.379 50.1484C119.522 49.87 119.593 49.5502 119.593 49.1889C119.593 48.8277 119.522 48.5095 119.379 48.2344C119.24 47.9593 119.023 47.7455 118.728 47.593C118.436 47.4373 118.06 47.3594 117.6 47.3594H115.909V56H114.065ZM125.277 45.8182L127.927 53.8324H128.031L130.676 45.8182H132.704L129.115 56H126.838L123.253 45.8182H125.277ZM134.438 47.3643V45.8182H142.561V47.3643H139.414V56H137.585V47.3643H134.438ZM148.1 50.9091C148.1 52.1487 147.934 53.2905 147.602 54.3345C147.274 55.3752 146.784 56.3381 146.131 57.223H144.436C144.691 56.8949 144.926 56.4938 145.142 56.0199C145.36 55.5459 145.549 55.0256 145.708 54.4588C145.871 53.892 145.997 53.3054 146.086 52.6989C146.179 52.0923 146.225 51.4957 146.225 50.9091C146.225 50.1236 146.146 49.3281 145.987 48.5227C145.831 47.7173 145.617 46.9699 145.345 46.2805C145.077 45.5911 144.774 45.0277 144.436 44.5902H146.131C146.784 45.4751 147.274 46.4396 147.602 47.4837C147.934 48.5244 148.1 49.6662 148.1 50.9091ZM155.63 56V45.8182H157.474V54.4538H161.959V56H155.63ZM162.653 47.3643V45.8182H170.777V47.3643H167.63V56H165.8V47.3643H162.653ZM176.633 56H173.183V45.8182H176.703C177.714 45.8182 178.582 46.022 179.308 46.4297C180.037 46.834 180.597 47.4157 180.988 48.1747C181.38 48.9337 181.575 49.8419 181.575 50.8991C181.575 51.9598 181.378 52.8712 180.983 53.6335C180.592 54.3958 180.027 54.9808 179.288 55.3885C178.552 55.7962 177.667 56 176.633 56ZM175.027 54.4041H176.544C177.253 54.4041 177.845 54.2749 178.319 54.0163C178.793 53.7545 179.149 53.3651 179.388 52.848C179.626 52.3277 179.746 51.678 179.746 50.8991C179.746 50.1203 179.626 49.474 179.388 48.9602C179.149 48.4432 178.796 48.0571 178.329 47.8018C177.865 47.5433 177.288 47.4141 176.599 47.4141H175.027V54.4041Z" fill="#0C2561"/>
</svg>
