<svg width="30" height="30" viewBox="0 0 30 30" fill="none" xmlns="http://www.w3.org/2000/svg">
<path d="M0.129601 14.8687C0.259201 14.9888 0.330705 15.1032 0.252498 15.2194C0.117982 15.1993 0.159543 14.9822 0.129601 14.8687ZM0.481757 11.2943C0.483544 11.3956 0.398188 11.4762 0.467457 11.592C0.580075 11.5183 0.581862 11.4201 0.481757 11.2943ZM8.76098 1.58513C8.68501 1.62327 8.64746 1.73726 8.60367 1.83547C8.81148 1.93718 8.80522 1.69868 8.76098 1.58513ZM29.5292 13.9419C29.4564 14.0348 29.5274 14.1273 29.4925 14.2194C29.5913 14.229 29.6704 14.0204 29.5292 13.9419ZM28.8437 16.4645C28.9138 16.4856 28.9724 16.5575 29.043 16.5794C29.0743 16.5351 29.0555 16.4807 29.0126 16.4224C28.9514 16.4588 28.9053 16.4242 28.8437 16.4645ZM27.6942 20.9789C27.7273 21.0227 27.772 21.049 27.8417 21.0385C27.7452 21.1823 27.7094 21.2108 27.6621 21.4116C27.8247 21.3125 27.923 21.1678 27.9525 20.985C27.8359 21.0284 27.7903 20.9662 27.6942 20.9789ZM26.8728 21.3976C26.9524 21.4475 26.9631 21.5931 27.0896 21.5773C27.1454 21.4923 26.998 21.3897 26.8728 21.3976ZM27.4936 21.5462C27.4654 21.4953 27.3819 21.5234 27.3197 21.5212C27.3336 21.6106 27.3689 21.6681 27.4158 21.7102C27.4963 21.6931 27.376 21.5396 27.4936 21.5462ZM23.4085 26.1767C23.2914 26.1754 23.3254 26.3157 23.3182 26.3973C23.3768 26.3911 23.4103 26.3403 23.4313 26.2692C23.3937 26.2548 23.4116 26.2109 23.4085 26.1767ZM23.1833 26.9514C23.2918 26.9014 23.3008 26.8116 23.2436 26.7129C23.1533 26.6967 23.1605 26.912 23.1833 26.9514ZM22.0048 27.3684C22.3055 27.2272 22.4347 26.9891 22.7198 26.7673C22.4794 26.8085 22.3011 26.9755 22.0977 27.0996C22.2059 27.2136 22.0575 27.2434 22.0048 27.3684ZM21.7769 27.3916C21.8931 27.4113 21.9851 27.3653 22.0213 27.1969C21.8962 27.1579 21.8564 27.3201 21.7769 27.3916ZM21.6745 27.4302C21.5717 27.4692 21.4462 27.4451 21.3671 27.5455C21.4211 27.6367 21.6334 27.6152 21.6745 27.4302ZM21.0207 27.2986C20.9948 27.4429 20.9443 27.4661 21.0703 27.6051C21.0203 27.4008 21.2598 27.4766 21.3175 27.3328C21.1905 27.3745 21.115 27.3245 21.0207 27.2986ZM21.506 29.0808C21.5789 29.14 21.6222 29.1093 21.6808 29.1242C21.7215 29.0637 21.6634 28.9914 21.7375 29.0107C21.7264 28.8682 21.5463 28.9988 21.506 29.0808ZM20.0961 28.2925C20.1189 28.2658 20.1006 28.2491 20.0804 28.2333L20.0121 28.1851C19.9736 28.3425 19.6626 28.2785 19.541 28.4964C19.5835 28.5196 19.5965 28.5486 19.588 28.5819C19.6997 28.4771 19.8311 28.4626 19.9321 28.3267C20.1064 28.4455 19.8959 28.4464 19.9343 28.5771C20.0228 28.6608 20.0183 28.3649 20.1064 28.4482C20.1394 28.4039 19.9303 28.2623 20.0961 28.2925ZM20.7208 29.5306C20.9076 29.4793 21.0761 29.3618 21.2348 29.2259C21.0471 29.2693 20.8706 29.3447 20.7208 29.5306ZM19.1549 28.4096C19.226 28.5214 19.217 28.5981 19.0892 28.6718C19.2126 28.7213 19.3104 28.6257 19.4097 28.5521C19.3221 28.5814 19.2809 28.375 19.1549 28.4096ZM18.8832 28.9883C19.0856 29.0023 19.1013 28.894 19.2559 28.7989C19.1134 28.7542 19.003 28.8883 18.8832 28.9883ZM18.5918 28.9633C18.5409 28.6279 18.1932 29.0839 17.9939 28.9892C17.9644 29.0435 18.0792 29.0852 18.0377 29.1404C18.2312 29.1312 18.3804 28.8064 18.5918 28.9633ZM18.0877 29.3517C18.3022 29.4377 18.4801 29.19 18.6656 29.0795C18.4542 29.0111 18.2808 29.2272 18.0877 29.3517ZM17.9729 29.702C18.0801 29.7774 18.1579 29.5648 18.2625 29.6144C18.2616 29.4486 18.0511 29.6507 17.9729 29.702ZM17.6377 29.5749C17.7919 29.4184 17.9747 29.6069 18.1262 29.4416C17.9559 29.4166 17.787 29.3342 17.6377 29.5749ZM17.6605 29.0786C17.5215 28.9953 17.4004 29.1317 17.2726 29.2869C17.4513 29.4276 17.2547 29.5679 17.1372 29.5039C17.0541 29.3855 17.1993 29.3434 17.2726 29.2869C17.1899 29.1409 17.1224 29.3557 17.0411 29.2281C17.0027 29.5039 16.6183 29.8134 16.4338 29.9348C16.4436 30.154 16.8386 29.7608 16.8476 29.6288C16.8722 29.8099 17.0715 29.6621 17 29.8432C17.2167 29.6468 17.3897 29.4114 17.6605 29.0786ZM16.4963 29.6271C16.5272 29.5762 16.4481 29.5245 16.4101 29.4727C16.3332 29.4973 16.2528 29.6139 16.175 29.592C16.1629 29.6437 16.209 29.6959 16.1415 29.7463C16.1991 29.7766 16.2581 29.7796 16.3171 29.8103C16.3994 29.7279 16.3359 29.5372 16.4963 29.6271ZM16.0003 29.5885C16.1129 29.5192 16.0816 29.4464 16.1522 29.3759C16.0651 29.3903 15.8604 29.4679 16.0003 29.5885ZM15.7956 29.6087C15.763 29.7244 15.7965 29.7318 15.6678 29.7831C15.7607 29.8844 15.868 29.7332 15.965 29.7419C16.024 29.5968 15.8331 29.727 15.7956 29.6087ZM29.5323 14.6249C29.552 14.6004 29.5471 14.5745 29.5086 14.5478C29.312 14.6477 29.2669 14.7521 29.257 14.8595C29.1596 14.8205 29.1645 14.7556 29.0072 14.8424C29.0264 14.9011 28.9429 14.9511 29.0197 15.0147C29.1122 14.9844 29.0465 14.8691 29.1502 14.9752C29.0953 15.0984 28.992 15.1585 29.2132 15.2536C28.9907 15.3378 29.0336 15.6 29.2061 15.5767L29.0698 15.6587C29.232 15.7214 29.1297 15.7679 29.1578 15.87C29.0197 15.9301 28.9563 15.8652 28.8812 15.9774C28.9782 16.0967 29.0859 16.2295 28.9607 16.3628C28.8727 16.2944 28.9773 16.1366 28.8159 16.1388C28.8235 16.2357 28.6913 16.2449 28.6886 16.2883C28.7873 16.4654 28.7435 16.5119 28.9348 16.6324C28.698 16.8275 29.1484 17.191 28.7413 17.3435C28.8186 17.3725 28.8428 17.4054 28.8334 17.4702C28.7342 17.5663 28.5536 17.3988 28.5474 17.5435C28.5961 17.632 28.7109 17.511 28.7507 17.6272C28.723 17.7898 28.5943 17.8793 28.7485 18.0406C28.6488 18.1415 28.651 17.9372 28.5693 17.9832C28.5268 18.1051 28.4012 18.2541 28.5858 18.3791C28.525 18.4725 28.4111 18.5435 28.4902 18.6886C28.3994 18.7171 28.3422 18.6649 28.2377 18.7232C28.3892 18.871 28.1 18.8438 28.1983 18.9714C28.2828 18.9863 28.3427 19.0564 28.4097 19.1125C28.2462 19.1481 28.2019 18.9113 28.024 18.9788C28.0732 19.0428 28.0097 19.0604 28.0039 19.1016C28.0772 19.1174 28.155 19.1213 28.1952 19.2103C28.083 19.259 28.0285 19.1169 27.9834 19.2248C28.0459 19.3361 28.1626 19.3339 28.2698 19.3506C28.0701 19.3651 28.3699 19.4282 28.2412 19.4747C28.1965 19.419 28.1934 19.4944 28.121 19.5019C28.0768 19.4457 28.1371 19.3993 28.0705 19.3975C27.9114 19.4155 27.978 19.5352 27.9539 19.615C28.0897 19.6154 27.9454 19.4843 28.1206 19.5019C28.2421 19.7009 27.9928 19.7404 28.2439 19.8653C28.1076 19.8088 28.0719 19.8714 27.9713 19.8438C27.9695 19.8039 27.9087 19.7031 27.8104 19.6825C27.7622 19.761 27.5526 19.896 27.7403 20.0038C27.6924 19.8991 27.8332 19.8302 27.9476 19.8872C27.9749 20.0683 27.8582 20.1753 27.9499 20.3962C27.7483 20.4357 27.8976 20.6869 27.6746 20.5589C27.705 20.7268 27.6151 20.7798 27.6679 20.9048C27.4922 20.7908 27.5999 21.0981 27.4324 21.085C27.3671 20.9556 27.5463 20.9776 27.4797 20.8495C27.1928 20.9061 27.5088 20.6847 27.3211 20.6395C27.2161 20.6891 27.2304 20.7658 27.1584 20.7689C27.2706 20.9741 27.191 21.1547 27.2728 21.3699C27.1714 21.3515 27.1606 21.2038 27.0534 21.1946C26.9913 21.1021 27.1544 21.0118 27.0199 20.9697C26.9872 21.1113 26.9779 21.2744 26.7566 21.2897C26.7602 21.4278 26.8331 21.6216 26.6007 21.594C26.5202 21.7452 26.8344 22.0109 26.5891 22.0438C26.623 21.9259 26.5247 21.8811 26.4452 21.7803C26.4438 22.0438 26.0876 22.2222 26.2262 22.4178C26.4139 22.4524 26.1439 22.3104 26.3312 22.345L26.3701 22.5379C26.198 22.448 26.1413 22.5594 26.0689 22.6396C26.2168 22.8268 26.0318 22.8514 26.0416 23.014C25.9093 23.0465 25.8651 22.9715 25.803 23.0302C25.8418 23.263 26.1891 23.0009 26.1118 23.2499C25.9567 23.1078 25.5688 23.2087 25.5254 23.381C25.5943 23.388 25.6314 23.4239 25.6537 23.4743C25.5433 23.4932 25.5442 23.4064 25.4499 23.4103C25.3458 23.5651 25.4995 23.6883 25.2761 23.6572C25.2917 23.7374 25.3896 23.751 25.4052 23.8312C25.2917 23.8439 25.298 23.7598 25.2001 23.7584C25.1983 23.9268 25.1429 24.0434 24.9695 24.0228C24.9413 24.1504 25.1335 24.103 25.0933 24.2407C25.0133 24.2652 25.0021 24.3692 24.9329 24.406C24.9449 24.3183 24.9239 24.2569 24.8529 24.2324C24.7054 24.4099 24.5789 24.5599 24.4417 24.6988C24.2983 24.8312 24.1396 24.9492 23.9376 25.0715C23.9854 25.0899 24.0297 25.1105 24.0087 25.1732C23.8858 25.1009 23.9166 25.2504 23.8393 25.2434C23.8286 25.189 23.7973 25.1473 23.7311 25.1289C23.6708 25.2526 23.5189 25.2337 23.497 25.4205C23.4237 25.4047 23.4183 25.3477 23.3499 25.3293C23.3437 25.6059 23.0867 25.481 23.0125 25.6524C23.051 25.6677 23.0523 25.7015 23.0814 25.7208C23.126 25.6445 23.219 25.6506 23.303 25.6406C23.2275 25.7335 23.1412 25.8392 23.19 26.0123C23.0161 26.0093 23.2239 25.8093 23.1126 25.7743C22.849 25.9957 22.5379 26.7383 22.1335 26.7213C22.1491 26.8712 22.0897 26.8265 21.9985 26.8747C21.8984 26.6726 22.2613 26.5928 22.0901 26.4393C21.8823 26.5297 21.6723 26.702 21.4555 26.9514C21.3166 26.9089 21.3492 26.8155 21.4694 26.9133C21.4171 26.8357 21.6459 26.6524 21.5592 26.5156C21.4091 26.6024 21.2285 26.8655 21.2375 26.9676C21.2473 26.9199 21.1959 26.8949 21.1445 26.8699C20.8983 27.2105 20.5622 27.2956 20.3535 27.8725C20.2529 27.8037 20.2655 27.7046 20.2521 27.6125C20.3173 27.6375 20.3142 27.7252 20.3544 27.6801C20.4183 27.6529 20.4339 27.6147 20.3714 27.5481C20.2887 27.5819 20.1864 27.5455 20.114 27.6182C20.1578 27.6599 20.114 27.7243 20.1287 27.7739C20.0688 27.8304 19.945 27.6375 19.8901 27.7081C19.8735 27.7533 19.8306 27.8033 19.8673 27.8375C20.0036 27.7919 19.9745 27.777 20.0563 27.9203C20.1202 27.8432 20.2029 27.8396 20.2838 27.8274C20.2302 27.9624 20.4585 27.819 20.4049 27.9541C20.2976 28.0067 20.3401 27.9655 20.2136 27.8782C19.9464 27.9133 19.9303 28.1724 19.7399 28.239C19.7797 28.0536 19.8932 27.8537 19.752 27.7033C19.583 27.6415 19.5071 27.9839 19.352 27.9988C19.2094 27.8436 19.1299 27.9856 19.0217 27.9948C19.0593 28.129 18.7858 28.3649 18.7348 28.2312C18.8175 28.2215 18.9525 28.122 18.8108 28.0312C18.7594 28.1531 18.6821 28.1303 18.6182 28.1877C18.666 28.2329 18.5865 28.2952 18.6687 28.3359C18.4457 28.4661 18.5226 28.4122 18.2884 28.5907C18.0167 28.3329 17.9854 28.8533 17.7029 28.5494C17.6386 28.6669 17.5613 28.6135 17.4965 28.7502C17.4978 28.5258 17.5407 28.3828 17.618 28.1856C17.2806 28.2728 16.9057 28.2434 16.7479 28.6744C16.4713 28.645 16.0584 28.6726 15.8537 29.0273C16.1768 29.3697 16.6277 28.6222 16.8619 28.8594C16.7931 28.8138 16.8945 28.6192 16.9678 28.6744C16.9459 28.7257 16.9495 28.777 17.0004 28.8278C17.1662 28.7406 17.2149 28.3381 17.471 28.3815C17.3812 28.6148 17.1546 29.0431 16.8945 29.0742C16.857 28.9927 17.0751 28.9098 16.9446 28.8283C16.76 28.9966 16.5982 29.0558 16.4695 29.35C16.2979 29.2693 16.1267 29.268 15.9578 29.2176C15.771 29.4596 15.6142 29.3531 15.5578 29.6503C15.4425 29.5582 15.6503 29.4938 15.5172 29.4C15.3223 29.3754 15.4202 29.4175 15.3858 29.2329L15.1033 29.4841C15.0149 29.3991 14.9201 29.3894 14.8151 29.4539C14.8576 29.5916 14.9277 29.4925 14.9818 29.5332C14.8625 29.6034 14.8258 29.6823 14.8379 29.766C14.7427 29.7323 14.6296 29.8371 14.5523 29.6722C14.6211 29.5977 14.6909 29.5227 14.5854 29.428C14.4473 29.5907 14.2882 29.7389 14.1305 29.887C14.0366 29.613 13.8024 30.133 13.7063 29.8721C13.7475 29.7411 13.8543 29.8187 13.8337 29.6766C13.8985 29.766 14.0009 29.6415 14.0777 29.6591C14.0558 29.6034 14.0799 29.5552 14.0165 29.4916L13.8105 29.6407C13.8024 29.4149 13.6179 29.6069 13.5102 29.4885C13.7747 29.3421 14.0661 29.5109 14.2006 29.0874C13.9839 28.9633 13.4257 29.4955 13.4078 28.9962C13.3426 28.9844 13.2617 29.0418 13.1781 29.1062C13.1973 29.1523 13.2447 29.204 13.2067 29.2382C12.8139 29.0795 12.3236 29.2408 11.9429 29.0185C11.9594 29.0773 11.8821 29.108 11.8678 29.1567C11.8271 28.9993 11.6832 29.1531 11.6256 29.0497C11.744 28.944 11.8651 29.0409 11.8325 28.8888C11.6663 28.8406 11.5081 28.7722 11.3204 28.7774C11.2435 28.6818 11.332 28.6494 11.2775 28.5626C11.2319 28.5994 11.2283 28.6529 11.1425 28.6753C11.1045 28.5832 11.1608 28.5284 11.0871 28.4214C10.9441 28.4854 10.9619 28.4289 10.8578 28.5288C10.8493 28.3925 10.9526 28.3009 10.9459 28.1654C10.8212 28.1742 10.6701 28.2369 10.6093 28.0935L10.6853 28.0584C10.68 28.0339 10.6755 28.0102 10.7099 28.0023C10.7032 28.143 10.9079 28.1461 10.903 28.0479C10.7023 27.9826 10.5736 27.9273 10.3622 28.0238C10.4047 27.8497 10.2402 27.9273 10.2885 27.7848C10.2532 27.8576 10.1616 27.8949 10.124 27.8055C10.2755 27.7432 10.3269 27.6318 10.2853 27.4727C10.402 27.481 10.5092 27.5091 10.6326 27.5003C10.612 27.424 10.7054 27.3964 10.713 27.3324C10.6813 27.3232 10.65 27.3131 10.6183 27.3035C10.4333 27.4227 10.2853 27.3648 10.1187 27.3179C10.0749 27.4372 9.91084 27.6073 9.81118 27.4372C9.9028 27.4017 9.94347 27.463 10.053 27.3881C10.0816 27.2934 10.0168 27.1733 9.99263 27.1483C9.95062 27.1776 9.88716 27.3653 9.81029 27.2627C9.8599 27.2561 9.91531 27.0961 9.82012 27.1281C9.69946 27.1689 9.74013 27.2951 9.56763 27.3092C9.52919 27.2259 9.63779 27.0483 9.55154 27.0553C9.54484 27.1478 9.34508 27.3157 9.25436 27.2465C9.26731 27.118 9.38037 27.1746 9.39512 27.111C9.25435 27.1487 9.42865 26.9093 9.32184 26.9659C9.26419 27.2232 8.88879 27.1505 8.78779 27.001C8.7221 27.058 8.67785 27.1272 8.6564 27.211C8.60769 27.0961 8.52725 27.0838 8.48792 27.2127C8.46915 27.1031 8.34402 27.157 8.33195 27.0382C8.49418 26.9479 8.79047 26.947 8.95359 26.997C8.94644 26.9558 8.97683 26.9383 8.97862 26.9028C8.46513 26.8655 8.28369 26.6143 7.68395 26.6406C7.70719 26.5156 7.61737 26.5428 7.62541 26.4385C7.8511 26.3657 8.09465 26.4722 8.35028 26.3447C8.28637 26.31 8.22291 26.2749 8.1599 26.2394C7.8426 26.2727 7.53022 26.2798 7.47302 25.9628C7.18969 25.9001 6.74949 25.8142 6.76022 25.5384C6.7048 25.5993 6.6342 25.5796 6.5971 25.5152C6.70302 25.5165 6.77183 25.4818 6.7629 25.3736C6.73385 25.3595 6.71285 25.3363 6.69899 25.3056C6.66995 25.2846 6.64045 25.2653 6.6114 25.2442C6.4818 25.3174 6.38125 25.1693 6.19981 25.2175C6.25344 25.1355 6.27578 25.0614 6.27802 24.9917C5.69437 24.545 5.13574 24.0645 4.6017 23.5576C4.42115 23.1736 4.12084 22.8321 3.82008 22.4857C3.53004 22.1332 3.20425 21.797 2.9741 21.466C2.82752 21.2468 2.90975 20.9464 2.58173 20.8202C2.51514 20.6957 2.44989 20.5663 2.38509 20.4326C2.32968 20.295 2.27292 20.1547 2.21572 20.0131C2.10712 19.7268 1.99629 19.4343 1.88725 19.1463C1.70939 18.5588 1.48862 17.9981 1.27768 17.5382C1.32059 17.1419 1.24193 16.7569 1.16998 16.3624C1.10428 15.9687 1.01714 15.5644 0.994796 15.1572C0.98854 14.8231 1.09132 14.5263 1.06049 14.2102C1.04887 14.0879 0.968876 13.9524 0.963513 13.8178C0.959938 13.5149 1.06139 13.2211 1.15345 12.9283C1.10518 13.0291 1.03412 13.1036 1.0015 13.0778C1.17936 12.9914 0.967537 12.8485 1.06094 12.7498C1.19948 12.8217 1.11903 12.6323 1.15478 12.5968C1.19903 12.6446 1.20707 12.7117 1.19813 12.7805C1.24997 12.6016 1.29198 12.4223 1.29556 12.2408C1.30539 12.1137 1.29824 11.9949 1.29153 11.8796C1.27902 11.8997 1.26159 11.919 1.22673 11.9344C1.18651 11.8761 1.13557 11.8642 1.07926 11.8747C1.09758 11.9357 1.08819 11.9905 1.10562 12.051C1.18026 12.0194 1.1588 11.9677 1.22673 11.9344C1.23969 12.0519 1.21243 12.1409 1.2674 12.197C1.08373 12.0773 1.19009 12.3951 0.976473 12.3675C1.01714 12.6692 0.904073 12.9392 0.670346 13.204C0.793243 13.3268 0.720401 13.2843 0.622977 13.3408C0.678392 13.535 0.660961 13.8481 0.46656 13.9278C0.650235 14.0752 0.341432 14.3391 0.237752 14.3763C0.26099 14.3514 0.2449 14.1922 0.185016 14.2571C0.132729 14.3316 0.122897 14.4097 0.168033 14.4895C0.210935 14.4592 0.252946 14.4333 0.293614 14.4952C0.22792 14.6179 0.301208 14.7455 0.317743 14.8713C0.116193 14.5561 -0.126917 14.5464 0.0835716 14.3391C-0.0205555 14.176 0.078207 14.0252 0 13.8616C0.0929547 13.7612 0.194847 13.827 0.204679 13.7029C0.28959 13.7371 0.197531 13.8871 0.318193 13.8292C0.3316 13.5583 0.387461 13.222 0.17876 13.0826C0.286015 12.9774 0.361095 13.1383 0.468797 13.0344C0.271715 12.8634 0.544769 12.6731 0.551025 12.581C0.530021 12.6556 0.569795 12.7397 0.63236 12.8261C0.465668 12.8892 0.451366 13.1269 0.614931 13.1396C0.760172 12.9883 0.67705 12.8037 0.82408 12.6551L0.747661 12.5565C0.629233 12.5622 0.677049 12.7275 0.602418 12.6477C0.68554 12.603 0.528682 12.5192 0.511699 12.457C0.793245 12.2833 0.377184 12.1597 0.516616 11.958C0.625659 12.0159 0.55639 12.1746 0.6413 12.1308C0.674817 11.9611 0.755257 11.8033 0.749448 11.6266C0.833465 11.5394 0.877261 11.6218 0.959937 11.5591C0.916588 11.4613 0.895584 11.3522 0.879049 11.275C1.00329 11.2575 1.06004 11.4749 1.17311 11.4946C1.27276 11.4526 1.21512 11.3706 1.25847 11.3145C1.08954 11.3145 1.18339 11.143 1.22361 11.1027C1.04619 11.093 1.15925 10.9606 1.07568 10.9436C1.05065 10.9532 1.02697 10.9606 1.01535 10.9265C1.13512 10.8195 1.15836 11.0308 1.27321 10.9409C1.40236 10.7984 1.06898 10.5911 1.21109 10.51C1.24908 10.5976 1.30092 10.6415 1.37376 10.6196C1.58604 10.4503 1.25891 10.1991 1.2388 10.1303C1.28975 10.2009 1.3836 10.1592 1.45644 10.175C1.50962 10.2653 1.47208 10.4718 1.58246 10.4815C1.78267 10.2539 1.51186 10.1768 1.52124 9.92862C1.59275 9.89135 1.63073 9.93651 1.69955 9.90451L1.58827 9.68267C1.51364 9.7081 1.54805 9.92379 1.42515 9.83304C1.47968 9.73133 1.58648 9.6511 1.5552 9.51738C1.35723 9.79534 1.19187 10.0939 1.04976 10.399C0.91033 10.0531 1.59096 9.68354 1.30047 9.47968C1.25042 9.36657 1.32595 9.30212 1.37198 9.22759C1.39924 9.27099 1.41532 9.33939 1.46582 9.32843C1.55073 9.16621 1.73978 9.05047 1.82469 8.89264C1.85061 8.93604 1.86714 9.004 1.9163 8.99435C1.86982 8.88168 2.05886 8.87467 1.99808 8.75366C1.92703 8.794 1.92524 8.86546 1.82469 8.89264C1.78178 8.66247 1.86401 8.60066 1.70894 8.36435C1.88859 8.28149 1.65129 8.24159 1.92836 8.08552C1.80457 7.82466 2.2041 7.55372 2.35336 7.33364C2.37303 7.37879 2.37884 7.44762 2.43023 7.44456C2.43068 7.41167 2.45257 7.39107 2.50396 7.38844C2.369 7.33276 2.34263 7.17011 2.52229 7.13284C2.5786 7.1232 2.58083 7.19641 2.6291 7.19729C2.60318 7.08768 2.53659 7.12933 2.58575 7.03639C2.66619 7.01009 2.68406 7.07585 2.73412 7.09514C2.72384 7.01754 2.66262 7.01491 2.64966 6.94125C2.7368 6.77027 3.06259 6.64708 2.97366 6.46733C3.11667 6.40683 3.05142 6.64576 3.17968 6.60762C3.06348 6.16657 3.40268 6.06223 3.66501 6.02277C3.62076 6.02804 3.64043 6.0767 3.71506 6.06004C3.67573 6.10476 3.66858 6.1828 3.6878 6.2582C3.72176 6.2148 3.75528 6.17183 3.7879 6.12887C3.7669 6.10213 3.75126 6.06881 3.75036 6.01707C3.79639 6.0105 3.82276 6.02804 3.84466 6.05039C3.85538 6.03505 3.867 6.02014 3.87773 6.0048C3.85896 5.90177 3.93359 5.92282 3.85092 5.84697C3.93806 5.88862 3.97828 5.78603 4.00465 5.80839C4.0547 5.72903 4.12352 5.6624 4.19726 5.5997C4.27502 5.44144 4.40016 5.29763 4.43099 5.13323C4.43323 5.22749 4.4435 5.31429 4.52305 5.33095C4.55299 5.30421 4.58472 5.27922 4.61198 5.24985C4.62897 5.23056 4.64505 5.21039 4.66159 5.19066C4.66293 5.16173 4.6446 5.12271 4.595 5.05694C4.86939 5.06089 4.50294 4.88947 4.70628 4.8579C4.70226 4.94866 4.74203 4.996 4.78627 5.03853C4.80817 5.01091 4.82962 4.98329 4.85107 4.95523C4.82917 4.92586 4.81666 4.88684 4.83052 4.82283C4.87699 4.84738 4.91096 4.85308 4.93509 4.84782C4.94805 4.83072 4.96145 4.81362 4.97441 4.79696C4.9771 4.75663 4.95297 4.70227 4.9047 4.66368C5.16122 4.55978 5.32434 4.36206 5.49371 4.20554C5.60588 4.11128 5.72074 4.03807 5.85347 4.01088C5.95312 3.85174 6.08943 3.69391 6.25299 3.54266C6.24986 3.54485 6.24718 3.54748 6.24361 3.54967C6.21679 3.38395 6.3522 3.42034 6.38214 3.32389C6.32092 3.30591 6.22886 3.31205 6.21947 3.25374C6.36069 3.14501 6.5533 3.10994 6.6333 2.91704C6.86256 3.02401 6.87105 2.83111 6.95775 2.74036C6.96043 2.79998 7.04221 2.80919 7.06992 2.85215C7.00289 3.09416 6.42281 2.99025 6.58771 3.26908C6.77094 3.13756 6.97026 3.01875 7.17762 2.91791C7.14276 2.90739 7.11103 2.89512 7.11103 2.86224C7.31348 2.70002 7.52129 2.53912 7.7997 2.50054C7.69423 2.66758 7.51637 2.7272 7.37113 2.83286C7.52129 2.77017 7.67233 2.71405 7.82249 2.67547C7.83992 2.62944 7.8368 2.57727 7.82875 2.52246C7.83099 2.52159 7.83322 2.52071 7.8359 2.51983C7.79791 2.45802 7.78719 2.36157 7.79925 2.28703C8.05756 2.32123 8.42893 2.36507 8.3257 2.08098C8.46245 2.17655 8.4258 1.95428 8.55362 2.03407C8.57775 2.12131 8.47988 2.1406 8.48435 2.16735C8.52546 2.13797 8.56703 2.1086 8.60814 2.07879C8.63093 2.06169 8.65462 2.04547 8.67785 2.02881C8.66043 2.01829 8.64747 2.00557 8.65238 1.98409C8.67294 1.9911 8.6859 2.00206 8.70154 2.01171C8.91605 1.85651 9.13726 1.71183 9.39155 1.65966C9.46305 1.63555 9.45993 1.57899 9.47289 1.52901C9.27357 1.60749 9.05816 1.66536 8.91784 1.64519C9.04878 1.5939 9.10911 1.53559 8.99113 1.40801C9.14263 1.34225 9.02689 1.53471 9.16095 1.57066C9.19492 1.38521 9.49434 1.54304 9.42194 1.33129C9.54797 1.50622 9.5788 1.28131 9.75577 1.39837C9.7227 1.41722 9.68158 1.43519 9.6436 1.45404C9.72314 1.43607 9.79644 1.41239 9.86303 1.37864C9.84426 1.3782 9.82638 1.37951 9.80717 1.3782C9.92291 1.2778 10.0865 1.05377 10.2594 1.14189C10.3108 1.13575 10.3586 1.12699 10.4082 1.11953C10.3931 1.09191 10.3729 1.06605 10.3881 1.0279C10.4735 1.01607 10.5673 1.0336 10.6196 0.926631C10.5839 0.813958 10.4896 0.837194 10.3966 0.800367C10.6487 0.745127 10.7068 0.833686 10.8721 0.980555C10.9333 0.90164 11.0187 0.930139 11.1045 0.971788C11.1595 0.956444 11.214 0.94066 11.2681 0.924439C11.3709 0.781077 11.2243 0.706985 11.1939 0.600011C11.3047 0.663581 11.4616 0.686817 11.5746 0.496545C11.6689 0.600011 11.7235 0.55047 11.7887 0.540825C11.7123 0.729344 11.5371 0.538195 11.4607 0.718822C11.4906 0.794229 11.5273 0.817465 11.5997 0.809135C11.5997 0.812642 11.5983 0.815712 11.5979 0.819219C11.6301 0.808259 11.6631 0.798175 11.6949 0.787215C11.7521 0.766609 11.8093 0.750387 11.866 0.731536C11.875 0.706984 11.8759 0.67235 11.8718 0.649114C11.9062 0.665335 11.9326 0.68331 11.9554 0.702162C12.0582 0.671034 12.1619 0.645168 12.266 0.623686C12.2678 0.577652 12.2691 0.44262 12.3487 0.494353C12.308 0.728906 12.4041 0.438235 12.5243 0.524603C12.518 0.553539 12.5127 0.570638 12.5069 0.585982C12.5355 0.582475 12.5641 0.579406 12.5927 0.577214C12.5918 0.576775 12.5913 0.575899 12.5904 0.575022C12.6861 0.483831 12.6628 0.524604 12.6432 0.409301C12.674 0.421576 12.6999 0.409301 12.7205 0.365021L12.8184 0.441305C12.7924 0.482954 12.7638 0.525042 12.7401 0.566253C12.8358 0.5645 12.9337 0.569761 13.0329 0.58116C13.0338 0.573268 13.0315 0.571075 13.0333 0.560992C13.0427 0.570199 13.0512 0.57546 13.0606 0.582474C13.0637 0.582913 13.0664 0.582475 13.0695 0.582913C13.2872 0.396148 13.5374 0.325563 13.7966 0.29312C13.7774 0.271638 13.7653 0.250155 13.7671 0.234811C13.8257 0.207191 13.8896 0.238757 13.9539 0.276899C14.0219 0.272077 14.0898 0.267692 14.1582 0.265062L14.2087 0.198861C14.2395 0.235687 14.353 0.212013 14.3548 0.256293C14.4826 0.250594 14.6091 0.242702 14.7315 0.222974C14.8839 0.197984 15.035 0.0265632 15.1896 0.00245036C15.3366 -0.0177168 15.4238 0.0927642 15.561 0.108547C15.6651 0.1217 15.7692 0.0405928 15.8988 0.0445386C16.0727 0.050238 16.2505 0.198861 16.4262 0.218589C16.6031 0.241825 16.7721 0.119946 16.9365 0.144936C16.9977 0.152389 17.0541 0.175187 17.1081 0.20193C17.1582 0.150197 17.0706 0.0826809 17.1233 0.0305094C17.2261 0.0655827 17.2972 0.0901338 17.2954 0.205876C17.2556 0.162034 17.2033 0.212891 17.1559 0.226481C17.2565 0.280845 17.3517 0.344415 17.4522 0.363266C17.5546 0.382995 17.6605 0.375104 17.7686 0.358444C17.8205 0.315479 17.8799 0.311095 17.9344 0.32907C18.1002 0.297504 18.2683 0.267254 18.4332 0.301888C18.4363 0.296189 18.4104 0.285229 18.3621 0.222974C18.4278 0.182201 18.4895 0.165103 18.5391 0.197107C18.4859 0.229111 18.4828 0.271638 18.4859 0.315479C18.6115 0.353183 18.7348 0.431221 18.8533 0.582036C18.9583 0.576337 19.0637 0.581159 19.1701 0.590805C19.1496 0.575022 19.1308 0.553978 19.1187 0.508382C19.2121 0.444812 19.2193 0.526796 19.2586 0.420261C19.3006 0.494792 19.2528 0.54214 19.234 0.598258C19.487 0.626316 19.7484 0.68068 20.0425 0.718384C20.3017 0.750826 20.6042 0.7083 20.7968 0.774939C20.9126 0.814397 21.0118 0.947674 21.1172 0.99853C21.6325 1.25983 22.3677 1.12611 22.7936 1.64519C23.2369 1.71227 23.6985 2.05073 24.1289 2.3471C24.5525 2.65662 24.9628 2.91134 25.4213 2.7956C25.6211 2.5229 25.8888 2.43653 26.0662 2.54088C26.2637 2.65443 26.2092 2.88328 26.3777 3.12748C26.484 3.28399 26.6856 3.52556 26.8997 3.76318C27.1092 4.00606 27.3412 4.23842 27.5454 4.34978C27.7014 4.43483 28.0111 4.39801 28.1407 4.50454C28.42 4.74216 28.3404 5.27221 28.635 5.53526C28.832 5.71413 29.1913 5.72597 29.2655 5.82417C29.4729 6.11703 29.3482 6.669 29.2083 6.84568C29.2472 6.97677 29.3397 6.92065 29.3786 7.05349C29.2137 7.598 29.6038 8.63266 29.8867 9.29204C29.9283 9.39244 29.96 9.58008 29.9725 9.66776C30.1267 10.6494 29.5998 11.5179 29.198 12.2443C29.1297 12.2619 29.0832 12.293 29.0389 12.3259C29.2342 12.4771 29.1029 12.7169 29.3773 12.7831C29.274 12.8673 29.43 12.9305 29.426 13.0067C29.2365 12.9682 29.2298 13.0913 29.2727 13.2408C29.3129 13.3908 29.4121 13.5705 29.4689 13.6363C29.2642 13.6937 29.3469 13.4583 29.2503 13.4671C29.1806 13.5442 29.0939 13.6205 29.0921 13.6933C29.2624 13.6302 29.1466 13.7262 29.1542 13.7911C29.3017 13.7744 29.3031 13.7972 29.4045 13.8388C29.3192 13.9428 29.2383 13.7897 29.1534 13.8406C29.0465 13.9397 29.0604 14.0607 28.8361 14.0357C28.9715 14.0927 29.1073 14.094 29.2418 14.1624C29.0818 14.219 29.1042 14.386 28.9831 14.4491C29.1185 14.4776 29.2597 14.2957 29.396 14.2895C29.4496 14.4715 28.9876 14.4912 29.2387 14.7315C29.3142 14.4838 29.5252 14.5359 29.6163 14.2707C29.6083 14.375 29.6543 14.6126 29.5323 14.6249ZM0.370032 13.9506C0.298529 13.9283 0.228365 13.8906 0.14837 13.9625C0.242219 13.9375 0.302104 14.1146 0.17161 14.0524C0.175185 14.1357 0.248924 14.1931 0.34456 14.2382C0.414722 14.0563 0.325343 14.0782 0.370032 13.9506ZM0.860279 12.0014C0.706099 11.9804 0.724869 12.2439 0.693139 12.3452C0.82408 12.2443 0.839722 12.1229 0.860279 12.0014ZM1.10384 11.6231C1.00284 11.5639 0.832125 11.7309 0.871005 11.8011C0.986305 11.8612 1.04261 11.6687 1.10384 11.6231ZM1.99808 9.59235C2.01596 9.55027 2.03294 9.50818 2.05081 9.46653C2.01774 9.49678 1.99719 9.53799 1.99808 9.59235ZM2.19248 9.12895C2.07718 9.17454 2.06601 9.26749 2.03338 9.35035C2.0602 9.36832 2.07718 9.37139 2.09148 9.36964C2.12545 9.28941 2.15986 9.20962 2.19248 9.12895ZM11.3615 0.898572C11.4088 0.883666 11.4549 0.867883 11.5014 0.852539C11.4982 0.848154 11.4969 0.844208 11.4924 0.839386C11.3963 0.792914 11.3807 0.850785 11.3615 0.898572ZM7.95254 2.47555C7.98114 2.46415 8.01153 2.45539 8.03924 2.44223C7.99857 2.4475 7.96416 2.45626 7.95254 2.47555ZM6.31779 3.48172C6.39689 3.41289 6.48091 3.34625 6.56939 3.28224C6.43577 3.28399 6.38706 3.39623 6.31779 3.48172ZM2.53614 7.50769C2.62374 7.39458 2.7654 7.31522 2.79624 7.16835C2.60452 7.21658 2.55447 7.35556 2.53614 7.50769ZM2.00701 9.09782C2.11114 9.05179 2.16969 8.98822 2.19784 8.9093C2.15851 8.86371 1.87876 8.96761 2.00701 9.09782ZM1.66961 9.16753C1.73709 9.27363 1.85999 9.25083 1.93552 9.33983C1.95563 9.26749 2.00746 9.20874 1.9668 9.11053C1.84926 9.17147 1.7943 9.08905 1.66961 9.16753ZM1.90691 9.5678C1.8144 9.44943 1.68749 9.41216 1.70491 9.24381C1.43007 9.24951 1.68883 9.5187 1.64548 9.70634C1.78223 9.64014 1.7429 9.55246 1.90691 9.5678ZM6.54035 25.1912C6.53722 25.189 6.53454 25.1868 6.53141 25.1846C6.53007 25.1877 6.52918 25.1881 6.52783 25.1916C6.53186 25.1921 6.53633 25.1916 6.54035 25.1912ZM11.3557 27.9637C11.3516 27.8471 11.0781 27.8778 11.1568 28.0176C11.2015 27.9295 11.2279 27.9396 11.2596 28.0589C11.2819 28.0238 11.3047 27.9887 11.3557 27.9637ZM11.4808 27.7147C11.5201 27.602 11.3722 27.5586 11.2667 27.5963C11.264 27.4981 11.3664 27.5595 11.3869 27.5073C11.2801 27.4832 11.1738 27.4547 11.0674 27.4271C10.9852 27.4424 10.9106 27.4407 10.8636 27.3727C10.8368 27.3653 10.81 27.3591 10.7832 27.3513C10.6286 27.4683 10.5293 27.6954 10.6965 27.8287C10.7072 27.6998 10.6674 27.5485 10.8449 27.4894C10.8283 27.666 10.8417 27.6805 10.8739 27.8357C10.9682 27.7787 11.0553 27.7322 11.0643 27.88C11.2694 27.7485 11.2976 27.7248 11.4808 27.7147ZM11.6041 27.5516C11.559 27.5424 11.5139 27.5341 11.4687 27.524C11.5027 27.563 11.5487 27.5705 11.6041 27.5516ZM12.3174 27.7476C12.2204 27.6152 12.0676 27.6638 11.908 27.7165C12.0019 27.8546 12.1882 27.7208 12.3174 27.7476ZM12.7947 28.0185C12.7679 27.88 12.6584 28.0404 12.6226 27.9361C12.5507 28.0382 12.7124 28.136 12.7947 28.0185ZM15.8617 28.8436C15.7679 28.6959 15.6597 28.8309 15.5561 28.8484C15.7482 29.0093 15.5042 29.1317 15.6405 29.2877C15.6883 29.2882 15.7379 29.2597 15.788 29.2079C15.6191 29.0299 15.6825 28.8252 15.8617 28.8436ZM18.0006 28.0001C17.892 27.944 17.7101 28.0878 17.7003 28.2105C17.8035 28.1654 17.913 28.1728 18.0006 28.0001ZM22.3301 26.3381L22.2193 26.2877L22.1764 26.4385C22.2394 26.431 22.3315 26.4797 22.3301 26.3381ZM22.6367 26.0855C22.4758 26.0557 22.3967 26.1811 22.2756 26.2276C22.4629 26.317 22.5795 26.2526 22.6367 26.0855ZM22.8539 25.8383C22.7368 25.819 22.7466 26.0356 22.6166 25.9913C22.6845 26.1355 22.8642 26.018 22.8539 25.8383ZM25.9107 22.9263C26.0309 22.9132 26.1077 22.8584 26.0818 22.7141C26.0613 22.8176 25.8928 22.7878 25.9107 22.9263ZM27.4154 20.3274C27.2871 20.3769 27.4815 20.451 27.364 20.5221C27.528 20.6518 27.494 20.3427 27.4154 20.3274ZM27.5195 20.0806C27.6116 20.2055 27.532 20.2836 27.6276 20.3331C27.6759 20.2757 27.7519 20.2318 27.7094 20.1253C27.6299 20.1384 27.6156 20.0359 27.5195 20.0806ZM28.4204 17.8346C28.5742 17.9052 28.55 17.707 28.6385 17.6715C28.3869 17.5689 28.5992 17.7776 28.4204 17.8346ZM28.6497 16.8942L28.5375 16.942C28.5335 17.0402 28.525 17.1362 28.6354 17.2651C28.7641 17.2313 28.7485 17.1598 28.8142 17.1086C28.6586 17.0139 28.6792 17.041 28.6497 16.8942ZM28.7677 15.9104C28.9469 16.0103 28.8647 15.8231 29.0175 15.7749C28.8839 15.7192 28.883 15.8845 28.7677 15.9104ZM0.0656953 15.5737C0.019218 15.6534 0.0317299 15.7319 0.00580988 15.8117C0.0478182 15.838 0.0545216 15.7972 0.0370926 15.781C0.0782071 15.735 0.118875 15.6898 0.16133 15.7179C0.193507 15.6684 0.107704 15.6223 0.0656953 15.5737ZM5.98351 3.71408C5.88743 3.50978 6.11534 3.48172 6.17165 3.32959C6.1578 3.3537 5.72923 3.45322 5.8195 3.60667C5.64923 3.57992 5.56387 3.65621 5.51606 3.77195C5.73325 3.81842 5.79894 3.69698 5.98351 3.71408ZM6.29991 2.80437C6.06931 2.94466 5.8624 3.29802 5.54332 3.19236C5.78956 3.4142 6.27399 2.99639 6.29991 2.80437ZM7.50788 2.24451C7.62273 2.21513 7.72909 2.17349 7.83411 2.12877C7.76752 2.02004 7.56821 2.16209 7.50788 2.24451ZM9.06845 1.30981C9.0747 1.18135 8.9518 1.31726 8.87047 1.22519C8.83516 1.38127 8.87762 1.40143 8.72925 1.39442C8.80478 1.54348 8.96164 1.31156 9.06845 1.30981ZM29.3616 15.0668C29.3795 15.0945 29.4014 15.0844 29.4237 15.0721L29.4912 15.0274C29.4054 14.9533 29.5153 14.8941 29.5127 14.8262C29.3455 14.8003 29.4519 15.0055 29.3616 15.0668ZM22.0669 27.4438C21.9623 27.5727 22.1634 27.5827 22.0571 27.7129C22.0901 27.72 22.1094 27.6915 22.1478 27.7108L22.1764 27.6332C22.011 27.6204 22.2314 27.4565 22.0669 27.4438ZM20.7588 27.8874C20.7436 28.0076 20.9135 27.9585 20.9179 27.8418C20.8402 27.8112 20.8093 27.766 20.8437 27.7029C20.6417 27.5788 20.9345 27.9238 20.7588 27.8874Z" fill="#23A8E2"/>
<path d="M13.3289 20.2521C18.7149 20.2521 21.6604 15.8745 21.6604 12.0787C21.6604 11.9542 21.6578 11.8302 21.6519 11.7074C22.224 11.3019 22.7209 10.7959 23.1129 10.2199C22.5882 10.4483 22.0238 10.6022 21.4312 10.6723C22.0354 10.3167 22.4997 9.75382 22.7187 9.08349C22.1529 9.4123 21.5264 9.65211 20.8596 9.78057C20.3251 9.22246 19.5645 8.87305 18.7221 8.87305C17.1048 8.87305 15.7936 10.1594 15.7936 11.7455C15.7936 11.9709 15.819 12.1905 15.8695 12.4005C13.4362 12.2804 11.2781 11.1375 9.83419 9.39915C9.58259 9.82353 9.43735 10.3167 9.43735 10.8428C9.43735 11.8394 9.95441 12.7193 10.7405 13.2335C10.2601 13.2191 9.80917 13.0897 9.41411 12.874C9.41321 12.8863 9.41322 12.8986 9.41322 12.9109C9.41322 14.3024 10.4232 15.4637 11.7626 15.7272C11.5168 15.793 11.258 15.8281 10.9908 15.8281C10.8017 15.8281 10.6185 15.8097 10.4397 15.7763C10.8129 16.918 11.8935 17.7483 13.1752 17.7716C12.1728 18.5419 10.9108 19.0013 9.53835 19.0013C9.30238 19.0013 9.0691 18.9882 8.83984 18.9619C10.1363 19.7764 11.6745 20.2521 13.3289 20.2521Z" fill="white"/>
</svg>
