<svg width="45" height="28" viewBox="0 0 45 28" fill="none" xmlns="http://www.w3.org/2000/svg">
<path d="M44.1092 11.9362C44.1286 11.8906 44.1391 11.8435 44.1317 11.7926C44.1346 11.7421 44.1203 11.6969 44.0979 11.6548C43.6825 9.8076 40.4482 8.08906 39.1217 7.18601C36.1508 5.16221 32.9789 3.35975 29.6639 1.98157C27.9421 1.26583 24.853 0.104787 23.1648 1.55349C22.0249 2.53221 23.0651 4.9555 23.5735 6.01229C23.9588 6.81261 24.5192 7.56153 25.1553 8.21959C23.0087 8.05893 20.8666 7.82237 18.7376 7.52864C14.5449 6.95068 8.57148 6.40897 5.3817 3.25394C4.8291 2.70748 3.42015 2.81611 2.91313 3.39089C1.47896 5.017 0.787734 7.36889 0.415868 9.45814C-0.673332 15.58 1.92229 21.7736 4.98314 26.8575C5.3429 27.4547 6.88922 27.216 7.32829 26.8528C9.52895 25.0304 11.8486 23.3476 14.203 21.7388C17.6671 19.3719 21.8778 16.4424 26.1523 15.4919C25.0726 17.3094 23.528 20.6533 25.2609 21.6481C27.0053 22.6499 29.7257 21.4113 31.3669 20.7273C34.3358 19.49 37.167 17.8127 39.8385 16.011C41.0126 15.2191 43.8631 13.6232 44.1092 11.9362ZM38.5474 14.9427C36.5971 16.3718 34.5034 17.6027 32.3727 18.7266C30.8761 19.5162 29.0535 20.5958 27.3368 20.8514C27.3124 20.784 27.2706 20.6614 27.2173 20.4229C26.999 19.446 27.3953 18.3278 27.732 17.4353C28.087 16.494 28.6139 15.5796 29.1928 14.7603C29.5621 14.2378 28.1106 14.1516 27.9277 14.1658C22.912 14.5602 18.2776 17.2871 14.0848 19.9388C11.5466 21.5437 9.07322 23.2945 6.70179 25.1603C3.56225 19.463 0.625594 10.8117 4.40079 4.86062C7.70557 7.08023 12.3863 7.70304 16.0781 8.2951C19.698 8.87624 23.3786 9.25934 27.0438 9.421C27.343 9.43436 29.2363 9.18502 28.4533 8.57105C26.95 7.39295 24.3675 4.11062 25.3998 2.02273C25.4427 2.03056 25.4905 2.03947 25.551 2.05062C26.0261 2.13715 26.4869 2.30281 26.9424 2.46024C28.1542 2.87982 29.318 3.43754 30.4626 4.0138C32.9305 5.25519 35.3045 6.70484 37.5782 8.27873C38.6191 8.99896 41.3599 10.4906 41.5715 11.9353C41.5063 13.1092 39.3533 14.3519 38.5474 14.9427Z" fill="black"/>
</svg>
