<svg width="31" height="26" viewBox="0 0 31 26" fill="none" xmlns="http://www.w3.org/2000/svg">
<g filter="url(#filter0_d_149_561)">
<path d="M5.27778 18H25.7222C26.425 18 27 17.325 27 16.5C27 15.675 26.425 15 25.7222 15H5.27778C4.575 15 4 15.675 4 16.5C4 17.325 4.575 18 5.27778 18ZM5.27778 10.5H25.7222C26.425 10.5 27 9.825 27 9C27 8.175 26.425 7.5 25.7222 7.5H5.27778C4.575 7.5 4 8.175 4 9C4 9.825 4.575 10.5 5.27778 10.5ZM4 1.5C4 2.325 4.575 3 5.27778 3H25.7222C26.425 3 27 2.325 27 1.5C27 0.675 26.425 0 25.7222 0H5.27778C4.575 0 4 0.675 4 1.5Z" fill="#2B2B2B"/>
</g>
<defs>
<filter id="filter0_d_149_561" x="0" y="0" width="31" height="26" filterUnits="userSpaceOnUse" color-interpolation-filters="sRGB">
<feFlood flood-opacity="0" result="BackgroundImageFix"/>
<feColorMatrix in="SourceAlpha" type="matrix" values="0 0 0 0 0 0 0 0 0 0 0 0 0 0 0 0 0 0 127 0" result="hardAlpha"/>
<feOffset dy="4"/>
<feGaussianBlur stdDeviation="2"/>
<feComposite in2="hardAlpha" operator="out"/>
<feColorMatrix type="matrix" values="0 0 0 0 0 0 0 0 0 0 0 0 0 0 0 0 0 0 0.15 0"/>
<feBlend mode="normal" in2="BackgroundImageFix" result="effect1_dropShadow_149_561"/>
<feBlend mode="normal" in="SourceGraphic" in2="effect1_dropShadow_149_561" result="shape"/>
</filter>
</defs>
</svg>
