<svg width="31" height="31" viewBox="0 0 31 31" fill="none" xmlns="http://www.w3.org/2000/svg">
<g filter="url(#filter0_d_149_558)">
<path fill-rule="evenodd" clip-rule="evenodd" d="M15.5192 13.689L24.3535 22.5232C24.648 22.8077 25.0425 22.9651 25.4519 22.9616C25.8614 22.958 26.2531 22.7938 26.5426 22.5042C26.8321 22.2147 26.9964 21.823 26.9999 21.4135C27.0035 21.0041 26.8461 20.6096 26.5616 20.3151L17.7274 11.4808L26.5616 2.64655C26.8461 2.35202 27.0035 1.95754 26.9999 1.54808C26.9964 1.13862 26.8321 0.74694 26.5426 0.457398C26.2531 0.167855 25.8614 0.00361713 25.4519 5.90345e-05C25.0425 -0.00349906 24.648 0.153906 24.3535 0.438374L15.5192 9.27264L6.68493 0.438374C6.38907 0.160938 5.99689 0.00949063 5.59135 0.0160758C5.18582 0.0226609 4.79875 0.186763 4.51206 0.473658C4.22537 0.760553 4.06154 1.14773 4.05524 1.55327C4.04894 1.95881 4.20067 2.35089 4.47831 2.64655L13.311 11.4808L4.47675 20.3151C4.3276 20.4591 4.20863 20.6314 4.12679 20.822C4.04494 21.0125 4.00186 21.2174 4.00006 21.4248C3.99826 21.6321 4.03777 21.8378 4.11629 22.0297C4.19481 22.2216 4.31077 22.396 4.4574 22.5426C4.60402 22.6892 4.77839 22.8052 4.97031 22.8837C5.16223 22.9622 5.36787 23.0017 5.57522 22.9999C5.78258 22.9981 5.9875 22.9551 6.17802 22.8732C6.36855 22.7914 6.54087 22.6724 6.68493 22.5232L15.5192 13.689Z" fill="#2B2B2B"/>
</g>
<defs>
<filter id="filter0_d_149_558" x="0" y="0" width="31" height="31" filterUnits="userSpaceOnUse" color-interpolation-filters="sRGB">
<feFlood flood-opacity="0" result="BackgroundImageFix"/>
<feColorMatrix in="SourceAlpha" type="matrix" values="0 0 0 0 0 0 0 0 0 0 0 0 0 0 0 0 0 0 127 0" result="hardAlpha"/>
<feOffset dy="4"/>
<feGaussianBlur stdDeviation="2"/>
<feComposite in2="hardAlpha" operator="out"/>
<feColorMatrix type="matrix" values="0 0 0 0 0 0 0 0 0 0 0 0 0 0 0 0 0 0 0.25 0"/>
<feBlend mode="normal" in2="BackgroundImageFix" result="effect1_dropShadow_149_558"/>
<feBlend mode="normal" in="SourceGraphic" in2="effect1_dropShadow_149_558" result="shape"/>
</filter>
</defs>
</svg>
