<svg width="560" height="431" viewBox="0 0 560 431" fill="none" xmlns="http://www.w3.org/2000/svg">
<path d="M559.998 68.3076V79.3794L502.057 149.454L391.772 143.941L265.331 271.66L133.02 246.264L5.54296 352.802L0.50293 348.074L130.794 239.184L262.659 264.495L388.614 137.273L498.464 142.76L559.998 68.3076Z" fill="url(#paint0_linear_76_2986)"/>
<path d="M283.124 264.411C285.412 273.769 278.702 282.998 268.136 285.025C257.57 287.051 247.15 281.107 244.862 271.749C242.575 262.391 249.285 253.162 259.851 251.136C270.417 249.109 280.836 255.053 283.124 264.411Z" fill="white"/>
<path d="M268.913 288.2C256.386 290.603 243.989 283.531 241.276 272.436C238.564 261.34 246.548 250.359 259.075 247.957C271.602 245.555 283.999 252.626 286.712 263.722C289.424 274.817 281.44 285.798 268.913 288.2ZM260.628 254.311C252.058 255.955 246.594 263.468 248.45 271.06C250.306 278.651 258.789 283.49 267.36 281.846C275.93 280.203 281.394 272.689 279.538 265.098C277.682 257.506 269.199 252.667 260.628 254.311Z" fill="#83BEFF"/>
<path d="M409.289 138.035C411.577 147.393 404.866 156.622 394.301 158.649C383.735 160.675 373.315 154.731 371.028 145.373C368.74 136.015 375.45 126.786 386.016 124.76C396.582 122.733 407.001 128.677 409.289 138.035Z" fill="white"/>
<path d="M395.075 161.828C382.549 164.23 370.151 157.159 367.438 146.064C364.726 134.968 372.71 123.987 385.237 121.585C397.764 119.182 410.162 126.254 412.874 137.35C415.586 148.445 407.602 159.426 395.075 161.828ZM386.791 127.939C378.219 129.583 372.757 137.096 374.612 144.688C376.468 152.279 384.951 157.118 393.522 155.474C402.093 153.831 407.556 146.317 405.7 138.726C403.844 131.134 395.362 126.295 386.791 127.939Z" fill="#B8DAFF"/>
<path d="M518.336 141.903C520.624 151.262 513.914 160.49 503.347 162.517C492.782 164.543 482.362 158.599 480.074 149.241C477.787 139.883 484.497 130.654 495.063 128.628C505.629 126.602 516.048 132.545 518.336 141.903Z" fill="white"/>
<path d="M504.122 165.696C491.595 168.098 479.198 161.026 476.485 149.931C473.773 138.835 481.757 127.855 494.284 125.452C506.811 123.05 519.208 130.121 521.921 141.217C524.633 152.312 516.649 163.293 504.122 165.696ZM495.837 131.806C487.266 133.45 481.803 140.963 483.659 148.555C485.514 156.146 493.997 160.985 502.568 159.341C511.139 157.698 516.603 150.184 514.747 142.593C512.891 135.002 504.408 130.163 495.837 131.806Z" fill="#CDE5FF"/>
<path d="M150.933 240.662C153.221 250.02 146.51 259.249 135.944 261.276C125.379 263.302 114.959 257.358 112.671 248C110.383 238.642 117.094 229.413 127.66 227.387C138.226 225.36 148.645 231.304 150.933 240.662Z" fill="white"/>
<path d="M136.721 264.453C124.194 266.856 111.797 259.784 109.084 248.688C106.371 237.593 114.356 226.613 126.883 224.21C139.41 221.808 151.807 228.879 154.52 239.975C157.233 251.07 149.248 262.051 136.721 264.453ZM128.436 230.564C119.865 232.208 114.402 239.721 116.258 247.313C118.114 254.904 126.597 259.743 135.168 258.099C143.738 256.455 149.202 248.942 147.346 241.35C145.49 233.759 137.007 228.921 128.436 230.564Z" fill="#6BB1FF"/>
<path d="M248.092 168.521H189.59V178.499H248.092V168.521Z" fill="#E0E0E0"/>
<path d="M414.319 266.887H358.471V276.412H414.319V266.887Z" fill="#E0E0E0"/>
<path d="M486.198 74.3135H434.633V83.1083H486.198V74.3135Z" fill="#E0E0E0"/>
<path d="M442.406 117.465C439.287 114.748 434.729 111.814 428.806 108.624C422.235 105.086 415.253 102.108 408.314 99.3338C400.228 96.1016 391.637 93.512 383.032 91.3267C373.857 88.9966 364.449 87.3704 354.956 86.4693C355.111 115.623 355.269 144.777 355.428 173.931C359.327 174.621 361.277 174.962 365.181 175.636C382.109 179.062 398.895 182.834 415.517 187.261C428.911 190.829 442.246 195.655 454.049 202.231C463.951 207.747 473.158 215.14 479.316 224.103C486.222 234.156 489.095 245.327 489.745 256.461C490.463 268.754 488.464 282.229 481.592 293.67C475.175 304.352 465.588 314.056 454.528 321.186C441.804 329.387 427.389 335.48 412.74 339.673C396.108 344.433 378.551 347.022 360.776 348.58C360.883 363.342 360.991 378.103 361.099 392.865C351.485 393.529 341.869 394.165 332.25 394.774C332.291 379.589 332.332 364.403 332.375 349.218C306.945 348.737 281.775 346.052 257.837 339.624C235.179 333.54 214.048 323.941 194.483 311.436C204.294 297.336 214.055 283.21 223.764 269.054C228.592 273.645 234.555 277.226 240.351 280.571C248.367 285.198 257.381 288.996 266.168 292.23C276.652 296.089 287.839 299.149 298.946 301.621C311.002 304.303 323.702 305.926 336.26 306.506C336.303 277.161 336.348 247.816 336.395 218.471C334.312 217.92 332.139 217.431 329.888 217.016C327.628 216.598 325.466 216.111 323.388 215.541C307.203 211.914 290.823 208.044 275.548 202.478C263.61 198.128 252.225 192.804 242.221 185.281C233.856 178.991 227.235 170.702 222.891 161.802C217.964 151.71 217.012 140.276 217.476 129.8C218.044 117.003 220.831 103.417 227.711 91.8514C234.012 81.2597 242.194 71.983 252.539 64.7252C263.065 57.3401 275.424 52.2142 288.56 48.5306C302.832 44.5287 318.186 43.4468 333.286 43.0222C333.332 28.6815 333.378 14.3407 333.425 0C341.728 0.631558 350.034 1.23051 358.343 1.7966C358.439 16.0028 358.535 30.209 358.632 44.4152C378.851 46.8116 398.748 50.6995 417.512 57.6004C434.371 63.8005 450.843 71.0303 466.159 80.0747C458.287 92.5613 450.362 105.021 442.406 117.465ZM276.663 124.928C276.388 135.328 281.038 146.462 290.99 152.774C304.455 161.314 320.723 165.655 336.474 169.558C336.521 141.626 336.569 113.693 336.619 85.7615C321.223 86.1443 304.434 87.1538 291.813 95.9304C281.947 102.792 276.947 114.212 276.663 124.928ZM426.466 264.977C426.118 253.695 418.583 243.304 407.237 238.249C391.212 231.109 373.278 226.487 355.696 222.517C355.85 250.398 356.007 278.279 356.164 306.16C374.329 304.844 393.308 302.208 408.871 293.615C419.865 287.543 426.822 276.509 426.466 264.977Z" fill="url(#paint1_linear_76_2986)"/>
<path d="M250.867 339.365C252.247 344.666 252.008 356.979 252.008 356.979C252.384 368.659 250.913 380.653 250.538 387.351C250.527 387.558 250.512 387.765 250.502 387.976C250.406 389.557 250.289 391.233 250.157 392.931H348.806C348.771 391.322 348.735 389.665 348.704 387.976C348.507 378.088 348.329 367.257 348.314 359.526C370.858 354.252 395.204 347.37 394.747 342.339C394.28 337.16 376.716 260.899 371.807 257.786C368.459 255.656 347.436 248.195 336.531 244.529C331.49 242.827 327.646 241.64 326.859 241.6C324.364 241.461 293.613 244.071 293.613 244.071C293.613 244.071 289.2 245.41 284.697 247.243C277.003 250.369 265.013 255.257 256.405 258.886C253.626 260.054 250.152 261.64 247.261 262.997C247.611 272.251 248.23 282.174 249.117 292.785C249.117 292.785 250.715 315.96 250.867 339.365ZM348.607 348.188C349.82 333.668 354.765 308.728 355.313 306.962C355.328 306.962 357.631 308.908 357.646 308.908C357.646 308.899 358.407 309.002 358.417 308.993C358.427 308.966 359.117 309.226 359.117 309.226C359.117 309.226 374.043 327.694 374.206 337.622C374.287 342.357 362.626 345.748 348.607 348.188Z" fill="#DBD8E3"/>
<path d="M246.496 392.931H259.419C259.714 391.319 260.033 389.666 260.368 387.977C262.559 377.047 265.439 364.697 266.976 352.573V352.568C269.817 330.103 273.727 308.091 275.837 295.013C281.329 260.967 288.654 245.733 288.654 245.733C285.154 246.659 246.542 262.822 246.542 262.822C246.887 272.233 247.404 282.332 248.307 293.136C248.307 293.136 249.158 319.532 250.873 344.568C251.456 348.153 251.75 351.818 251.426 355.569C250.995 360.466 250.396 365.812 249.676 371.387C249.666 371.463 249.66 371.535 249.65 371.598C249.478 372.923 249.295 374.252 249.118 375.6C249.118 375.623 249.108 375.637 249.108 375.659C248.555 379.706 247.941 383.839 247.292 387.977C247.034 389.629 246.77 391.283 246.496 392.931Z" fill="#323657"/>
<path d="M283.453 355.267C286.389 361.403 296.508 376.556 296.508 376.556C296.508 376.556 303.832 374.965 314.604 372.495C315.315 377.908 316.03 383.002 316.714 387.975C316.942 389.637 317.171 391.286 317.389 392.93H355.818C355.362 391.264 354.926 389.61 354.515 387.975C352.166 378.757 350.518 370.181 350.28 363.924C376.051 357.405 401.308 350.101 400.918 346.606C400.335 341.435 380.98 261.486 376.07 258.374C373.24 256.572 352.233 249.977 341.926 246.379C340.044 245.719 333.613 243.58 331.924 243.01C329.739 245.166 314.67 259.896 309.345 315.546C308.685 322.469 310.054 335.101 311.576 347.76C295.975 351.449 282.95 354.22 283.453 355.267ZM353.724 335.407C355.276 324.32 357.036 313.166 358.308 309.262C358.308 309.262 362.655 317.029 362.315 328.421C362.25 330.721 358.942 333.08 353.724 335.407Z" fill="#323657"/>
<path d="M328.472 242.472C328.472 242.472 324.562 235.927 325.642 217.342C325.941 212.194 295.108 229.552 295.108 229.552C295.108 229.552 295.215 231.326 295.282 233.721C295.317 234.718 295.337 235.81 295.337 236.933C295.337 237.243 295.332 237.553 295.332 237.863C295.327 238.37 295.322 238.874 295.312 239.376C295.296 240.001 295.271 240.612 295.235 241.2C295.2 241.869 295.149 242.503 295.078 243.082C294.951 244.205 294.206 246.187 293.937 246.73C292.522 249.619 316.928 249.785 328.472 242.472Z" fill="#EEA987"/>
<path d="M302.623 254.291L296.94 261.053C296.94 261.053 300.269 265.001 306.182 262.086L302.623 254.291Z" fill="#4488D4"/>
<path d="M298.462 261.328C298.462 261.328 277.643 306.362 282.086 363.567L288.651 374.121L296.055 365.133C296.055 365.133 297.249 289.159 303.158 261.147L298.462 261.328Z" fill="#4488D4"/>
<path d="M296.539 247.987L302.623 254.291C302.623 254.291 312.388 252.616 315.254 248.098C318.121 243.581 296.539 247.987 296.539 247.987Z" fill="#EEA987"/>
<path d="M295.144 242.47C295.144 242.47 295.85 247.275 302.624 254.291L295.23 263.089L291.229 244.839L295.144 242.47Z" fill="#C4C1CC"/>
<path d="M326.614 236.689C326.614 236.689 312.496 250.834 302.623 254.291L307.215 264.35L329.746 242.335L326.614 236.689Z" fill="#C4C1CC"/>
<path d="M181.473 364.655C181.473 364.655 200.213 348.558 212.504 345.879C218.186 344.642 225.67 337.694 232.782 329.527C235.126 326.837 237.426 324.014 239.613 321.221C239.619 321.215 239.619 321.209 239.619 321.209C248.344 310.051 255.182 299.356 255.182 299.356C255.182 299.356 280.972 272.586 260.276 260.653C260.276 260.653 251.406 260.483 246.542 262.823C241.539 265.229 230.868 284.953 229.059 288.447C227.251 291.935 207.652 324.378 206.339 325.107C205.026 325.836 202.84 328.503 194.998 332.243C185.397 336.822 170.314 350.222 170.314 350.222L181.473 364.655Z" fill="#323657"/>
<path d="M271.43 383.286C271.43 383.286 274.048 383.193 275.17 382.658C275.17 382.658 277.128 381.545 278.573 380.828C279.033 380.602 279.439 380.414 279.716 380.317C280.871 379.911 283.545 379.326 286.011 377.66C288.475 375.997 296.509 369.34 296.509 369.34L291.317 362.271L288.919 355.27C288.919 355.27 270.19 356.919 267.691 358.234C267.447 358.364 267.212 358.5 267.002 358.643C265.009 359.938 264.14 361.644 263.18 362.428C262.831 362.719 259.568 365.812 259.751 367.066C260.001 368.807 260.973 369.925 262.193 370.453C262.193 370.453 262.854 373.844 264.833 375.359C264.833 375.359 265.329 378.504 268.396 379.769C268.396 379.769 269.304 382.91 271.43 383.286Z" fill="#EFAA88"/>
<path d="M301.253 169.395C301.253 169.395 267.398 162.167 274.53 200.13C281.662 238.094 289.781 241.176 310.404 233.607C331.026 226.038 329.593 201.755 330.822 189.874C332.051 177.992 312.082 169.949 301.253 169.395Z" fill="#EEA886"/>
<path d="M319.039 195.686C319.542 192.352 327.017 191.224 327.534 196.24C328.051 201.256 323.918 209.994 321.103 209.092C318.289 208.191 318.346 200.284 319.039 195.686Z" fill="#EEA886"/>
<path d="M328.845 209.281C328.845 209.281 328.166 197.34 323.253 196.904C318.34 196.467 317.504 201.262 317.504 201.262L312.522 202.028C312.522 202.028 314.265 191.592 309.383 189.702C304.501 187.811 277.461 195.044 273.569 191.924C269.677 188.804 271.884 167.618 279.063 164.809C286.242 161.999 306.044 155.751 320.33 164.589C320.33 164.589 331.597 163.599 333.132 171.661C334.667 179.722 332.002 203.342 328.845 209.281Z" fill="#16202E"/>
<path d="M282.53 355.269L296.508 376.555C296.508 376.555 333.539 368.104 342.179 365.946L322.428 345.124C322.428 345.124 293.308 351.017 282.53 355.269Z" fill="#323657"/>
<path d="M295.235 241.2H295.241C313.398 239.56 320.438 227.18 320.438 227.18C309.016 237.207 295.315 236.912 295.315 236.912C295.315 237.223 295.332 237.552 295.332 237.862C295.327 238.37 295.322 238.873 295.312 239.376C295.296 240.001 295.271 240.612 295.235 241.2Z" fill="#A77860"/>
<path d="M268.759 308.666L278.634 389.988H148.651L138.775 308.666H268.759Z" fill="#EDEDED"/>
<path d="M288.978 382.672H267.269V389.988H288.978V382.672Z" fill="#EDEDED"/>
<path d="M379.875 389.819H26.5879V394.774H379.875V389.819Z" fill="url(#paint2_linear_76_2986)"/>
<path d="M190.237 124.861H167.671C166.77 124.861 166.039 124.019 166.039 122.981C166.039 121.942 166.77 121.101 167.671 121.101H190.237C191.138 121.101 191.869 121.942 191.869 122.981C191.869 124.019 191.138 124.861 190.237 124.861Z" fill="#7DC6FF"/>
<path d="M181.078 112.987V132.974C181.078 133.772 180.127 134.42 178.955 134.42C177.782 134.42 176.832 133.772 176.832 132.974V112.987C176.832 112.189 177.782 111.542 178.955 111.542C180.127 111.542 181.078 112.189 181.078 112.987Z" fill="#7DC6FF"/>
<path d="M417.821 15.7945H394.308C393.37 15.7945 392.608 14.9172 392.608 13.8353C392.608 12.7532 393.37 11.876 394.308 11.876H417.821C418.76 11.876 419.521 12.7532 419.521 13.8353C419.521 14.9172 418.76 15.7945 417.821 15.7945Z" fill="#7DC6FF"/>
<path d="M417.821 25.6008H394.308C393.37 25.6008 392.608 24.7239 392.608 23.6417C392.608 22.5596 393.37 21.6826 394.308 21.6826H417.821C418.76 21.6826 419.521 22.5596 419.521 23.6417C419.521 24.7239 418.76 25.6008 417.821 25.6008Z" fill="#7DC6FF"/>
<path d="M523 217.64H507.956C507.355 217.64 506.868 217.079 506.868 216.386C506.868 215.694 507.355 215.133 507.956 215.133H523C523.601 215.133 524.087 215.694 524.087 216.386C524.087 217.079 523.601 217.64 523 217.64Z" fill="#7DC6FF"/>
<path d="M208.257 219.133C207.641 219.133 207.07 219.039 206.542 218.852C206.014 218.665 205.557 218.412 205.17 218.092C204.782 217.773 204.474 217.399 204.246 216.97C204.017 216.542 203.902 216.079 203.902 215.58C203.902 215.097 204.017 214.637 204.246 214.2C204.474 213.765 204.782 213.39 205.17 213.079C205.557 212.767 206.014 212.518 206.542 212.33C207.07 212.143 207.641 212.05 208.257 212.05C208.855 212.05 209.422 212.143 209.96 212.33C210.496 212.518 210.958 212.767 211.345 213.079C211.732 213.39 212.04 213.765 212.269 214.2C212.497 214.637 212.612 215.097 212.612 215.58C212.612 216.079 212.498 216.542 212.269 216.97C212.04 217.399 211.732 217.773 211.345 218.092C210.958 218.412 210.496 218.665 209.96 218.852C209.423 219.039 208.855 219.133 208.257 219.133ZM205.381 227.782L212.824 220.091L219.686 212.097L221.296 213.359L214.091 220.909L206.991 229.044L205.381 227.782ZM208.257 217.567C208.521 217.567 208.763 217.512 208.983 217.403C209.203 217.294 209.401 217.15 209.577 216.97C209.753 216.791 209.889 216.581 209.986 216.339C210.082 216.098 210.131 215.845 210.131 215.579C210.131 215.034 209.946 214.571 209.577 214.189C209.208 213.807 208.768 213.616 208.257 213.616C207.994 213.616 207.751 213.671 207.532 213.779C207.311 213.889 207.114 214.033 206.938 214.212C206.762 214.391 206.625 214.598 206.529 214.831C206.432 215.065 206.384 215.315 206.384 215.579C206.384 216.125 206.568 216.592 206.938 216.982C207.307 217.372 207.747 217.567 208.257 217.567ZM218.445 229.114C217.829 229.114 217.257 229.021 216.729 228.834C216.202 228.647 215.744 228.398 215.357 228.086C214.97 227.774 214.662 227.404 214.433 226.976C214.204 226.547 214.09 226.083 214.09 225.585C214.09 225.086 214.204 224.623 214.433 224.194C214.662 223.765 214.97 223.391 215.357 223.072C215.744 222.753 216.202 222.499 216.729 222.312C217.257 222.125 217.829 222.031 218.445 222.031C219.06 222.031 219.633 222.125 220.16 222.312C220.688 222.499 221.15 222.753 221.546 223.072C221.942 223.391 222.25 223.765 222.47 224.194C222.69 224.623 222.8 225.086 222.8 225.585C222.8 226.083 222.69 226.547 222.47 226.976C222.25 227.404 221.942 227.774 221.546 228.086C221.15 228.398 220.688 228.647 220.16 228.834C219.633 229.021 219.06 229.114 218.445 229.114ZM218.445 227.548C218.709 227.548 218.951 227.494 219.171 227.384C219.391 227.276 219.589 227.131 219.765 226.952C219.94 226.773 220.077 226.566 220.174 226.333C220.27 226.098 220.319 225.85 220.319 225.584C220.319 225.304 220.266 225.043 220.16 224.801C220.055 224.56 219.918 224.349 219.751 224.17C219.584 223.991 219.386 223.851 219.158 223.749C218.929 223.648 218.691 223.597 218.445 223.597C218.181 223.597 217.939 223.652 217.719 223.761C217.499 223.87 217.301 224.014 217.125 224.193C216.949 224.373 216.813 224.583 216.716 224.825C216.619 225.067 216.571 225.32 216.571 225.584C216.571 226.13 216.756 226.594 217.125 226.975C217.494 227.358 217.934 227.548 218.445 227.548Z" fill="#7DC6FF"/>
<path d="M167.239 320.803H10.8482C4.85683 320.803 0 316.501 0 311.195V185.975C0 180.668 4.85683 176.366 10.8482 176.366H167.239C173.23 176.366 178.087 180.668 178.087 185.975V311.195C178.087 316.501 173.23 320.803 167.239 320.803Z" fill="#F5F5F5"/>
<path d="M66.0016 220.119C69.6098 211.181 66.3529 201.547 58.6462 195.741C56.8096 194.356 54.7204 193.19 52.4102 192.301C51.9009 192.105 51.3789 191.923 50.8484 191.755C45.5159 190.066 39.964 190.075 34.946 191.466C27.7056 193.474 21.5772 198.36 18.825 205.175C17.9165 207.425 17.4435 209.718 17.3667 211.983C17.0493 221.339 23.4905 230.217 33.9773 233.538C47.0046 237.665 61.3419 231.657 66.0016 220.119ZM36.0877 228.31C28.2251 225.819 23.3954 219.163 23.6343 212.149C23.6928 210.451 24.0473 208.731 24.7285 207.045C26.7911 201.935 31.3862 198.272 36.8153 196.767C40.5765 195.724 44.7391 195.717 48.7371 196.984C49.1351 197.11 49.5261 197.247 49.9081 197.394C51.6406 198.059 53.2073 198.934 54.5841 199.972C60.3616 204.325 62.8039 211.548 60.0975 218.249C56.6039 226.899 45.8551 231.404 36.0877 228.31Z" fill="#78C3FF"/>
<path d="M36.8155 196.768L34.9465 191.467C27.7061 193.474 21.5777 198.361 18.8255 205.176C17.917 207.426 17.444 209.719 17.3672 211.984L23.6348 212.15C23.6933 210.452 24.0478 208.732 24.729 207.046C26.7914 201.936 31.3862 198.273 36.8155 196.768Z" fill="#1173C2"/>
<path d="M49.9062 197.394L52.4086 192.301C51.8993 192.105 51.3773 191.923 50.8468 191.755C45.5143 190.066 39.9624 190.075 34.9443 191.466L36.8133 196.767C40.5745 195.724 44.7372 195.717 48.7352 196.984C49.1332 197.11 49.5242 197.247 49.9062 197.394Z" fill="#1487E3"/>
<path d="M58.6456 195.741C56.809 194.356 54.7198 193.191 52.4096 192.302L49.9072 197.394C51.6397 198.059 53.2064 198.934 54.5832 199.972L58.6456 195.741Z" fill="#4AAFFF"/>
<path d="M145.734 265.161H137.04V291.536H145.734V265.161Z" fill="#4AAFFF"/>
<path d="M132.81 272.557H124.116V291.535H132.81V272.557Z" fill="#4AAFFF"/>
<path d="M158.272 252.936H149.578V291.536H158.272V252.936Z" fill="#4AAFFF"/>
<path d="M156.869 233.654L156.716 232.821L133.773 236.149L126.335 250.189L101.599 251.677L93.586 262.146L74.6751 261.73L74.6514 262.574L94.0826 263.001L102.127 252.491L126.959 250.998L134.422 236.91L156.869 233.654Z" fill="#4AAFFF"/>
<path d="M128.832 198.509H153.555C155.116 198.509 156.382 197.388 156.382 196.006C156.382 194.623 155.116 193.503 153.555 193.503H128.832C127.271 193.503 126.006 194.623 126.006 196.006C126.006 197.388 127.271 198.509 128.832 198.509Z" fill="#1487E3"/>
<path d="M128.832 207.242H153.555C155.116 207.242 156.382 206.121 156.382 204.739C156.382 203.356 155.116 202.235 153.555 202.235H128.832C127.271 202.235 126.006 203.356 126.006 204.739C126.006 206.121 127.271 207.242 128.832 207.242Z" fill="#4AAFFF"/>
<path d="M128.832 215.975H153.555C155.116 215.975 156.382 214.854 156.382 213.472C156.382 212.089 155.116 210.969 153.555 210.969H128.832C127.271 210.969 126.006 212.089 126.006 213.472C126.006 214.854 127.271 215.975 128.832 215.975Z" fill="#4AAFFF"/>
<path d="M84.08 202.838H69.9385V202.358H83.8554L91.3004 195.763H100.419V196.244H91.5253L84.08 202.838Z" fill="#4AAFFF"/>
<path d="M97.4809 224.716H79.2833L73.3867 219.493L73.7705 219.153L79.5082 224.235H97.4809V224.716Z" fill="#4AAFFF"/>
<path d="M111.507 198.945H92.6445V200.995H111.507V198.945Z" fill="#1487E3"/>
<path d="M102.075 219.848H86.8906V221.899H102.075V219.848Z" fill="#1487E3"/>
<path d="M66.9953 429.839H68.5029C68.5029 429.839 68.0005 424.795 69.3962 424.746C70.7907 424.696 74.2516 428.849 76.3177 429.492C78.383 430.135 88.988 430.678 89.0439 428.948C89.0998 427.218 84.9697 426.525 83.6862 426.032C82.4021 425.537 76.1499 420.148 75.0339 419.506C73.9168 418.862 72.0122 414.394 72.0122 414.394L66.0915 414.161C66.0915 414.161 65.757 418.338 65.3982 420.549C65.2646 421.368 65.1677 422.113 65.1535 422.62C65.0982 424.499 66.9953 429.839 66.9953 429.839Z" fill="#EEA886"/>
<path d="M40.8011 428.841H42.0576V424.147C43.1034 424.225 46.6214 427.173 47.7101 428.026C48.7974 428.879 50.2904 428.841 54.876 429.099C59.4595 429.357 59.8923 426.927 59.167 426.099C58.4415 425.271 56.0963 424.909 54.876 424.393C53.6554 423.875 48.8403 419.066 47.5556 417.928C46.2727 416.79 45.4901 413.532 45.4901 413.532L40.1318 413.946C40.1318 413.946 40.1663 416.927 39.5555 419.428V419.429C39.5529 419.434 39.5515 419.442 39.5501 419.448C39.4982 419.661 39.4411 419.87 39.3784 420.073C38.5825 422.673 40.8011 428.841 40.8011 428.841Z" fill="#EEA886"/>
<path d="M60.6139 322.447C60.6139 322.447 62.6391 326.688 62.818 327.759C62.9965 328.831 69.3459 342.832 69.7879 346.929C70.2346 351.071 71.5751 362.125 72.0519 363.708C72.5282 365.291 70.9795 372.361 70.7409 373.944C70.503 375.527 70.6218 401.382 72.7665 414.151C72.7665 414.151 67.7623 416.05 63.9496 414.151C63.9496 414.151 57.635 394.206 57.9924 382.703C58.3495 371.2 59.9971 366.346 57.982 361.703C55.9669 357.06 44.1714 343.13 42.9801 341.653C41.7888 340.175 34.3244 332.01 41.3923 323.166C48.461 314.321 60.6139 322.447 60.6139 322.447Z" fill="#1D3B54"/>
<path d="M35.0991 360.017C35.7457 363.825 35.066 368.827 33.7156 382.751C32.3637 396.674 36.0791 413.532 36.0791 413.532C40.7452 414.947 46.1186 413.532 46.1186 413.532C45.9951 412.553 46.1186 379.596 46.1186 376.659C46.1186 373.722 47.0708 370.389 47.316 367.018C47.4835 364.721 48.6899 360.485 50.0479 356.161C50.4549 354.866 50.8751 353.564 51.2838 352.303C51.2838 352.301 51.2838 352.301 51.2838 352.301C51.5143 351.595 51.7389 350.9 51.9581 350.228C53.8702 344.354 56.4419 321.673 56.4419 321.673C56.4419 321.673 42.1896 311.506 35.2507 321.078C28.3112 330.649 31.8741 337.61 32.1188 338.807C32.3634 340.004 34.4524 356.211 35.0991 360.017Z" fill="#1D3B54"/>
<path d="M41.0088 339.562C41.1195 339.779 48.2207 353.74 50.0483 356.161C50.4553 354.866 50.8755 353.564 51.2842 352.303C51.2842 352.301 51.2842 352.301 51.2842 352.301C51.2842 352.301 41.2468 339.868 41.0088 339.562Z" fill="#122536"/>
<path d="M40.8002 428.842H42.0568V424.148C43.1026 424.225 46.6206 427.174 47.7093 428.027C48.7966 428.879 50.2896 428.842 54.8752 429.1C59.4587 429.358 59.8915 426.927 59.1662 426.099C58.4407 425.272 56.0955 424.91 54.8752 424.394C49.9705 424.626 43.9858 418.519 41.113 418.531C39.5866 418.538 39.6011 419.287 39.5544 419.428V419.43C39.5518 419.435 39.5504 419.443 39.5489 419.448C39.497 419.662 39.44 419.871 39.3774 420.074C38.5817 422.674 40.8002 428.842 40.8002 428.842Z" fill="#132738"/>
<path d="M66.995 429.839H68.5025C68.5025 429.839 68.0002 424.796 69.3959 424.746C70.7904 424.697 74.2513 428.849 76.3174 429.493C78.3827 430.135 88.9877 430.678 89.0436 428.949C89.0995 427.219 84.9694 426.526 83.6859 426.032C79.3113 426.023 72.1976 421.759 69.9913 420.894C67.7863 420.03 65.3982 420.549 65.3982 420.549C65.2646 421.368 65.1677 422.113 65.1535 422.62C65.0979 424.499 66.995 429.839 66.995 429.839Z" fill="#132738"/>
<path d="M68.8926 344.985V339.429C68.8926 338.535 69.7146 337.807 70.7245 337.807H80.6706C81.6805 337.807 82.5026 338.535 82.5026 339.429V344.985C82.5026 345.879 81.6805 346.607 80.6706 346.607H70.7245C69.7143 346.607 68.8926 345.879 68.8926 344.985ZM70.7245 338.895C70.3923 338.895 70.1219 339.135 70.1219 339.429V344.985C70.1219 345.279 70.3923 345.518 70.7245 345.518H80.6706C81.0028 345.518 81.2733 345.279 81.2733 344.985V339.429C81.2733 339.135 81.0028 338.895 80.6706 338.895H70.7245Z" fill="#877C78"/>
<path d="M57.0385 367.901H94.3545V344.221H57.0385V367.901Z" fill="#CFBEB8"/>
<path d="M29.6094 332.732L35.6526 331.443C35.6526 331.443 34.601 312.563 30.9694 304.567C30.9378 304.497 30.8039 304.593 30.7245 304.605C30.7596 304.425 30.7966 304.245 30.834 304.064C30.9111 303.689 30.9903 303.313 31.0717 302.942C31.9946 298.688 33.0599 294.972 33.0599 294.972C33.0599 294.972 40.6817 277.982 31.412 279.31C31.412 279.31 26.6152 281.692 25.5734 287.126C24.5314 292.558 23.472 300.56 23.6606 303.752C23.8493 306.942 24.8737 310.755 25.7838 314.579C25.7838 314.579 29.3668 331.586 29.6094 332.732Z" fill="#97A43C"/>
<path d="M48.0319 269.204C48.0319 269.204 45.7577 274.533 47.5267 278.652C47.5267 278.652 39.1878 278.171 38.8721 277.309C38.5562 276.447 39.2072 268.462 38.0605 266.103C36.9136 263.742 48.0319 269.204 48.0319 269.204Z" fill="#EEA886"/>
<path d="M48.8373 276.849C48.8373 276.849 53.7646 278.402 55.9916 278.833C58.2183 279.264 62.8772 281.218 62.498 288.577C62.1189 295.934 60.7293 302.316 60.2238 305.477C59.7186 308.639 60.0342 316.687 60.8557 320.596C60.8557 320.596 49.0426 323.24 35.1448 320.596C35.1448 320.596 37.6086 313.927 37.5454 312.203C37.4819 310.479 29.3331 296.28 28.9537 294.038C28.5746 291.796 26.9322 281.908 30.6595 279.724C34.3865 277.539 37.4187 277.827 38.9981 276.85C40.5776 275.872 46.5324 276.148 48.8373 276.849Z" fill="#97A43C"/>
<path d="M29.8236 332.159C50.0061 336.902 66.0671 332.178 66.0671 332.178C64.6025 329.511 63.5251 326.851 62.7451 324.275C62.7451 324.274 62.7439 324.274 62.7439 324.273C62.1917 322.454 61.7888 320.677 61.5013 318.971V318.97C59.861 309.231 62.0001 301.774 62.0001 301.774C59.6706 284.792 30.6595 279.724 28.3357 285.107C26.0122 290.49 32.8384 313.623 33.1845 315.607C33.5303 317.59 29.8236 332.159 29.8236 332.159Z" fill="#97A43C"/>
<path d="M40.7623 247.822C44.1145 246.804 53.1757 245.72 55.4969 258.039C57.8181 270.358 52.7621 270.569 47.5684 270.219C42.3745 269.869 34.25 261.553 33.6277 259.026C33.0054 256.498 31.1973 250.728 40.7623 247.822Z" fill="#EEA886"/>
<path d="M53.6319 252.554C53.6319 252.554 50.864 257.798 47.2332 259.626C47.2332 259.626 44.959 265.199 40.0335 267.453C40.0335 267.453 26.9629 259.784 34.5473 250.671C42.1317 241.558 52.7762 248.815 53.6319 252.554Z" fill="#FCCCA2"/>
<path d="M47.5522 257.809C47.258 257.168 45.2995 256.126 44.4206 257.884C43.5418 259.643 46.6969 262.74 47.5609 262.573C48.4253 262.406 48.6682 260.241 47.5522 257.809Z" fill="#EEA886"/>
<path d="M34.9887 252.079C34.7029 251.684 26.0478 248.135 24.2472 255.551C22.4469 262.966 31.218 271.589 32.7548 275.297C34.2917 279.005 32.0603 287.695 32.0603 287.695C32.0603 287.695 37.3383 283.277 38.9346 278.651C40.6877 273.573 41.2766 260.765 34.9887 252.079Z" fill="#FCCCA2"/>
<path d="M34.5518 251.825C34.5518 251.825 37.2013 253.682 37.5428 256.611C37.5428 256.611 38.0402 254.326 36.9718 252.93C35.9037 251.534 34.5518 251.825 34.5518 251.825Z" fill="#285173"/>
<path d="M80.3035 335.05C80.3035 335.05 80.7334 336.621 81.0001 337.417C81.2668 338.214 81.4303 339.185 80.8007 339.605C80.1711 340.025 78.8152 341.465 77.9007 342.124C76.9862 342.782 71.7951 340.79 71.2174 340.006C70.64 339.222 71.7725 334.831 73.3545 333.954C74.9368 333.077 77.3178 331.845 77.3178 331.845L80.3035 335.05Z" fill="#EEA886"/>
<path d="M57.3841 279.236C57.3841 279.236 64.2955 281.662 64.7048 290.17C65.1138 298.678 65.4892 303.12 65.8645 304.433C66.2396 305.746 66.9564 311.024 68.6958 314.2C70.3831 317.282 77.6287 332.238 77.6287 332.238L71.3249 335.473C71.3249 335.473 60.6598 317.775 59.7219 315.267C58.7842 312.758 54.9247 295.299 54.6172 292.356C54.369 289.983 50.8363 279.413 57.3841 279.236Z" fill="#97A43C"/>
<path d="M57.666 307.741C57.666 307.741 61.291 308.365 65.5539 306.215C65.5539 306.215 67.478 311.921 68.6962 314.2C69.789 316.243 77.6291 332.238 77.6291 332.238L71.3253 335.473C71.3253 335.473 60.6408 318.38 59.7223 315.266C58.8037 312.153 57.666 307.741 57.666 307.741Z" fill="#97A43C"/>
<path d="M62.744 324.273C62.1918 322.453 61.7889 320.677 61.5014 318.97V318.969C61.5014 318.969 60.1715 316.463 59.7225 315.266C59.2724 314.069 55.9323 299.347 55.9323 299.347C55.9323 299.347 52.3966 313.173 62.744 324.273Z" fill="#656E28"/>
<path d="M29.1689 298.792C29.1689 298.792 33.1646 315.101 33.1843 315.607C33.2037 316.113 32.0562 322.774 31.7136 324.273L29.1689 298.792Z" fill="#656E28"/>
<path d="M394.024 418.55L389.719 322.83H464.173L468.479 418.58L469.334 418.55L464.995 322.072H388.828L393.168 418.58L394.024 418.55Z" fill="url(#paint3_linear_76_2986)"/>
<path d="M390.503 322.83H464.957L460.652 418.55L461.507 418.58L465.847 322.072H389.681L385.342 418.55L386.197 418.58L390.503 322.83Z" fill="url(#paint4_linear_76_2986)"/>
<path d="M461.08 387.438H385.77L390.092 291.324H465.403L461.08 387.438Z" fill="#C26C23"/>
<path d="M395.718 387.438H471.029L466.706 291.324H391.396L395.718 387.438Z" fill="url(#paint5_linear_76_2986)"/>
<path d="M458.905 350.237H455.119V375.753H458.905V350.237Z" fill="#E3F2FF"/>
<path d="M451.428 353.098H447.643V375.753H451.428V353.098Z" fill="#E3F2FF"/>
<path d="M443.301 356.818H439.516V375.755H443.301V356.818Z" fill="#E3F2FF"/>
<path d="M434.959 361.505H431.174V375.751H434.959V361.505Z" fill="#E3F2FF"/>
<path d="M408.586 358.483L407.766 358.224L414.904 340.488L430.383 336.862L435.946 317.395L447.892 312.725L450.567 297.589L451.427 297.708L448.678 313.261L436.686 317.949L431.101 337.491L415.57 341.13L408.586 358.483Z" fill="#E3F2FF"/>
<path d="M432.541 335.875C433.353 336.755 433.206 338.052 432.213 338.771C431.22 339.489 429.756 339.359 428.944 338.479C428.132 337.6 428.28 336.303 429.273 335.585C430.266 334.866 431.73 334.996 432.541 335.875Z" fill="#FFB255"/>
<path d="M432.488 339.069C431.311 339.922 429.57 339.767 428.607 338.724C427.644 337.68 427.819 336.139 428.997 335.286C430.175 334.433 431.916 334.588 432.879 335.632C433.841 336.675 433.666 338.217 432.488 339.069ZM429.548 335.883C428.743 336.467 428.623 337.522 429.282 338.236C429.94 338.949 431.131 339.055 431.937 338.472C432.743 337.889 432.862 336.834 432.204 336.12C431.546 335.406 430.354 335.3 429.548 335.883Z" fill="#E3F2FF"/>
<path d="M438.177 316.488C438.989 317.368 438.842 318.664 437.848 319.383C436.855 320.102 435.392 319.972 434.58 319.092C433.768 318.212 433.915 316.916 434.909 316.197C435.902 315.478 437.365 315.608 438.177 316.488Z" fill="#FFB555"/>
<path d="M438.124 319.681C436.947 320.533 435.205 320.378 434.243 319.335C433.28 318.292 433.455 316.75 434.633 315.897C435.81 315.045 437.552 315.199 438.514 316.243C439.477 317.286 439.302 318.828 438.124 319.681ZM435.184 316.495C434.379 317.078 434.259 318.133 434.917 318.847C435.576 319.561 436.767 319.667 437.573 319.084C438.379 318.5 438.498 317.445 437.84 316.731C437.181 316.017 435.99 315.911 435.184 316.495Z" fill="#E3F2FF"/>
<path d="M449.938 311.686C450.75 312.566 450.603 313.862 449.609 314.581C448.616 315.3 447.152 315.17 446.341 314.29C445.529 313.41 445.676 312.114 446.669 311.395C447.663 310.676 449.126 310.806 449.938 311.686Z" fill="#FFB555"/>
<path d="M449.885 314.879C448.707 315.732 446.966 315.577 446.003 314.534C445.041 313.491 445.216 311.948 446.393 311.095C447.571 310.243 449.312 310.398 450.275 311.441C451.238 312.484 451.063 314.027 449.885 314.879ZM446.945 311.693C446.14 312.276 446.019 313.332 446.678 314.045C447.336 314.759 448.528 314.865 449.334 314.282C450.139 313.698 450.259 312.643 449.601 311.93C448.942 311.216 447.75 311.11 446.945 311.693Z" fill="#E3F2FF"/>
<path d="M417.122 339.681C417.934 340.561 417.787 341.857 416.794 342.576C415.8 343.295 414.337 343.165 413.525 342.285C412.714 341.405 412.86 340.109 413.854 339.39C414.847 338.671 416.311 338.802 417.122 339.681Z" fill="#FFB455"/>
<path d="M417.069 342.875C415.891 343.728 414.15 343.573 413.187 342.53C412.224 341.487 412.399 339.944 413.577 339.091C414.755 338.239 416.496 338.394 417.459 339.437C418.421 340.48 418.246 342.022 417.069 342.875ZM414.128 339.689C413.322 340.272 413.203 341.328 413.861 342.041C414.52 342.755 415.711 342.861 416.517 342.278C417.322 341.694 417.442 340.639 416.784 339.926C416.126 339.212 414.934 339.106 414.128 339.689Z" fill="#E3F2FF"/>
<path d="M422.958 320.373H403.037C402.116 320.373 401.37 319.712 401.37 318.896V317.582C401.37 316.767 402.116 316.105 403.037 316.105H422.958C423.879 316.105 424.626 316.767 424.626 317.582V318.896C424.626 319.712 423.879 320.373 422.958 320.373Z" fill="#EBEBEB"/>
<path d="M422.959 312.913H403.038C402.117 312.913 401.371 312.252 401.371 311.436V310.122C401.371 309.307 402.117 308.646 403.038 308.646H422.959C423.88 308.646 424.627 309.307 424.627 310.122V311.436C424.627 312.252 423.88 312.913 422.959 312.913Z" fill="#EBEBEB"/>
<path d="M355.061 242.146C355.061 242.146 361.441 244.91 359.863 252.43C358.286 259.951 357.587 260.964 359.352 263.903C361.117 266.841 363.199 279.376 361.611 281.752C360.023 284.128 341.953 271.311 339.447 260.558C336.941 249.804 341.035 245.022 342.482 243.24C343.929 241.458 349.427 239.614 355.061 242.146Z" fill="#E8734D"/>
<path d="M383.224 234.411H362.81V247.517V250.277L365.926 247.517H383.224V234.411Z" fill="#FFCB55"/>
<path d="M352.655 416.675H354.101V410.634C354.101 410.634 356.937 412.309 358.717 414.625C360.497 416.94 362.944 416.743 366.67 416.595C370.396 416.447 370.23 415.117 369.896 413.245C369.562 411.373 365.78 410.782 364.556 410.487C363.333 410.191 360.555 405.953 359.662 404.92C358.444 403.512 357.799 402.162 357.799 402.162C357.799 402.162 357.104 399.649 353.655 402.162C350.207 404.674 351.208 409.502 351.597 409.945C351.987 410.388 352.655 416.675 352.655 416.675Z" fill="#163342"/>
<path d="M359.942 410.486C361.221 411.225 364.558 410.486 364.558 410.486C363.612 409.402 357.801 402.161 357.801 402.161C354.269 400.338 352.873 402.847 352.873 402.847C354.314 403.237 358.663 409.747 359.942 410.486Z" fill="#EEA886"/>
<path d="M397.129 299.05C397.129 299.05 399.443 299.443 400.235 298.479C400.907 297.66 402.445 297.031 402.918 296.837C403.551 296.576 405.157 295.138 405.535 295.841C405.913 296.544 403.016 298.326 402.493 298.807C401.97 299.288 405.334 299.501 405.914 299.968C406.494 300.436 405.781 305.351 403.491 304.969C401.202 304.586 399.041 302.838 398.623 302.842C398.205 302.845 396.944 302.622 396.944 302.622L397.129 299.05Z" fill="#EEA886"/>
<path d="M405.405 299.767C405.405 299.767 412.327 301.351 412.688 301.798C413.05 302.246 412.931 302.573 412.276 302.449C411.622 302.324 405.539 301.09 405.539 301.09C405.539 301.09 413.376 304.184 413.762 304.493C413.989 304.674 413.801 305.319 413.443 305.282C413.087 305.244 405.121 302.571 405.121 302.571C405.121 302.571 412.432 305.471 412.669 305.815C412.875 306.116 412.535 306.67 411.976 306.488C411.417 306.306 404.459 303.954 404.459 303.954C404.459 303.954 409.631 306.361 409.637 306.757C409.641 306.999 409.508 307.563 408.195 306.905C406.882 306.247 403.602 304.982 403.602 304.982L405.405 299.767Z" fill="#EEA886"/>
<path d="M333.919 417.087H334.809V412.653C334.809 412.653 336.391 414.095 337.114 416.213C337.837 418.332 340.426 418.96 344.375 418.861C348.324 418.763 348.379 417.382 348.046 415.313C347.712 413.244 344.375 412.161 344.375 412.161C342.873 410.978 339.147 406.077 339.147 406.077C339.147 406.077 336.755 405.51 334.878 406.852C333.001 408.195 333.585 411.224 333.641 412.013C333.696 412.801 333.919 417.087 333.919 417.087Z" fill="#163342"/>
<path d="M336.644 311.47C336.644 311.47 331.939 316.889 330.662 323.318C329.386 329.746 331.416 351.323 331.36 354.5C331.305 357.677 327.968 365.584 328.635 371.569C329.303 377.554 331.936 407.344 331.936 407.344L339.147 406.077C339.147 406.077 338.73 375.707 339.147 373.195C339.564 370.682 340.401 361.525 340.568 360.49C340.735 359.456 351.16 332.292 351.16 327.657C351.16 323.022 347.99 303.909 336.644 311.47Z" fill="#A59FE6"/>
<path d="M360.281 313.59C360.281 313.59 368.011 339.723 368.929 343.344C369.847 346.965 371.176 349.951 371.176 351.488C371.176 355.055 369.68 360.783 369.68 360.783L359.863 402.368H350.514C350.514 402.368 355.723 377.42 355.863 372.541C356.004 367.652 360.253 360.709 359.419 358.64C358.584 356.571 345.987 332.704 345.987 332.704C345.987 332.704 336.449 306.004 360.281 313.59Z" fill="#A59FE6"/>
<path d="M344.373 412.162L339.145 406.078L334.876 406.854C334.876 406.854 336.025 409.577 338.1 411.625C340.557 414.051 344.373 412.162 344.373 412.162Z" fill="#EEA886"/>
<path d="M357.088 269.18C357.088 269.18 360.276 269.446 362.684 271.731C365.093 274.016 367.352 277.661 367.983 278.88C368.614 280.099 377.456 291.395 377.915 291.649C378.374 291.903 382.818 293.218 385.763 294.096C390.307 295.451 399.417 298.383 399.417 298.383L397.608 303.457C397.608 303.457 380.478 298.492 376.188 297.556C370.943 296.411 358.866 282.689 358.866 282.689C358.866 282.689 349.863 273.344 357.088 269.18Z" fill="#E1DEFF"/>
<path d="M351.523 267.198C351.523 267.198 355.652 268.925 357.085 269.179C358.519 269.433 364.081 275.832 365.056 278.169C366.03 280.505 365.056 284.009 363.049 288.123C361.042 292.237 362.934 293.608 362.016 297.722C361.099 301.836 361.394 317.226 361.566 319.511C361.738 321.797 334.726 325.261 329.394 321.097C329.394 321.097 333.004 307.226 337.278 303.268C338.202 302.412 338.105 296.706 337.474 295.284C336.843 293.862 329.733 283.247 329.733 283.247C329.733 283.247 329.211 272.481 332.313 270.347C335.008 268.493 342.353 267.832 343.673 267.426C344.991 267.02 348.828 266.843 351.523 267.198Z" fill="#46497A"/>
<path d="M353.497 262.979C353.497 262.979 353.373 263.986 353.231 265.347C353.177 265.885 353.116 266.48 353.061 267.088C352.897 268.912 352.765 270.87 352.845 271.872C352.845 271.872 348.554 275.68 343.676 267.428C343.676 267.428 345.727 264.025 344.183 259.391C342.638 254.756 353.497 262.979 353.497 262.979Z" fill="#EEA886"/>
<path d="M365.505 289.641C365.505 289.641 366.538 283.557 365.439 279.857C365.439 279.857 365.439 283.039 363.47 287.557L365.505 289.641Z" fill="#183C59"/>
<path d="M340.379 268.012C340.379 268.012 343.33 275.732 351.432 275.164C359.535 274.596 355.274 268.645 355.274 268.645C355.274 268.645 353.254 267.62 352.686 267.523C352.117 267.426 343.727 267.332 343.727 267.332L340.379 268.012Z" fill="#EEA886"/>
<path d="M355.275 268.646C355.275 268.646 359.519 279.043 359.519 289.64C359.519 300.237 359.861 317.499 361.343 322.95C362.824 328.401 367.041 345.26 367.041 345.26L370.347 343.746C370.347 343.746 362.398 316.84 361.799 314.9C361.198 312.96 362.254 292.463 362.824 290.748C363.394 289.032 365.818 281.393 365.441 279.273C364.966 276.602 362.143 272.648 357.585 269.249L355.275 268.646Z" fill="#E1DEFF"/>
<path d="M341.981 267.688C341.981 267.688 344.619 275.168 345.956 284.749C347.292 294.329 341.852 338.8 338.205 348.895L324.072 346.876C324.072 346.876 327.115 315.442 331.244 309.721C335.374 304 336.688 298.939 332.23 287C327.772 275.06 334.184 269.147 334.184 269.147C334.184 269.147 340.742 267.811 341.981 267.688Z" fill="#E1DEFF"/>
<path d="M357.228 299.411L340.092 325.699L321.042 315.957L337.433 289.288L357.228 299.411Z" fill="#616161"/>
<path d="M355.161 300.315L339.942 323.663L323.023 315.011L337.581 291.325L355.161 300.315Z" fill="#E0CEC7"/>
<path d="M349.547 298.217L350.616 296.579L343.776 293.081L342.44 294.583L349.547 298.217Z" fill="#616161"/>
<path d="M348.733 316.867C348.733 316.867 347.953 316.87 347.612 316.724C347.612 316.724 347.014 316.416 346.573 316.22C346.433 316.159 346.31 316.108 346.226 316.082C345.877 315.975 345.073 315.832 344.316 315.366C343.559 314.901 340.875 312.15 340.875 312.15L342.143 310.443L343.072 308.695C343.072 308.695 348.706 309.018 349.468 309.379C349.542 309.415 349.614 309.452 349.679 309.492C350.29 309.853 350.574 310.35 350.871 310.572C350.979 310.654 351.995 311.535 351.96 311.91C351.911 312.43 351.639 312.773 351.285 312.945C351.285 312.945 351.139 313.96 350.574 314.434C350.574 314.434 350.474 315.374 349.581 315.786C349.581 315.786 349.359 316.73 348.733 316.867Z" fill="#EEA886"/>
<path d="M337.119 269.18C337.119 269.18 331.915 267.859 328.934 272.938C325.952 278.017 325.967 280.185 325.568 282.665C325.192 285.006 323.493 291.4 323.321 292.06C323.149 292.72 319.302 300.593 321.066 303.345C322.84 306.112 340.851 314.253 340.736 314.863C340.622 315.472 343.856 308.707 343.856 308.707C343.856 308.707 336.568 305.109 335.374 304.001C333.435 302.202 329.345 300.263 330.186 298.031C331.173 295.408 334.138 286.561 334.826 285.267C335.513 283.971 341.506 270.831 337.119 269.18Z" fill="#E1DEFF"/>
<path d="M354.14 242.978C354.14 242.978 363.404 245.557 358.375 259.717C353.345 273.878 340.693 258.076 342.016 249.449C343.34 240.821 354.14 242.978 354.14 242.978Z" fill="#EEA987"/>
<path d="M359.321 251.238C359.321 251.238 354.717 255.239 347.013 255.74C347.013 255.74 344.052 258.814 343.825 260.021C343.825 260.021 336.952 249.644 345.401 243.423C353.85 237.203 362.427 248.675 359.321 251.238Z" fill="#E8734D"/>
<path d="M347.106 256.024C347.046 254.994 346.329 252.648 344.6 253.304C342.87 253.961 344.706 258.737 345.852 258.444C345.852 258.444 347.247 258.462 347.106 256.024Z" fill="#EEA987"/>
<path d="M353.231 265.346C353.177 265.885 353.116 266.479 353.061 267.088C353.061 267.088 348.973 266.872 346.239 261.484C346.418 261.72 349.413 265.618 353.231 265.346Z" fill="#A77860"/>
<path d="M478.012 289.242L459.324 298.34L440.557 272.182L463.255 265.199L478.012 289.242Z" fill="#292C47"/>
<path d="M476.826 288.456L459.35 296.964L441.8 272.502L463.027 265.972L476.826 288.456Z" fill="#E2D2CA"/>
<path d="M483.226 283.881C483.226 283.881 479.973 282.503 478.546 281.783C477.118 281.062 473.445 280.074 473.148 279.839C472.852 279.604 462.262 279.025 461.62 278.535C460.978 278.044 460.353 279.685 463.098 280.218C465.842 280.75 469.662 282.052 469.871 283.002C470.08 283.953 467.051 284.178 466.745 284.96C466.438 285.743 466.831 285.567 467.265 285.735C467.699 285.903 470.867 284.349 472.26 284.79C473.653 285.231 475.782 284.621 476.85 284.945C477.917 285.268 483.108 286.815 483.108 286.815L483.226 283.881Z" fill="#EEA886"/>
<path d="M458.412 295.058C458.412 295.058 455.68 292.88 454.358 291.969C453.035 291.057 450.553 288.377 450.188 288.221C449.822 288.065 445.084 279.451 444.311 279.106C443.539 278.76 445.042 277.6 446.677 279.684C448.313 281.767 451.185 284.449 452.277 284.253C453.37 284.057 452.43 281.443 453.143 280.882C453.856 280.321 453.822 280.717 454.17 281.014C454.518 281.311 454.098 284.56 455.109 285.551C456.121 286.542 456.3 288.557 457.06 289.322C457.821 290.087 461.488 293.817 461.488 293.817L458.412 295.058Z" fill="#EEA886"/>
<path d="M517.261 411.488C517.261 411.488 517.852 415.122 517.926 415.667C518 416.213 524.501 415.346 524.501 415.346L525.028 411.019C525.028 411.019 518.074 410.975 517.261 411.488Z" fill="#424773"/>
<path d="M517.858 415.205C517.858 415.205 515.798 417.395 513.806 418.349C511.813 419.304 508.682 419.682 507.504 420.67C506.654 421.383 504.407 424.453 512.681 424.391C520.956 424.329 524.946 424.825 525.832 423.648C526.719 422.471 524.549 414.959 524.549 414.959C524.549 414.959 522.59 415.584 517.858 415.205Z" fill="#292C47"/>
<path d="M470.675 411.488C470.675 411.488 471.266 415.122 471.34 415.667C471.414 416.213 477.915 415.346 477.915 415.346L478.442 411.019C478.442 411.019 471.487 410.975 470.675 411.488Z" fill="#424773"/>
<path d="M471.273 415.205C471.273 415.205 469.213 417.395 467.22 418.349C465.228 419.304 457.896 420.087 456.718 421.076C455.868 421.789 454.453 424.66 466.096 424.391C474.368 424.2 478.361 424.825 479.247 423.648C480.134 422.471 477.965 414.959 477.965 414.959C477.965 414.959 476.118 415.626 471.273 415.205Z" fill="#292C47"/>
<path d="M511.878 318.11C511.878 318.11 517.987 326.707 517.531 334.478C517.076 342.249 519.746 350.733 520.664 358.851C521.687 367.901 525.874 389.325 526.026 394.166C526.178 399.007 525.376 414.465 525.376 414.465L516.995 414.635C516.995 414.635 509.956 377.179 508.133 373.358C506.31 369.536 497.269 342.29 496.965 339.232C496.661 336.175 511.878 318.11 511.878 318.11Z" fill="#292C47"/>
<path d="M479.718 319.277C479.718 319.277 475.114 340.575 474.507 345.331C473.899 350.088 473.494 368.348 473.19 371.321C472.886 374.293 471.165 410.22 469.544 414.636H480.258C480.258 414.636 488.483 388.519 488.483 376.162C488.483 363.805 494.838 349.298 498.94 341.145C503.041 332.992 512.43 332.799 514.952 317.672C514.952 317.672 483.132 314.479 479.718 319.277Z" fill="#292C47"/>
<path d="M501.684 245.835C501.684 245.835 493.484 243.123 489.703 248.651C485.922 254.179 486.287 265.248 490.42 266.609C494.553 267.969 500.762 267.258 502.878 263.799C504.994 260.339 506.904 255.338 506.813 251.996C506.721 248.653 503.836 246.8 501.684 245.835Z" fill="#EEA886"/>
<path d="M491.309 266.861C491.309 266.861 491.65 268.822 491.086 269.788C490.522 270.754 501.709 270.779 501.709 270.779C501.709 270.779 502.618 265.525 504.339 261.086C506.061 256.647 491.309 266.861 491.309 266.861Z" fill="#EEA886"/>
<path d="M504.339 261.086C504.339 261.086 503.567 262.215 500.416 261.777C497.263 261.339 493.418 257.625 492.102 257.217C490.787 256.809 490.774 256.125 490.774 256.125L489.95 257.191L488.552 257.269C488.552 257.269 489.827 253.947 487.904 252.591C485.981 251.237 489.9 241.838 500.008 244.967C500.008 244.967 507.772 246.863 507.49 250.773C507.207 254.684 506.076 259.139 504.339 261.086Z" fill="#3A3F47"/>
<path d="M490.422 269.672C490.422 269.672 490.457 267.826 491.402 267.649C492.346 267.472 501.827 266.665 502.986 267.069V269.218C502.986 269.218 500.753 270.436 490.422 269.672Z" fill="#E2D2CA"/>
<path d="M490.983 254.703C491.16 254.047 493.043 252.172 493.764 254.18C494.486 256.186 492.675 258.886 491.665 258.655C490.655 258.424 490.535 256.366 490.983 254.703Z" fill="#EEA886"/>
<path d="M452.796 291.476C452.8 291.475 452.805 291.474 452.811 291.475C452.747 291.5 452.737 291.503 452.796 291.476Z" fill="#323657"/>
<path d="M518.77 338.592C518.77 338.592 513.741 339.904 505.165 340.74C496.59 341.578 475.164 340.438 475.029 339.541C474.893 338.643 479.638 306.129 479.368 304.454C479.098 302.78 478.953 296.813 478.953 296.813C478.848 298.448 476.967 305.125 474.697 308.766C473.877 310.081 471.126 314.203 469.8 313.266C463.381 308.726 453.441 291.621 452.812 291.477C453.341 291.273 457.522 289.568 458.109 289.395C458.622 289.243 463.253 293.586 466.059 296.278C467.309 297.478 468.198 298.349 468.198 298.349C469.008 296.735 471.959 286.564 472.876 283.043C474.945 275.104 474.627 274.774 474.627 274.774C480.9 273.093 490.423 269.672 490.423 269.672L502.987 269.219C502.987 269.219 514.518 271.467 519.06 273.284C519.491 273.456 519.493 282.396 520.675 284.74L516.91 291.775C516.91 291.775 514.735 305.712 514.283 311.911C514.076 314.756 518.77 338.592 518.77 338.592Z" fill="#4B5182"/>
<path d="M521.196 296.345C520.868 297.283 519.379 298.075 518.411 298.422C517.791 298.644 517.098 298.716 516.4 298.601L515.908 298.521V298.52L507.297 297.106C507.297 297.106 505.413 277.888 519.06 273.283C519.421 273.388 524.21 287.74 521.196 296.345Z" fill="#4B5182"/>
<path d="M518.411 298.422C518.411 298.422 518.411 298.422 518.411 298.423C517.791 298.645 517.097 298.717 516.399 298.602L515.907 298.521V298.521L516.756 288.7L518.411 298.422Z" fill="#24263D"/>
<path d="M468.198 298.349L467.146 302.296C467.146 302.296 466.003 298.335 466.059 296.277C467.309 297.478 468.198 298.349 468.198 298.349Z" fill="#24263D"/>
<path d="M504.02 246.488C504.02 246.488 514.746 245.348 504.182 261.247L504.02 246.488Z" fill="#3A3F47"/>
<path d="M449.196 270.779L448.104 269.117L456.708 266.487L457.8 268.141L449.196 270.779Z" fill="#292C47"/>
<defs>
<linearGradient id="paint0_linear_76_2986" x1="654.305" y1="26.0891" x2="34.1311" y2="423.462" gradientUnits="userSpaceOnUse">
<stop stop-color="#469EFF"/>
<stop offset="1" stop-color="#469EFF"/>
</linearGradient>
<linearGradient id="paint1_linear_76_2986" x1="342.183" y1="374.669" x2="342.183" y2="-17.6321" gradientUnits="userSpaceOnUse">
<stop stop-color="#FF7F5B"/>
<stop offset="1" stop-color="#FFC955"/>
</linearGradient>
<linearGradient id="paint2_linear_76_2986" x1="-135.925" y1="392.297" x2="315.541" y2="392.297" gradientUnits="userSpaceOnUse">
<stop stop-color="#FFC05C"/>
<stop offset="1" stop-color="#FF3857"/>
</linearGradient>
<linearGradient id="paint3_linear_76_2986" x1="388.828" y1="370.326" x2="469.334" y2="370.326" gradientUnits="userSpaceOnUse">
<stop stop-color="#FF9F55"/>
<stop offset="1" stop-color="#FFD255"/>
</linearGradient>
<linearGradient id="paint4_linear_76_2986" x1="385.342" y1="370.326" x2="465.847" y2="370.326" gradientUnits="userSpaceOnUse">
<stop stop-color="#FF9F55"/>
<stop offset="1" stop-color="#FFD255"/>
</linearGradient>
<linearGradient id="paint5_linear_76_2986" x1="464.795" y1="369.126" x2="375.432" y2="268.232" gradientUnits="userSpaceOnUse">
<stop stop-color="#FF9F55"/>
<stop offset="1" stop-color="#FFD255"/>
</linearGradient>
</defs>
</svg>
